<?xml version="1.0" standalone="no"?>
<!DOCTYPE svg PUBLIC "-//W3C//DTD SVG 20010904//EN"
 "http://www.w3.org/TR/2001/REC-SVG-20010904/DTD/svg10.dtd">
<svg version="1.0" xmlns="http://www.w3.org/2000/svg"
 width="300.000000pt" height="301.000000pt" viewBox="0 0 300.000000 301.000000"
 preserveAspectRatio="xMidYMid meet">
<metadata>
Created by potrace 1.10, written by Peter Selinger 2001-2011
</metadata>
<g transform="translate(0.000000,301.000000) scale(0.100000,-0.100000)"
fill="#999999" stroke="none">
<path d="M1481 2974 c-20 -54 -64 -98 -149 -147 -75 -44 -140 -103 -178 -163
-40 -64 -69 -91 -87 -80 -12 8 -22 5 -39 -11 -22 -21 -25 -21 -78 -6 -79 21
-203 20 -265 -3 -66 -24 -178 -25 -222 -1 -37 20 -40 17 -17 -18 23 -36 28
-121 9 -185 -36 -128 -38 -158 -18 -270 l18 -105 -23 -23 c-15 -15 -21 -29
-17 -42 5 -15 -6 -26 -52 -55 -84 -53 -139 -111 -179 -186 -42 -79 -90 -128
-147 -150 l-42 -17 39 -16 c66 -27 99 -60 141 -135 53 -98 92 -140 179 -199
55 -36 72 -52 64 -60 -15 -15 5 -62 25 -62 12 0 12 -12 1 -82 -19 -116 -17
-180 7 -267 25 -88 22 -182 -6 -224 -21 -32 -20 -33 40 -6 55 24 126 22 205
-6 57 -21 198 -21 264 -1 48 14 50 14 64 -5 9 -13 23 -19 40 -17 28 3 56 -22
96 -86 38 -60 103 -119 178 -163 85 -49 129 -93 149 -147 14 -38 29 -48 29
-19 0 26 45 96 77 119 16 12 52 33 81 48 72 37 118 80 171 161 31 47 52 69 62
67 9 -2 25 7 35 20 22 26 50 28 180 8 76 -12 86 -11 183 14 121 31 145 32 211
7 27 -11 50 -18 50 -16 0 1 -10 24 -21 50 -24 55 -22 119 7 196 20 53 23 207
5 261 -10 32 -10 41 5 62 9 14 13 33 10 42 -4 11 1 22 14 31 11 8 20 22 20 33
0 11 17 28 45 44 67 40 135 114 180 195 43 79 77 114 137 138 42 17 42 28 -2
38 -40 9 -104 73 -136 137 -39 78 -87 132 -159 180 -36 23 -67 50 -70 59 -3
10 -13 20 -21 23 -10 4 -13 13 -9 27 4 13 1 27 -9 38 -14 16 -14 24 -1 87 19
88 19 136 0 204 -42 151 -42 175 0 274 8 17 7 17 -24 1 -53 -27 -118 -29 -201
-7 -114 31 -143 34 -217 21 -113 -19 -156 -18 -171 3 -7 10 -24 18 -36 18 -18
0 -33 16 -64 64 -50 76 -103 126 -174 162 -28 14 -65 36 -81 48 -32 23 -77 93
-77 119 0 29 -15 19 -29 -19z m29 -20 c0 -26 78 -100 141 -134 78 -41 130 -88
179 -160 34 -50 37 -59 26 -81 -15 -31 -51 -37 -65 -10 -19 35 28 66 59 39 12
-11 12 -10 0 5 -10 13 -22 17 -41 13 -18 -3 -32 0 -40 10 -9 11 -23 14 -45 11
-22 -4 -37 -1 -45 9 -14 17 -41 18 -57 2 -9 -9 -15 -9 -24 0 -14 14 -68 16
-68 2 0 -5 -13 -2 -29 8 -28 16 -31 15 -49 -1 -13 -12 -22 -15 -27 -8 -10 17
-63 13 -73 -5 -6 -11 -11 -13 -16 -5 -12 18 -54 13 -69 -10 -9 -13 -17 -16
-22 -10 -10 17 -53 13 -63 -6 -6 -10 -16 -14 -26 -10 -15 6 -14 12 13 50 46
67 100 115 178 158 76 43 129 93 139 134 6 26 24 25 24 -1z m-12 -296 c18 -18
15 -46 -6 -57 -39 -21 -73 36 -34 58 22 13 26 13 40 -1z m-79 -12 c9 -11 10
-20 1 -35 -13 -25 -45 -27 -59 -4 -21 38 31 72 58 39z m176 -16 c0 -20 -6 -26
-28 -28 -18 -2 -29 2 -33 12 -11 28 4 48 33 44 22 -2 28 -8 28 -28z m89 4 c10
-26 -5 -45 -33 -42 -20 2 -27 9 -29 30 -2 19 2 27 15 30 24 6 40 -1 47 -18z
m-353 0 c17 -21 0 -49 -32 -49 -27 0 -37 28 -19 50 16 19 34 19 51 -1z m425
-2 c28 -18 24 -77 -13 -219 -21 -79 -41 -143 -45 -143 -4 0 -15 12 -25 26 -15
23 -15 34 -4 102 27 166 29 169 60 164 16 -2 32 1 35 6 4 7 -4 10 -20 9 -34
-3 -53 25 -35 47 15 17 30 20 47 8z m-508 -34 c2 -19 -2 -28 -18 -33 -37 -12
-64 27 -38 53 21 21 53 10 56 -20z m-80 -31 c-2 -17 -10 -22 -33 -22 -35 0
-47 31 -20 51 25 18 57 0 53 -29z m318 20 c11 4 14 -8 14 -59 0 -60 -2 -66
-34 -97 l-33 -32 -7 95 c-8 108 -4 123 26 102 11 -8 27 -12 34 -9z m97 -2 c14
4 35 2 46 -5 16 -8 27 -8 42 1 20 10 21 9 16 -11 -3 -12 -13 -70 -23 -130
l-17 -107 -29 33 -30 33 9 86 c5 48 5 88 1 91 -4 3 -8 -10 -8 -28 0 -18 -3
-56 -6 -84 l-6 -51 -34 37 c-31 34 -34 43 -34 99 l0 61 24 -15 c15 -10 33 -14
49 -10z m-192 -5 c14 0 18 -16 24 -91 6 -81 5 -95 -12 -117 -11 -14 -23 -27
-29 -29 -5 -2 -18 49 -29 112 -18 102 -19 117 -6 130 10 10 19 12 25 5 6 -6
18 -10 27 -10z m-64 -87 c27 -154 27 -169 4 -198 -15 -19 -22 -23 -25 -14 -3
8 -20 71 -39 140 -30 115 -32 128 -18 146 14 17 18 18 41 6 20 -10 27 -24 37
-80z m604 81 c9 -11 10 -20 2 -32 -13 -22 -43 -22 -56 -1 -24 38 25 68 54 33z
m-981 -19 c10 -6 9 -10 -4 -17 -9 -5 -16 -16 -16 -24 0 -8 -6 -14 -12 -13 -33
4 -49 -3 -60 -26 -7 -15 -17 -24 -25 -21 -14 6 -53 -27 -53 -44 0 -5 -9 -10
-20 -10 -13 0 -28 -12 -38 -30 -9 -16 -22 -30 -29 -30 -20 0 -45 -32 -40 -52
3 -10 1 -15 -4 -12 -17 10 -61 -26 -56 -46 3 -13 -2 -20 -19 -24 -15 -4 -26
-16 -30 -34 -4 -15 -18 -37 -32 -50 -15 -14 -22 -30 -19 -42 6 -22 -21 -36
-37 -20 -5 5 -12 52 -14 103 -3 74 0 106 17 161 24 79 27 152 7 200 l-14 34
34 -14 c46 -19 117 -17 194 6 50 15 87 19 161 17 53 -2 102 -7 109 -12z m139
-9 c5 -27 -26 -48 -50 -35 -19 10 -25 39 -12 53 14 14 58 1 62 -18z m1226 4
c83 -24 155 -26 194 -5 l28 14 -13 -37 c-19 -55 -17 -109 10 -198 24 -79 27
-140 11 -230 l-7 -40 -29 29 c-16 16 -27 32 -24 36 7 12 -24 51 -41 51 -8 0
-14 10 -14 23 0 27 -17 47 -42 47 -11 0 -15 5 -11 15 6 17 -23 55 -41 55 -6 0
-19 14 -28 30 -10 18 -25 30 -38 30 -11 0 -20 5 -20 12 0 18 -31 48 -49 48 -9
0 -21 10 -26 23 -6 12 -21 24 -34 25 -14 2 -33 15 -44 29 -14 17 -27 23 -43
20 -30 -5 -41 21 -11 28 12 2 31 6 42 8 55 12 165 6 230 -13z m-1107 2 c7 -5
30 -73 52 -152 29 -108 36 -147 28 -157 -24 -30 -41 -5 -94 137 -30 80 -54
146 -54 148 0 1 7 2 15 2 9 0 18 7 21 15 7 17 13 18 32 7z m797 -8 c25 -25 15
-49 -20 -49 -33 0 -45 25 -25 50 16 19 25 19 45 -1z m-143 -10 c4 -6 -16 -74
-44 -151 -44 -122 -54 -142 -75 -146 -13 -2 -25 -1 -28 2 -2 5 64 278 75 306
2 6 67 -4 72 -11z m-859 -16 c17 -26 1 -50 -30 -46 -34 4 -43 36 -17 55 21 15
34 13 47 -9z m176 -130 c28 -78 50 -143 48 -145 -2 -2 -17 0 -34 3 -27 5 -35
17 -82 121 l-52 115 20 20 c12 10 21 23 21 28 0 5 6 7 14 4 7 -3 36 -68 65
-146z m726 -10 c-50 -109 -65 -128 -101 -128 -21 0 -21 4 25 128 44 118 50
127 77 132 53 10 53 -18 -1 -132z m189 116 c10 -26 -5 -45 -33 -42 -19 2 -27
10 -29 27 -2 13 2 27 8 31 17 10 47 1 54 -16z m-1001 -114 c30 -66 52 -120 48
-120 -5 0 -23 3 -40 6 -26 6 -38 20 -82 96 -28 49 -53 87 -56 84 -3 -2 18 -44
46 -91 31 -53 45 -85 35 -81 -8 3 -29 6 -44 6 -25 0 -36 10 -71 61 -22 33 -43
58 -46 55 -3 -3 11 -27 31 -54 20 -27 36 -54 36 -60 0 -5 30 -13 68 -17 82 -8
250 -47 314 -72 l46 -18 -31 -37 -32 -37 -55 15 c-70 19 -257 44 -326 44 l-52
0 -4 -57 c-6 -79 9 -275 26 -346 l14 -58 -36 -24 -36 -25 -13 23 c-41 79 -73
292 -73 484 l0 133 93 -7 c50 -3 90 -3 87 0 -3 2 -46 8 -97 12 -83 6 -92 5
-96 -12 -4 -15 -5 -14 -6 5 -1 17 4 22 23 22 14 0 28 5 31 11 5 7 14 4 26 -7
10 -9 19 -12 19 -7 0 6 -7 16 -15 23 -22 18 -19 39 5 33 13 -4 24 3 37 24 10
17 24 28 32 25 7 -2 24 7 38 22 13 14 35 26 48 26 15 0 26 7 30 20 3 11 10 20
14 20 4 0 33 -54 64 -120z m-159 95 c12 -32 -17 -61 -49 -49 -15 6 -21 45 -8
57 12 13 51 7 57 -8z m1089 -19 c13 -17 9 -27 -30 -95 -25 -42 -48 -79 -51
-83 -9 -9 -72 -20 -72 -12 0 3 21 53 47 109 40 90 50 103 69 102 13 -1 29 -11
37 -21z m140 -7 c15 -24 1 -49 -27 -49 -19 0 -27 7 -32 26 -11 42 36 59 59 23z
m-502 -156 c22 -29 39 -56 39 -61 0 -5 -18 -14 -40 -21 l-40 -12 -53 57 -53
57 -64 -62 c-36 -33 -69 -61 -75 -61 -5 0 -27 8 -49 18 l-38 17 85 96 c47 53
98 106 114 118 l28 21 54 -58 c29 -31 71 -80 92 -109z m-803 121 c2 -11 -3
-26 -11 -33 -29 -24 -70 17 -46 46 17 20 53 12 57 -13z m1240 -3 c12 -28 11
-33 -23 -80 -28 -39 -44 -52 -71 -57 -19 -3 -37 -4 -40 -1 -3 3 15 42 41 86
51 88 72 100 93 52z m126 -4 c28 -21 17 -52 -19 -52 -33 0 -45 25 -25 50 15
18 21 19 44 2z m-1435 -31 c16 -20 -3 -56 -29 -56 -29 0 -44 35 -24 54 19 20
38 20 53 2z m1371 2 c0 -6 7 -19 15 -28 14 -15 13 -20 -6 -43 -17 -22 -29 -27
-65 -27 -24 0 -44 2 -44 5 0 3 16 27 36 55 34 47 64 65 64 38z m139 -35 c12
-23 -4 -53 -29 -53 -26 0 -45 36 -29 56 16 19 46 18 58 -3z m-42 -64 c10 -1
21 -1 25 0 4 0 5 -6 2 -13 -6 -16 32 -60 44 -52 4 3 9 -4 9 -15 2 -28 22 -49
45 -49 28 0 17 -11 -65 -68 l-74 -51 5 47 c4 39 12 53 46 84 23 20 38 37 34
38 -4 0 -23 -14 -42 -30 l-34 -30 4 42 c3 24 6 53 8 66 3 18 -2 22 -23 23 -14
1 -37 4 -49 8 l-24 6 23 29 22 28 13 -31 c7 -17 21 -32 31 -32z m-1532 16 c0
-23 -5 -31 -21 -33 -30 -4 -48 21 -34 48 18 33 55 23 55 -15z m902 -129 c36
-46 43 -60 32 -67 -8 -5 -25 -7 -39 -4 -76 17 -149 17 -198 1 -40 -14 -56 -15
-72 -6 l-22 12 28 31 c16 18 58 63 94 100 l65 68 33 -38 c18 -21 54 -64 79
-97z m717 128 c10 -4 16 -18 16 -36 0 -26 -3 -29 -27 -26 -21 2 -29 9 -31 27
-2 13 2 28 10 32 16 11 13 10 32 3z m-1598 -88 l-7 -46 -27 21 c-31 24 -38 69
-11 69 10 0 21 5 25 11 14 24 26 -10 20 -55z m-78 28 c2 -11 -3 -26 -11 -33
-29 -24 -70 17 -46 46 17 20 53 12 57 -13z m1582 19 c0 -16 -21 -230 -26 -268
-9 -70 -51 -249 -68 -288 l-15 -38 -32 23 c-26 19 -30 28 -25 53 3 17 12 66
21 110 8 44 18 128 22 188 l6 107 -140 0 c-86 0 -173 -6 -224 -16 l-83 -15
-18 23 c-33 42 -40 58 -26 63 51 17 143 39 207 50 82 14 401 20 401 8z m160
-38 c18 -22 8 -50 -19 -50 -32 0 -49 28 -32 49 17 20 35 20 51 1z m-1797 -37
c17 -26 1 -50 -30 -46 -34 4 -43 36 -17 55 21 15 34 13 47 -9z m131 -77 c3
-24 4 -46 2 -49 -3 -2 -29 13 -60 35 -43 29 -55 44 -56 64 0 17 7 29 23 36 35
16 82 -29 91 -86z m1716 44 c18 -22 8 -50 -19 -50 -32 0 -49 28 -32 49 17 20
35 20 51 1z m-1360 -11 c86 -12 247 -49 259 -60 2 -2 -10 -14 -25 -28 -22 -19
-40 -25 -77 -26 -120 0 -246 -120 -250 -237 -2 -40 -8 -53 -35 -80 -20 -20
-35 -28 -37 -20 -22 63 -37 178 -42 311 l-6 159 89 -7 c49 -4 105 -9 124 -12z
m1020 -47 c0 -92 -32 -290 -62 -385 -10 -32 -11 -33 -29 -16 -14 12 -19 31
-19 67 0 120 -106 233 -235 252 -36 6 -60 17 -88 42 l-37 33 26 11 c55 20 192
37 317 38 l127 1 0 -43z m-1553 17 c8 -20 -8 -48 -30 -52 -22 -5 -42 35 -26
54 16 19 48 18 56 -2z m118 -29 c57 -41 63 -49 67 -85 2 -22 2 -40 0 -40 -2 0
-43 23 -91 51 -80 47 -87 53 -83 78 5 25 18 41 35 41 5 0 37 -20 72 -45z
m1741 5 c11 0 13 -6 9 -20 -4 -14 2 -27 20 -44 15 -14 23 -30 20 -39 -5 -11
-255 -139 -261 -133 -1 0 1 16 3 34 5 30 16 39 109 94 57 34 102 63 100 65 -2
3 -48 -20 -101 -51 l-97 -55 7 42 c4 23 12 45 19 49 6 4 38 27 71 51 57 41 61
43 73 25 7 -10 20 -18 28 -18z m-800 -8 c21 -11 49 -31 62 -44 l22 -25 -25
-11 c-22 -10 -33 -8 -68 10 -54 28 -156 30 -206 4 -28 -15 -38 -16 -62 -6 -23
10 -27 15 -18 26 18 21 78 56 113 65 49 13 138 3 182 -19z m870 10 c16 -10 37
-53 30 -60 -3 -3 -6 0 -6 7 0 8 -5 7 -16 -3 -12 -12 -20 -13 -35 -6 -21 12
-25 40 -7 58 14 14 19 14 34 4z m-1973 -54 c15 -23 1 -48 -27 -48 -33 0 -46
38 -20 57 21 15 34 13 47 -9z m141 -43 c80 -47 94 -59 100 -86 3 -18 4 -34 2
-36 -2 -2 -58 22 -125 53 -84 40 -118 61 -111 68 5 5 10 20 10 33 0 34 21 29
124 -32z m676 7 c33 -16 100 -93 100 -114 0 -5 -13 4 -29 21 -74 79 -188 66
-278 -32 -71 -77 -80 -163 -26 -242 25 -36 28 -46 23 -105 -4 -49 -9 -66 -21
-68 -13 -2 -18 7 -21 35 -7 57 5 99 26 95 10 -2 0 12 -25 35 -51 46 -69 86
-69 151 0 159 188 291 320 224z m265 1 l35 -17 -25 -26 c-24 -25 -29 -26 -70
-17 -31 7 -56 7 -79 0 -32 -10 -36 -8 -56 19 -12 16 -20 31 -18 33 28 28 161
33 213 8z m940 1 c18 -18 16 -33 -7 -47 -23 -15 -48 -1 -48 26 0 40 26 50 55
21z m-699 -23 c85 -39 153 -135 154 -218 0 -77 -38 -136 -112 -174 l-37 -19 5
58 c8 81 6 99 -12 135 -23 46 -44 66 -87 88 -39 20 -88 27 -122 16 -11 -4 -26
-3 -33 2 -19 11 28 48 79 61 81 22 183 -34 225 -123 36 -79 30 -132 -24 -191
-26 -29 -26 -29 -3 -15 13 9 33 31 43 50 53 100 -21 246 -147 285 -65 21 -109
14 -164 -27 -29 -21 -39 -24 -32 -12 15 28 73 81 101 92 41 16 122 12 166 -8z
m-1361 -36 c0 -25 -4 -30 -25 -30 -19 0 -26 6 -28 24 -4 25 13 43 38 38 9 -1
15 -13 15 -32z m273 -91 c12 -8 22 -21 22 -28 0 -8 3 -21 6 -29 3 -10 -42 2
-142 39 -136 50 -191 66 -154 45 8 -5 76 -30 150 -56 74 -27 139 -52 145 -57
6 -5 2 -15 -10 -27 -20 -18 -24 -17 -165 21 -187 50 -174 44 -149 69 11 11 18
27 15 36 -3 8 3 26 14 40 13 17 18 33 14 49 -6 23 0 21 112 -31 66 -31 129
-63 142 -71z m1734 93 c18 -9 23 -17 18 -36 -4 -20 -20 -30 -80 -52 -41 -15
-112 -41 -158 -57 l-82 -31 6 27 c4 15 10 31 14 35 4 5 63 35 131 67 68 32
125 59 125 59 1 1 13 -5 26 -12z m-1133 -15 c45 -22 68 -57 76 -112 4 -31 3
-40 -4 -30 -5 9 -11 29 -13 45 -3 26 -9 32 -46 42 -115 30 -221 -63 -222 -194
0 -67 -10 -78 -35 -39 -62 94 -20 219 94 278 62 32 102 35 150 10z m209 -8
c10 -3 10 -9 2 -24 -8 -16 -21 -20 -60 -20 -39 0 -52 4 -60 20 -11 21 -9 24
35 33 19 4 54 0 83 -9z m1003 6 c24 -13 25 -46 1 -59 -37 -20 -70 27 -40 57
15 15 15 15 39 2z m-2121 -35 c16 10 18 -36 1 -56 -19 -24 -46 -18 -54 12 -6
21 35 69 41 49 2 -5 7 -8 12 -5z m2298 -120 c18 -20 45 -62 61 -93 34 -67 91
-127 136 -144 l33 -11 -49 -25 c-50 -24 -85 -66 -128 -149 -30 -59 -75 -108
-142 -154 -67 -45 -82 -50 -49 -14 20 21 22 28 12 50 -7 14 -8 25 -2 25 18 0
31 39 20 60 -9 16 -7 24 5 36 17 17 20 50 5 59 -6 4 -4 15 6 30 16 24 12 65
-6 65 -5 0 -2 13 8 29 16 28 15 31 -1 49 -12 13 -15 22 -8 27 16 9 13 51 -4
65 -11 9 -12 17 -4 31 19 36 -17 87 -53 74 -21 -8 -40 11 -36 36 2 18 9 24 28
24 20 0 26 -6 28 -28 2 -15 8 -25 13 -22 15 10 10 34 -11 55 -12 12 -18 25
-15 30 8 13 113 -59 153 -105z m-2363 95 c-3 -5 -2 -17 3 -27 7 -12 4 -21 -12
-34 -19 -15 -20 -21 -9 -48 6 -17 7 -31 2 -31 -18 0 -30 -39 -18 -61 8 -16 8
-23 0 -29 -18 -10 -21 -48 -6 -64 12 -12 12 -16 0 -26 -19 -16 -19 -45 -1 -62
11 -11 11 -16 -1 -35 -14 -20 -14 -26 0 -46 11 -17 12 -28 5 -41 -15 -27 6
-64 39 -72 15 -3 34 -8 41 -10 18 -5 11 -45 -11 -58 -15 -9 -21 -7 -33 8 -8
11 -11 29 -8 39 4 13 2 17 -5 13 -16 -10 -14 -41 4 -56 8 -7 15 -22 15 -33 0
-20 1 -20 13 -3 21 28 52 17 52 -19 0 -33 -30 -48 -49 -24 -6 8 -23 20 -38 28
-55 28 -135 110 -168 172 -38 72 -91 134 -134 156 l-30 15 30 15 c45 24 83 63
116 123 55 99 81 131 142 175 65 47 71 51 61 35z m2154 -32 c-6 -10 -7 -23 -4
-28 3 -5 -14 -14 -37 -21 -257 -70 -250 -68 -275 -52 -13 9 -21 18 -18 22 4 3
75 31 158 62 118 44 155 54 169 46 12 -8 14 -15 7 -29z m-1153 24 c11 -6 14
-15 30 -74 10 -38 -12 -7 -26 35 -6 20 -17 37 -25 37 -21 0 -117 -68 -145
-102 -14 -17 -33 -45 -43 -62 l-18 -31 4 48 c8 86 86 157 172 157 22 0 45 -4
51 -8z m76 -37 c2 -25 0 -45 -4 -45 -5 0 -8 10 -8 23 0 12 -3 32 -6 45 -4 12
-2 22 4 22 5 0 12 -20 14 -45z m28 3 c0 -48 -12 -44 -17 7 -2 20 1 35 7 35 5
0 10 -19 10 -42z m30 15 c0 -16 -5 -35 -10 -43 -7 -11 -10 -4 -10 28 0 23 5
42 10 42 6 0 10 -12 10 -27z m25 -15 c-7 -44 -12 -55 -19 -47 -8 8 7 89 16 89
6 0 7 -17 3 -42z m24 -12 c-14 -49 -23 -40 -14 14 4 24 11 38 16 33 5 -5 4
-25 -2 -47z m29 3 c-6 -16 -8 -32 -5 -35 3 -3 10 11 17 30 6 20 16 34 21 31 5
-4 2 -19 -7 -36 -8 -17 -13 -34 -10 -37 4 -3 12 9 18 26 7 18 18 32 25 32 8 0
5 -12 -9 -36 -15 -25 -25 -33 -37 -28 -9 3 -22 7 -29 7 -7 0 -10 7 -8 16 3 9
8 28 12 43 3 16 10 26 14 23 5 -3 4 -19 -2 -36z m180 4 c49 -39 74 -91 70
-145 l-3 -43 -23 45 c-29 56 -83 113 -142 152 l-45 30 53 -5 c39 -3 62 -12 90
-34z m-383 -61 c-6 -6 -7 -6 -27 39 -9 21 -14 40 -10 44 4 3 15 -13 25 -36 9
-23 15 -44 12 -47z m-33 28 c21 -50 8 -53 -16 -4 -9 20 -19 34 -23 31 -3 -3 4
-21 16 -40 20 -32 20 -35 4 -41 -13 -5 -25 2 -45 26 -14 18 -24 35 -21 38 2 3
18 -11 34 -30 33 -41 39 -32 8 12 -18 25 -19 32 -8 39 24 15 34 10 51 -31z
m328 24 c0 -3 -11 -21 -25 -42 -23 -33 -23 -37 -8 -54 19 -21 35 -24 27 -4 -6
16 41 74 52 64 4 -4 -5 -17 -19 -29 -15 -11 -27 -25 -27 -32 0 -6 13 2 30 18
16 16 33 25 37 21 4 -4 -6 -18 -22 -31 -17 -13 -26 -24 -21 -25 6 0 20 9 32
21 12 12 24 16 28 11 3 -6 -9 -19 -26 -30 -23 -15 -35 -18 -40 -9 -4 6 -10 8
-13 5 -4 -4 4 -22 18 -40 48 -62 57 -179 21 -250 -17 -32 -17 -38 -4 -38 18 0
72 -38 62 -44 -5 -3 -24 6 -42 19 l-33 25 -44 -41 c-57 -52 -101 -70 -172 -70
-98 -1 -179 46 -225 131 -96 176 23 380 221 380 35 0 80 -7 100 -15 20 -8 37
-14 37 -13 1 2 11 20 21 41 17 32 35 49 35 31z m-1252 -30 c2 -11 -4 -26 -12
-33 -31 -26 -71 14 -45 45 17 21 53 14 57 -12z m1262 -14 c-21 -30 -40 -46
-40 -35 0 13 41 65 51 65 6 0 1 -13 -11 -30z m-1096 -18 l139 -39 -32 -22 -32
-23 -122 22 c-67 12 -126 25 -130 29 -4 4 -1 14 8 21 8 7 15 21 15 31 0 11 3
19 8 19 4 0 70 -18 146 -38z m1955 24 c9 -10 9 -16 1 -21 -6 -4 -10 -16 -8
-28 3 -18 -5 -22 -67 -33 -156 -28 -171 -28 -201 -5 -15 11 -25 21 -23 22 2 0
65 18 139 38 74 21 138 39 141 40 4 0 12 -5 18 -13z m-1265 -27 c25 -30 25
-30 6 -51 l-19 -20 -36 22 c-31 19 -34 24 -23 39 7 9 14 18 15 20 2 3 18 -9
35 -25 l32 -29 -27 38 c-33 44 -20 50 17 6z m1331 -14 c0 -35 -31 -47 -51 -20
-18 25 0 57 29 53 17 -2 22 -10 22 -33z m-320 -82 c50 -44 102 -96 117 -115
l28 -36 -53 -48 c-28 -26 -86 -73 -129 -105 l-76 -59 -15 44 -15 44 69 57 c38
32 69 63 69 69 0 6 -33 45 -74 85 l-74 74 16 43 c19 52 16 53 137 -53z m-1490
42 l17 -46 -47 -41 c-25 -22 -56 -49 -68 -58 l-21 -18 67 -69 67 -70 -16 -46
-16 -47 -46 39 c-26 22 -82 75 -125 119 l-79 79 66 58 c51 45 176 144 182 145
1 0 9 -20 19 -45z m-411 29 c9 -3 16 -17 16 -30 0 -28 -31 -49 -48 -32 -16 16
-15 55 1 61 6 3 13 6 14 6 1 1 8 -2 17 -5z m604 -89 c-27 -52 -29 -156 -4
-204 15 -28 16 -38 5 -63 l-13 -31 -27 31 c-78 87 -73 247 10 335 l26 28 11
-28 c10 -23 9 -34 -8 -68z m234 54 c16 -12 27 -23 24 -26 -5 -5 -76 35 -76 43
0 10 24 2 52 -17z m558 17 c0 -7 -66 -46 -76 -46 -14 1 49 50 64 50 6 0 12 -2
12 -4z m428 -139 l63 -64 -48 -43 c-26 -23 -75 -62 -108 -87 -54 -41 -60 -44
-63 -25 -2 11 4 41 12 67 22 63 20 134 -5 200 -11 31 -18 64 -14 75 6 19 10
18 53 -19 26 -22 75 -68 110 -104z m-1570 93 c7 0 -3 -13 -21 -30 l-35 -30
-87 9 c-50 5 -91 14 -95 21 -4 7 -1 25 8 40 l16 27 100 -18 c56 -10 107 -19
114 -19z m1419 -79 c25 -87 5 -185 -52 -245 l-27 -30 -14 26 c-12 23 -11 32 8
75 27 61 29 154 4 202 -15 28 -16 38 -5 64 l13 30 28 -34 c16 -19 36 -58 45
-88z m502 93 c-6 -8 -9 -24 -7 -37 3 -13 0 -24 -6 -24 -6 0 -52 -3 -101 -7
-88 -7 -91 -7 -114 18 -14 14 -23 28 -20 29 9 8 235 43 247 39 9 -3 10 -8 1
-18z m-1649 4 c0 -7 -7 -31 -15 -53 -20 -56 -18 -136 3 -193 13 -33 16 -56 10
-71 l-8 -23 -27 22 c-56 43 -174 163 -170 174 5 16 179 156 194 156 7 0 13 -6
13 -12z m327 -34 c-8 -8 -77 24 -77 36 0 6 18 1 41 -10 23 -12 39 -24 36 -26z
m553 36 c0 -8 -51 -40 -65 -40 -16 0 -1 19 28 33 40 19 37 19 37 7z m835 -21
c14 -42 -45 -66 -61 -24 -10 25 4 45 30 45 16 0 27 -7 31 -21z m-1568 -94 c-7
-31 -7 -56 0 -80 10 -33 9 -36 -19 -56 -16 -12 -30 -20 -32 -18 -29 45 -34
148 -10 209 l17 41 27 -26 c25 -24 26 -29 17 -70z m136 79 c41 -21 38 -19 32
-36 -5 -13 -13 -14 -46 -6 -21 6 -39 15 -39 20 0 6 7 7 16 4 9 -3 28 -8 42
-11 20 -3 17 -1 -10 11 -21 9 -38 21 -38 25 0 12 6 11 43 -7z m607 7 c0 -10
-61 -34 -68 -27 -4 5 47 35 61 36 4 0 7 -4 7 -9z m-1411 -30 c13 -24 -8 -55
-35 -49 -20 3 -30 29 -20 54 8 20 43 17 55 -5z m1421 1 c0 -5 -16 -13 -35 -19
-41 -13 -48 1 -7 15 35 13 42 14 42 4z m155 -22 c19 -38 19 -140 0 -187 l-15
-36 -29 27 c-26 25 -27 29 -18 71 7 31 7 56 0 79 -10 31 -8 36 16 54 14 12 27
21 28 21 1 1 9 -12 18 -29z m-1441 -8 l38 -7 -21 -19 c-12 -11 -21 -25 -21
-33 0 -9 -16 -13 -58 -13 -48 0 -59 3 -71 22 -10 16 -10 23 -2 26 6 2 11 10
11 18 0 15 55 18 124 6z m681 -14 c7 -7 2 -9 -15 -4 -14 3 -33 6 -42 6 -10 0
-18 5 -18 11 0 13 60 2 75 -13z m615 12 c0 -5 -8 -10 -17 -10 -10 0 -29 -3
-43 -6 -17 -5 -22 -3 -15 4 18 18 75 28 75 12z m740 -10 c-8 -14 -8 -26 0 -40
10 -19 8 -20 -58 -20 -65 0 -70 2 -101 34 l-34 35 54 4 c143 9 151 9 139 -13z
m64 4 c20 -19 20 -29 0 -48 -12 -12 -20 -13 -35 -6 -21 12 -25 40 -7 58 16 16
23 15 42 -4z m-734 -73 c0 -65 -5 -74 -31 -60 -26 14 -27 103 -2 118 27 15 33
4 33 -58z m-695 49 c15 -6 8 -9 -28 -9 -30 -1 -46 3 -42 9 7 12 42 12 70 0z
m635 0 c0 -5 -19 -10 -42 -10 -32 0 -39 3 -28 10 20 13 70 13 70 0z m-1445
-39 c0 -34 -30 -51 -51 -29 -25 24 -10 60 24 56 21 -2 27 -8 27 -27z m825 9
c0 -5 -20 -10 -45 -10 -25 0 -45 5 -45 10 0 6 20 10 45 10 25 0 45 -4 45 -10z
m620 0 c0 -5 -18 -10 -40 -10 -22 0 -40 5 -40 10 0 6 18 10 40 10 22 0 40 -4
40 -10z m-1261 -53 l32 -34 -93 -7 c-88 -6 -94 -5 -109 16 -13 17 -14 26 -6
40 10 14 25 18 77 18 62 0 68 -2 99 -33z m616 23 c-44 -11 -65 -11 -65 0 0 6
21 9 48 9 42 -1 44 -2 17 -9z m645 0 c0 -12 -24 -12 -60 0 -21 7 -19 8 18 9
23 1 42 -3 42 -9z m732 -6 c-11 -19 -4 -54 10 -54 5 0 5 7 -1 18 -12 23 4 52
29 52 26 0 43 -33 27 -52 -18 -24 -62 -30 -157 -22 l-86 6 31 33 c27 30 36 33
93 34 56 1 62 -1 54 -15z m-1357 -14 c-3 -5 -15 -10 -25 -10 -10 0 -30 -4 -44
-10 -21 -8 -24 -13 -18 -32 5 -13 6 -36 2 -53 -14 -69 35 -156 107 -190 25
-12 58 -18 96 -17 43 1 57 -2 54 -11 -8 -24 -67 -49 -116 -49 -156 0 -267 192
-175 302 14 16 21 30 16 30 -6 0 -21 -15 -34 -32 -36 -51 -33 -139 7 -204 70
-112 207 -145 301 -72 43 34 163 24 164 -13 0 -10 -71 -16 -105 -9 -22 5 -29
11 -27 26 2 18 2 18 -13 -1 -55 -73 -97 -95 -177 -95 -122 0 -238 119 -238
242 0 57 27 106 81 146 24 18 49 36 55 41 21 17 99 26 89 11z m624 -6 c10 -10
-8 -13 -42 -7 -20 3 -37 10 -37 15 0 9 69 2 79 -8z m-649 -30 c-42 -12 -61
-11 -47 2 9 10 71 21 81 16 5 -3 -10 -11 -34 -18z m-791 2 c22 -26 -10 -63
-44 -50 -15 6 -21 45 -8 57 11 12 40 8 52 -7z m1421 4 c25 -15 7 -18 -35 -5
-38 12 -39 13 -10 14 17 0 37 -3 45 -9z m80 -37 c52 -44 70 -85 70 -155 0
-123 -119 -238 -245 -238 -53 0 -89 16 -126 57 -37 39 -60 85 -41 81 4 0 15 2
24 6 9 4 25 3 35 -2 23 -12 76 -6 119 14 71 34 121 130 103 197 -11 39 -2 62
18 45 71 -58 56 -202 -29 -273 -83 -70 -167 -74 -237 -11 -16 14 -22 16 -19 6
2 -8 19 -25 38 -37 74 -51 202 -12 266 79 56 82 54 174 -5 237 -40 42 -24 39
29 -6z m-671 22 c-3 -2 -22 -12 -43 -20 -28 -12 -37 -13 -34 -3 3 7 15 15 29
19 29 9 54 11 48 4z m583 -14 c4 -3 5 -16 2 -28 -6 -21 -7 -22 -36 -7 -16 9
-32 13 -36 10 -3 -3 9 -11 26 -17 27 -9 45 -29 27 -29 -9 0 -65 30 -65 34 0
24 14 34 37 25 38 -14 52 -10 16 6 -18 8 -33 17 -33 20 0 7 52 -5 62 -14z
m-1162 -16 c13 -14 22 -25 19 -26 -2 -1 -56 -11 -119 -23 l-115 -22 -8 20 c-4
11 -13 24 -20 28 -22 14 12 33 71 39 122 13 147 11 172 -16z m1883 15 c23 0
27 -4 27 -28 0 -15 5 -33 12 -40 17 -17 -26 -16 -137 4 -124 21 -121 20 -88
49 26 24 33 25 93 21 36 -3 77 -6 93 -6z m-1293 -5 c0 -2 -18 -14 -40 -25 -22
-11 -40 -16 -40 -10 0 6 15 17 33 25 34 15 47 18 47 10z m1395 -16 c14 -42
-45 -66 -61 -24 -10 25 4 45 30 45 16 0 27 -7 31 -21z m-1389 -76 c-15 -13
-32 -23 -39 -23 -7 1 4 14 23 30 39 34 33 40 -10 10 -15 -11 -30 -17 -34 -13
-3 3 11 17 32 29 40 25 33 33 -8 9 -29 -17 -40 -18 -40 -6 0 5 17 16 38 24 36
15 37 15 51 -11 13 -24 12 -27 -13 -49z m-841 22 c0 -25 -4 -30 -25 -30 -16 0
-26 6 -28 18 -6 30 6 49 30 45 18 -2 23 -9 23 -33z m469 7 c28 -24 31 -32 24
-58 -17 -62 -38 -203 -44 -296 l-7 -97 28 -7 c51 -13 293 5 380 28 38 10 41 9
67 -23 15 -18 25 -35 23 -39 -8 -13 -150 -49 -245 -63 -52 -7 -158 -15 -234
-16 l-139 -2 7 113 c10 162 31 290 68 408 30 95 26 92 72 52z m334 -71 c20
-24 56 -57 81 -72 41 -27 43 -29 19 -29 -85 0 -168 83 -168 167 l1 38 16 -30
c8 -16 32 -50 51 -74z m617 22 c-7 -38 -55 -97 -96 -119 -15 -7 -47 -14 -71
-14 l-43 0 50 29 c58 33 118 95 143 148 15 32 17 34 20 13 2 -12 1 -38 -3 -57z
m-1111 43 l29 -24 -54 -15 c-30 -8 -90 -25 -134 -37 -44 -12 -88 -24 -97 -26
-13 -4 -18 0 -18 17 0 12 -8 28 -17 35 -17 12 -16 13 7 22 14 5 72 17 130 27
58 9 107 19 109 21 8 7 16 4 45 -20z m266 -70 c0 -120 107 -234 238 -252 39
-5 58 -14 82 -39 l32 -33 -74 -17 c-89 -21 -285 -37 -351 -28 l-48 6 6 76 c8
116 24 218 47 304 l20 78 24 -22 c19 -18 24 -33 24 -73z m1565 34 c-2 -8 0
-22 5 -30 5 -9 5 -19 -1 -26 -9 -12 -49 -3 -249 53 l-55 15 28 22 28 22 124
-20 c101 -17 124 -24 120 -36z m-377 -27 c38 -143 63 -404 48 -486 -7 -36 -8
-37 -54 -37 -89 0 -297 31 -411 60 -63 17 -116 32 -119 34 -8 9 54 76 66 71
39 -15 255 -45 322 -45 l78 0 6 53 c7 56 -8 276 -24 342 -8 37 -7 42 18 62 15
12 32 22 38 23 7 0 21 -35 32 -77z m-421 42 c36 -32 17 -32 -22 0 -16 13 -25
24 -18 25 7 0 25 -11 40 -25z m323 -76 c14 -65 20 -135 20 -226 l0 -133 -53 0
c-108 0 -345 42 -399 71 -12 7 -27 5 -47 -6 -81 -41 -218 -24 -282 37 l-34 31
30 13 c26 10 35 9 70 -9 52 -27 154 -29 206 -4 31 15 39 16 62 4 27 -14 27
-14 7 -32 -11 -10 -18 -20 -15 -23 3 -3 14 3 25 13 13 12 38 19 69 20 125 5
249 125 254 247 2 32 9 48 32 69 16 15 31 26 33 24 2 -1 12 -45 22 -96z m-750
43 c0 -7 5 -10 10 -7 6 3 10 3 10 0 0 -13 -34 -65 -42 -65 -13 0 -9 17 7 30 8
7 15 18 15 24 -1 6 -11 -1 -23 -17 l-23 -27 -28 28 -27 29 31 26 c29 25 32 25
50 9 11 -9 20 -22 20 -30z m1284 42 c20 -8 21 -48 1 -64 -12 -10 -18 -10 -30
0 -18 15 -20 56 -2 63 6 3 13 6 14 6 1 1 8 -2 17 -5z m-876 -27 l22 -23 -29
-28 -29 -27 -21 30 c-18 25 -20 33 -9 45 11 12 17 11 43 -12 30 -27 30 -27 7
-1 -37 42 -23 57 16 16z m-950 -10 c6 -7 8 -18 3 -25 -6 -11 -291 -122 -312
-122 -5 0 -6 7 -2 16 3 8 -4 25 -17 40 -22 22 -22 24 -4 24 10 1 80 18 154 39
154 44 164 46 178 28z m1607 -26 c108 -30 139 -42 137 -54 -1 -9 2 -19 8 -22
8 -5 4 -13 -10 -22 -20 -14 -34 -11 -182 43 -159 57 -160 58 -138 76 12 10 27
18 34 18 6 0 74 -18 151 -39z m-726 -11 c12 -17 19 -35 15 -42 -4 -7 -14 2
-25 23 -30 56 -25 65 10 19z m-314 -30 c-9 -18 -19 -29 -23 -26 -3 4 3 23 13
42 11 20 21 31 23 26 2 -6 -4 -25 -13 -42z m302 -22 c-2 -7 -11 1 -20 19 -24
45 -21 64 4 26 11 -18 19 -38 16 -45z m-272 26 c-8 -20 -15 -38 -15 -40 0 -2
-4 -4 -9 -4 -5 0 -2 18 6 40 9 22 20 40 25 40 4 0 1 -16 -7 -36z m238 -6 c18
-42 7 -53 -11 -13 -11 24 -17 63 -8 54 2 -2 11 -21 19 -41z m-214 -11 c-5 -20
-14 -37 -19 -37 -13 0 -13 4 5 47 19 45 28 39 14 -10z m187 8 c17 -40 17 -45
5 -45 -9 0 -12 8 -27 63 -9 30 7 18 22 -18z m916 -100 c2 -11 -6 -28 -18 -37
-21 -17 -26 -16 -150 43 -71 33 -130 61 -130 62 -1 1 -5 16 -8 33 l-7 31 155
-56 c124 -45 156 -60 158 -76z m-1077 81 c-4 -20 -11 -36 -16 -36 -8 0 -5 30
7 69 9 27 15 2 9 -33z m55 -3 c0 -25 -5 -43 -11 -43 -8 0 -10 12 -6 35 3 19 1
37 -4 40 -5 4 -9 -13 -9 -36 0 -28 -3 -40 -10 -33 -5 5 -7 26 -4 46 5 28 11
36 25 35 15 -1 19 -9 19 -44z m53 10 c4 -21 2 -42 -3 -47 -7 -7 -10 1 -10 21
0 17 -3 38 -6 47 -3 9 -2 16 4 16 5 0 12 -17 15 -37z m37 -30 c0 -7 -4 -13
-10 -13 -5 0 -10 4 -10 9 0 5 -2 24 -5 42 l-5 34 14 -30 c9 -16 15 -36 16 -42z
m1025 32 c0 -25 -4 -30 -25 -30 -16 0 -26 6 -28 18 -6 30 6 49 30 45 18 -2 23
-9 23 -33z m-1829 3 c-3 -13 -6 -27 -6 -31 0 -8 -245 -127 -262 -127 -6 0 -7
7 -4 16 4 9 0 27 -8 39 -14 21 -12 22 122 72 162 60 166 61 158 31z m744 -30
c0 -16 -4 -28 -10 -28 -5 0 -10 19 -10 43 0 31 3 38 10 27 5 -8 10 -27 10 -42z
m822 -69 c153 -70 160 -77 113 -112 -24 -17 -26 -17 -115 33 -49 28 -96 58
-105 66 -13 14 -22 64 -10 64 2 0 55 -23 117 -51z m238 36 c20 -24 3 -57 -28
-53 -30 3 -41 30 -22 53 16 19 34 19 50 0z m-1824 -37 c-6 -29 -18 -39 -98
-85 -112 -65 -123 -66 -123 -13 -1 22 2 40 6 40 4 0 54 22 110 50 57 27 105
47 107 45 3 -2 2 -19 -2 -37z m-278 3 c20 -12 11 -55 -12 -59 -27 -6 -48 25
-35 49 10 20 26 24 47 10z m1056 -24 c31 10 36 8 55 -18 12 -15 21 -30 21 -33
0 -3 -25 -13 -55 -21 -57 -17 -127 -11 -177 16 -20 11 -20 11 6 38 25 26 30
27 71 18 31 -7 56 -7 79 0z m824 -81 c45 -26 82 -51 81 -54 0 -4 -13 -17 -29
-30 l-30 -23 -65 47 c-36 25 -68 45 -70 42 -3 -2 31 -29 74 -60 76 -54 79 -55
85 -33 11 42 66 37 66 -7 0 -22 -31 -40 -50 -28 -20 12 -53 3 -73 -21 l-18
-22 -34 33 c-19 19 -37 31 -41 28 -3 -3 12 -20 34 -38 l40 -31 -24 -24 c-13
-13 -24 -29 -24 -36 0 -7 -8 -5 -20 6 -17 15 -20 30 -19 99 0 45 -3 114 -6
155 l-7 75 24 -16 c12 -8 60 -36 106 -62z m191 55 c13 -24 -8 -55 -35 -49 -23
4 -30 33 -14 53 17 20 37 19 49 -4z m-1806 -46 c-4 -37 -11 -45 -64 -82 -61
-41 -98 -47 -97 -15 1 10 -1 22 -3 29 -3 10 162 118 167 110 0 -1 -1 -20 -3
-42z m-223 10 c19 -23 8 -49 -25 -56 -17 -4 -22 -7 -12 -8 10 0 15 -6 12 -12
-12 -18 4 -57 25 -64 12 -4 20 -15 20 -29 0 -27 18 -46 42 -46 11 0 15 -5 11
-15 -6 -18 23 -55 44 -55 7 0 13 -8 13 -17 0 -20 28 -53 46 -53 7 0 16 -9 19
-20 7 -22 40 -44 54 -36 5 3 12 -5 15 -19 4 -16 16 -27 34 -32 15 -3 35 -17
46 -31 13 -17 26 -22 42 -19 13 2 24 0 24 -6 0 -6 7 -18 15 -28 15 -15 13 -17
-30 -24 -81 -12 -151 -7 -231 15 -77 22 -163 24 -208 5 -16 -7 -17 -5 -8 11
24 47 24 102 -3 200 -28 104 -31 178 -9 252 7 24 10 50 7 58 -6 17 14 44 32
44 7 0 18 -7 25 -15z m1986 -36 c4 -8 9 -7 16 2 6 10 7 6 2 -11 -10 -37 -25
-51 -48 -48 -21 3 -32 28 -22 54 6 17 42 19 52 3z m45 -159 c0 -48 -7 -100
-20 -145 -24 -82 -27 -142 -7 -189 l14 -34 -34 14 c-48 20 -121 17 -190 -7
-89 -31 -270 -25 -282 9 -2 7 6 12 21 12 26 0 57 23 57 41 0 6 5 7 10 4 15 -9
60 22 60 40 0 9 9 15 23 15 27 0 47 17 47 42 0 11 5 15 14 12 19 -7 59 33 52
52 -4 10 2 14 20 14 19 0 29 7 37 29 6 16 21 34 34 40 15 7 23 19 23 34 0 16
9 28 25 35 23 11 30 27 26 60 -1 6 5 12 14 12 8 0 21 12 28 27 l12 26 7 -34
c5 -19 9 -68 9 -109z m-1983 101 c6 -40 -39 -56 -58 -20 -9 15 -8 24 1 35 18
22 53 13 57 -15z m165 -18 c-7 -62 -38 -97 -76 -88 -21 6 -27 13 -27 34 0 20
12 34 53 63 28 20 53 37 53 38 1 0 -1 -21 -3 -47z m662 12 c53 -19 134 -19
190 1 31 10 55 12 72 7 l26 -9 -51 -59 c-27 -33 -70 -80 -95 -104 l-45 -43
-39 42 c-21 24 -59 70 -85 104 -41 52 -45 62 -30 68 9 4 17 7 17 7 0 0 18 -6
40 -14z m-785 -50 c18 -22 8 -50 -19 -50 -32 0 -49 28 -32 49 17 20 35 20 51
1z m1807 -41 c8 -22 -10 -49 -32 -49 -22 0 -40 27 -32 49 8 21 56 21 64 0z
m-1691 -28 c-8 -44 1 -50 82 -47 l65 2 -33 -41 c-31 -39 -33 -40 -51 -24 -10
9 -25 14 -34 10 -12 -4 -14 0 -11 19 4 20 -1 26 -28 36 -37 13 -42 43 -11 65
27 20 28 18 21 -20z m702 -37 l62 -70 70 68 70 69 64 -20 64 -21 56 -154 c42
-117 53 -158 45 -173 -6 -12 -6 -25 1 -38 6 -11 7 -20 3 -19 -4 1 -16 -2 -27
-6 -25 -11 -52 7 -48 31 5 25 22 35 46 28 13 -4 16 -2 11 6 -4 7 -17 9 -31 6
-16 -4 -26 -2 -28 6 -32 104 -75 290 -70 304 3 11 -14 -3 -37 -31 -24 -27 -77
-83 -117 -123 -73 -72 -75 -73 -94 -55 -24 22 -135 155 -166 200 l-22 31 42
15 c24 9 43 16 44 16 1 1 29 -31 62 -70z m-763 16 c0 -35 -31 -47 -51 -20 -18
25 0 57 29 53 17 -2 22 -10 22 -33z m619 0 c15 -23 14 -32 -21 -162 -41 -157
-60 -185 -97 -149 l-21 21 53 145 c29 80 54 151 57 158 6 17 11 15 29 -13z
m-44 12 c0 -2 -16 -48 -36 -103 -20 -54 -43 -119 -51 -144 -24 -69 -35 -77
-67 -45 -27 27 -27 27 -10 64 10 20 37 77 60 128 42 90 44 92 97 102 4 0 7 0
7 -2z m596 -20 c1 -1 28 -55 58 -121 39 -83 54 -125 50 -142 -3 -13 -11 -21
-16 -18 -6 4 -20 7 -32 8 -17 1 -26 16 -47 76 -15 41 -39 106 -53 144 l-26 69
32 -7 c17 -3 33 -7 34 -9z m523 -6 c7 -13 6 -23 -3 -36 -17 -24 -50 -15 -54
14 -6 39 39 56 57 22z m-1218 -33 c-10 -24 -38 -84 -62 -135 -41 -84 -43 -92
-25 -95 31 -5 44 -34 23 -55 -25 -26 -52 -6 -53 39 -1 41 -9 57 -34 66 -17 6
-13 17 38 107 42 72 64 101 82 106 48 13 50 11 31 -33z m-73 24 c-1 -4 -28
-52 -58 -105 -52 -92 -56 -96 -69 -77 -7 11 -24 20 -38 20 -23 0 -22 3 30 77
33 46 64 80 78 84 35 10 61 10 57 1z m854 -4 c9 -7 37 -50 64 -96 42 -74 46
-85 34 -106 -9 -19 -17 -22 -37 -17 -19 5 -34 29 -73 114 -28 59 -50 110 -50
112 0 10 47 4 62 -7z m-1194 -41 c-5 -37 -67 -33 -68 5 0 4 7 14 16 22 21 22
56 3 52 -27z m242 37 c0 -3 -21 -34 -46 -70 -40 -56 -47 -62 -61 -49 -8 8 -23
15 -35 15 -25 0 -22 9 22 65 31 40 39 44 78 45 23 0 42 -3 42 -6z m770 -148
c22 -82 40 -152 40 -157 0 -6 -8 -5 -20 1 -14 7 -26 8 -39 0 -21 -11 -17 -26
-54 174 -14 77 -14 81 6 108 11 15 22 26 24 24 2 -2 21 -69 43 -150z m332 137
c60 -5 75 -10 94 -32 20 -23 21 -28 8 -42 -8 -8 -14 -23 -14 -31 0 -31 -38 -6
-75 49 -20 30 -39 52 -42 49 -3 -3 13 -30 35 -60 32 -42 38 -55 27 -60 -8 -3
-15 -14 -15 -24 0 -15 -6 -18 -22 -15 -16 3 -37 30 -70 88 -27 45 -48 86 -48
90 0 4 12 4 26 1 14 -4 58 -9 96 -13z m183 7 c3 -5 -3 -18 -13 -28 -11 -11
-22 -26 -25 -33 -4 -10 -13 -6 -31 16 l-26 30 35 3 c19 2 35 7 35 13 0 12 17
12 25 -1z m-906 -85 c0 -16 -8 -70 -18 -119 -14 -73 -21 -90 -40 -101 -20 -10
-26 -10 -40 4 -15 15 -14 26 16 141 19 69 36 132 39 140 8 24 44 -29 43 -65z
m950 41 c10 -12 8 -19 -8 -35 -22 -22 -46 -19 -55 6 -14 34 39 58 63 29z
m-1509 -45 c0 -37 -24 -47 -50 -21 -26 26 -16 50 21 50 25 0 29 -4 29 -29z
m874 -91 c10 -58 20 -116 23 -128 5 -22 4 -23 -14 -11 -11 7 -28 9 -37 6 -20
-8 -31 -5 -32 8 0 6 -4 52 -8 103 -7 89 -7 95 15 118 13 13 26 21 30 17 3 -5
14 -55 23 -113z m564 103 c0 -5 2 -16 7 -26 10 -23 -12 -49 -39 -45 -31 4 -28
49 4 65 30 15 30 15 28 6z m-813 -151 l-7 -90 -32 -5 c-17 -3 -35 -1 -40 4 -6
5 -2 54 9 124 l18 117 29 -30 30 -29 -7 -91z m-557 89 c5 -30 -10 -45 -36 -37
-26 9 -36 34 -21 53 18 21 53 12 57 -16z m730 -116 l8 -71 -27 4 c-15 2 -30
-1 -33 -7 -17 -27 -26 -5 -26 66 0 73 2 79 33 111 l32 33 3 -33 c2 -18 6 -65
10 -103z m582 92 c0 -24 -18 -39 -41 -35 -29 4 -38 37 -14 54 20 15 55 2 55
-19z m-679 -41 c5 3 9 -22 9 -55 0 -58 -1 -61 -24 -61 -14 0 -28 -5 -32 -11
-17 -28 -25 14 -18 94 l7 85 24 -29 c14 -16 29 -27 34 -23z m-562 30 c13 -16
-1 -56 -19 -56 -33 0 -55 42 -33 63 11 12 40 8 52 -7z m1160 -25 c13 -24 -8
-55 -35 -49 -20 3 -30 29 -20 54 8 20 43 17 55 -5z m-1089 -16 c18 -22 8 -50
-19 -50 -32 0 -49 28 -32 49 17 20 35 20 51 1z m1011 -21 c17 -21 0 -49 -32
-49 -27 0 -37 28 -19 50 16 19 34 19 51 -1z m-71 -54 c0 -25 -30 -41 -53 -29
-39 22 -4 79 35 58 10 -5 18 -18 18 -29z m-780 5 c18 -22 8 -50 -19 -50 -32 0
-49 28 -32 49 17 20 35 20 51 1z m88 -44 c4 -27 -12 -41 -38 -34 -42 11 -28
67 14 61 13 -2 22 -12 24 -27z m90 -24 c-2 -17 -10 -22 -33 -22 -35 0 -47 31
-20 51 25 18 57 0 53 -29z m430 16 c4 -29 -28 -47 -53 -29 -12 9 -15 19 -10
35 9 30 59 26 63 -6z m-87 1 c17 -21 0 -49 -32 -49 -24 0 -36 23 -25 51 7 19
40 18 57 -2z m-263 -6 c16 -16 15 -23 -4 -43 -15 -14 -18 -14 -40 0 -13 9 -24
11 -24 5 0 -6 11 -15 25 -22 19 -8 28 -8 40 2 12 10 19 10 27 2 15 -15 51 -15
66 0 9 9 15 9 24 0 14 -14 54 -16 62 -3 3 5 24 7 46 4 31 -4 41 -2 46 11 5 12
10 13 26 5 21 -11 68 2 68 18 0 5 18 8 39 8 l39 0 -16 -29 c-34 -58 -112 -133
-174 -166 -74 -40 -141 -99 -158 -141 l-13 -31 -14 34 c-20 48 -49 75 -128
120 -79 46 -142 102 -187 167 -24 34 -28 45 -17 52 9 5 21 1 34 -11 24 -22 50
-26 61 -8 5 8 10 7 18 -4 14 -19 48 -30 61 -20 6 4 18 19 28 35 18 29 45 35
65 15z m80 3 c8 -4 12 -19 10 -32 -4 -29 -45 -34 -61 -7 -19 30 19 60 51 39z
m96 -13 c8 -14 7 -21 -6 -34 -30 -30 -75 9 -48 42 16 18 39 15 54 -8z"/>
<path d="M1420 1727 c-19 -6 -55 -32 -80 -57 -77 -77 -91 -171 -40 -278 28
-59 33 -65 96 -94 56 -26 73 -30 119 -25 174 18 263 181 186 343 -26 56 -34
64 -92 93 -67 33 -123 39 -189 18z m145 -9 c30 -8 35 -13 20 -16 -11 -2 -29
-12 -40 -22 -24 -21 -57 -20 -83 3 -10 9 -27 17 -37 17 -12 0 -15 3 -9 9 22
21 92 26 149 9z m-115 -43 c10 -12 10 -18 0 -30 -8 -9 -10 -29 -7 -49 5 -33 5
-34 -23 -26 -20 6 -35 4 -50 -7 -27 -19 -50 -2 -50 39 0 62 95 115 130 73z
m211 -14 c33 -33 38 -74 13 -102 -15 -17 -17 -17 -43 2 -22 16 -32 18 -53 10
-25 -9 -26 -9 -15 19 9 24 8 32 -8 50 -19 22 -19 22 0 36 31 23 73 17 106 -15z
m-113 -44 c3 -27 -31 -97 -48 -97 -5 0 -14 9 -20 20 -6 11 -16 18 -22 14 -6
-4 -2 -14 11 -27 l20 -21 -31 -23 c-43 -31 -85 -31 -100 2 -8 19 -8 31 1 51
10 23 16 25 54 22 l42 -3 -3 34 c-3 45 13 63 57 59 31 -3 36 -7 39 -31z m-223
-67 c23 -26 21 -63 -5 -98 -25 -33 -25 -33 -31 -10 -11 38 -10 90 3 133 11 35
12 37 16 15 2 -14 10 -32 17 -40z m394 -40 c0 -14 -4 -43 -10 -65 l-11 -39
-13 31 c-7 17 -17 33 -23 37 -14 9 -2 54 22 81 l21 24 7 -22 c3 -12 6 -33 7
-47z m-79 25 c26 -70 -41 -101 -101 -47 l-32 28 34 22 c47 30 87 29 99 -3z
m-111 -71 c37 -62 21 -98 -41 -92 -29 3 -33 7 -36 36 -3 31 28 92 48 92 4 0
17 -16 29 -36z m-115 -11 c34 5 34 5 23 -23 -10 -25 -8 -33 11 -53 22 -23 22
-24 4 -40 -30 -27 -79 -21 -113 12 -34 35 -38 72 -8 102 16 16 23 18 35 8 8
-7 28 -9 48 -6z m190 -3 c14 0 28 5 31 11 12 18 45 -22 45 -53 0 -40 -15 -65
-51 -84 -25 -13 -36 -13 -59 -4 -34 14 -47 40 -25 52 17 10 20 50 4 79 -9 19
-9 19 10 10 11 -6 31 -11 45 -11z m-60 -126 c15 -14 26 -27 23 -30 -13 -13
-86 -15 -127 -4 l-45 13 33 9 c18 5 35 15 39 23 8 23 45 17 77 -11z"/>
<path d="M1240 1714 c8 -8 23 -20 34 -26 19 -10 18 -8 -3 16 -26 27 -53 37
-31 10z"/>
<path d="M1265 1290 c-27 -30 -12 -34 15 -5 13 14 19 25 13 25 -5 0 -18 -9
-28 -20z"/>
<path d="M1298 1283 c-29 -34 -30 -48 -2 -21 15 15 26 30 23 33 -3 3 -13 -3
-21 -12z"/>
<path d="M1680 1282 c0 -5 10 -17 21 -28 22 -19 22 -19 10 3 -12 24 -31 39
-31 25z"/>
</g>
</svg>
