<?xml version="1.0" standalone="no"?>
<!DOCTYPE svg PUBLIC "-//W3C//DTD SVG 20010904//EN"
 "http://www.w3.org/TR/2001/REC-SVG-20010904/DTD/svg10.dtd">
<svg version="1.0" xmlns="http://www.w3.org/2000/svg"
 width="300.000000pt" height="300.000000pt" viewBox="0 0 300.000000 300.000000"
 preserveAspectRatio="xMidYMid meet">
<metadata>
Created by potrace 1.10, written by Peter Selinger 2001-2011
</metadata>
<g transform="translate(0.000000,300.000000) scale(0.050000,-0.050000)"
fill="#f0a6b7" stroke="none">
<path d="M2159 5959 c-31 -59 -6 -145 61 -209 55 -53 60 -54 74 -18 59 151
-64 358 -135 227z"/>
<path d="M2827 5923 c-200 -89 -247 -130 -247 -211 1 -115 21 -157 68 -141
305 99 458 102 643 15 117 -56 189 133 86 227 -35 32 -377 196 -386 185 0 -1
-75 -35 -164 -75z m295 -95 c98 -71 127 -128 66 -128 -18 0 -63 27 -101 60
-38 33 -77 60 -87 60 -10 0 -49 -27 -87 -60 -73 -64 -133 -78 -133 -31 0 34
172 171 215 171 16 0 74 -32 127 -72z"/>
<path d="M3720 5945 c-41 -52 -47 -205 -10 -242 18 -18 128 101 135 145 9 60
-24 152 -56 152 -14 0 -46 -25 -69 -55z"/>
<path d="M2437 5900 c-41 -25 -92 -227 -96 -380 l-1 -69 -53 79 c-142 216
-262 290 -356 220 -43 -34 -43 -35 39 -61 68 -22 150 -160 150 -253 0 -43 10
-56 40 -56 22 0 82 -19 133 -43 87 -42 93 -42 112 -8 11 20 49 69 85 109 60
68 62 76 38 132 -40 92 -34 216 12 275 22 28 40 57 40 63 0 19 -107 13 -143
-8z"/>
<path d="M3412 5903 c-6 -10 7 -34 28 -53 56 -50 68 -146 32 -250 -30 -87 -29
-91 16 -140 26 -27 63 -75 82 -106 25 -39 46 -52 68 -42 18 8 76 30 131 49 83
30 100 44 106 92 12 95 72 195 135 227 33 16 64 33 70 37 21 14 -70 63 -116
63 -56 0 -150 -92 -255 -248 l-69 -101 0 129 c0 147 -29 274 -75 325 -32 36
-135 48 -153 18z"/>
<path d="M1790 5630 c-11 -4 -80 -13 -154 -20 l-133 -13 -122 -167 c-141 -195
-151 -248 -59 -342 l62 -64 143 144 c148 149 229 189 445 223 l83 13 -20 79
c-30 118 -139 184 -245 147z m-24 -131 c117 -33 81 -69 -68 -69 l-128 0 -30
-95 c-30 -95 -100 -138 -100 -60 1 187 133 277 326 224z"/>
<path d="M4048 5621 c-39 -16 -68 -68 -97 -173 -11 -38 -1 -44 73 -56 238 -37
460 -175 553 -342 22 -38 26 -37 93 35 105 112 101 131 -107 417 l-66 92 -188
23 c-213 26 -205 26 -261 4z m449 -186 c66 -137 74 -195 30 -195 -27 0 -48 28
-74 101 l-36 102 -123 -7 c-137 -7 -183 41 -64 66 171 37 224 24 267 -67z"/>
<path d="M2800 5534 c-189 -64 -360 -224 -360 -337 0 -45 -26 -48 -61 -6 -95
114 -364 152 -574 81 -264 -89 -469 -441 -386 -660 18 -48 17 -49 -31 -31
-219 83 -570 -122 -661 -386 -71 -206 -32 -479 82 -574 42 -35 39 -61 -6 -61
-158 0 -383 -329 -383 -560 0 -215 183 -500 351 -544 l86 -23 -68 -79 c-313
-366 125 -1068 584 -936 l64 18 -21 -60 c-151 -431 528 -870 920 -596 104 73
96 73 111 1 41 -208 403 -396 652 -341 231 51 425 203 453 355 l13 68 52 -51
c342 -327 1066 63 971 524 l-19 95 95 -19 c461 -95 851 629 524 971 l-51 52
68 13 c152 28 304 222 355 453 55 249 -133 611 -341 652 -72 15 -72 7 1 111
275 393 -164 1071 -596 920 l-60 -20 20 72 c125 452 -577 883 -938 575 l-79
-68 -23 86 c-67 253 -444 408 -744 305z m0 -94 c0 -22 -13 -40 -30 -40 -17 0
-30 18 -30 40 0 22 13 40 30 40 17 0 30 -18 30 -40z m348 -44 c92 -63 131
-119 132 -188 0 -51 15 -73 80 -115 43 -29 95 -78 113 -108 19 -30 37 -58 39
-62 3 -3 27 9 55 27 27 18 100 38 161 44 72 7 112 21 112 37 0 77 205 149 339
119 122 -27 225 -280 162 -398 -21 -39 -18 -59 17 -128 23 -45 42 -114 42
-153 0 -68 3 -71 74 -71 40 0 112 -19 159 -41 79 -39 88 -39 134 -9 107 70
370 -53 376 -175 9 -186 -23 -284 -106 -326 -50 -26 -57 -41 -57 -121 0 -49
-14 -117 -31 -151 -18 -33 -29 -63 -25 -65 3 -2 31 -20 61 -39 30 -18 79 -70
108 -114 34 -51 64 -77 82 -70 78 30 242 -122 276 -255 27 -107 -134 -314
-243 -314 -54 0 -76 -16 -136 -100 -40 -55 -79 -100 -87 -100 -52 -1 -65 -35
-36 -92 17 -32 31 -101 31 -152 0 -84 7 -98 57 -125 121 -62 154 -342 50 -426
-97 -78 -239 -111 -318 -73 -61 29 -71 28 -146 -11 -45 -22 -113 -41 -152 -41
-66 0 -71 -4 -71 -61 0 -34 -19 -106 -42 -160 -34 -79 -38 -105 -18 -128 54
-66 -3 -299 -92 -373 -81 -67 -354 -13 -401 80 -19 39 -42 49 -130 56 -59 5
-128 22 -154 39 -45 29 -100 -1 -102 -57 -1 -8 -41 -42 -91 -76 -76 -52 -90
-72 -90 -127 0 -96 -182 -253 -292 -253 -111 0 -308 204 -277 286 7 17 -20 48
-70 81 -44 29 -96 78 -114 108 -19 30 -37 58 -39 61 -2 4 -31 -7 -64 -24 -32
-17 -102 -34 -155 -39 -77 -6 -100 -17 -121 -58 -49 -94 -317 -142 -401 -73
-93 78 -148 279 -95 354 29 42 28 52 -12 135 -24 49 -45 121 -46 159 -2 67 -5
70 -74 70 -39 0 -107 18 -150 40 -72 37 -85 38 -140 11 -112 -53 -354 48 -382
160 -31 124 34 323 111 343 27 7 39 37 47 119 6 61 26 133 44 160 18 28 30 52
27 55 -4 2 -32 20 -62 39 -30 18 -79 70 -108 113 -43 66 -64 80 -118 80 -77 0
-168 80 -231 204 l-40 79 58 103 c70 124 141 181 223 178 48 -1 68 11 90 55
29 56 128 150 173 165 17 6 14 23 -10 60 -19 29 -40 101 -46 160 -9 92 -19
113 -67 140 -61 35 -99 134 -99 257 0 161 240 305 385 230 50 -26 64 -25 140
10 47 21 117 38 156 39 67 0 71 4 73 67 1 38 20 110 43 161 39 87 39 96 8 150
-60 104 46 334 171 369 105 31 280 -17 320 -87 27 -47 49 -58 145 -68 61 -7
133 -28 159 -46 35 -25 50 -27 56 -9 15 45 108 144 163 173 41 21 54 43 54 87
0 86 53 154 170 221 112 64 143 62 265 -22z m103 62 c21 -33 -26 -71 -53 -44
-23 23 -9 66 22 66 10 0 24 -10 31 -22z m809 -227 c0 -16 -10 -35 -22 -42 -28
-18 -67 21 -49 49 20 32 71 27 71 -7z m-600 -21 c0 -17 -18 -30 -40 -30 -22 0
-40 13 -40 30 0 17 18 30 40 30 22 0 40 -13 40 -30z m-1170 -90 c0 -43 -58
-37 -67 7 -5 27 3 35 30 30 20 -4 37 -21 37 -37z m1480 0 c0 -43 -58 -37 -67
7 -5 27 3 35 30 30 20 -4 37 -21 37 -37z m-2150 -109 c0 -41 -41 -61 -61 -30
-9 15 -12 34 -6 43 16 27 67 18 67 -13z m2820 -13 c0 -48 -47 -42 -56 9 -4 19
6 33 25 33 18 0 31 -17 31 -42z m-2880 -298 c0 -45 -50 -54 -66 -12 -13 33 2
52 39 52 15 0 27 -18 27 -40z m2940 11 c0 -41 -41 -61 -61 -30 -9 15 -12 34
-6 43 16 27 67 18 67 -13z m231 -249 c-19 -32 -71 -27 -71 6 0 34 43 54 67 31
10 -8 11 -25 4 -37z m-3391 8 c0 -17 -18 -30 -40 -30 -22 0 -40 13 -40 30 0
17 18 30 40 30 22 0 40 -13 40 -30z m-300 -53 c0 -22 -57 -46 -73 -30 -7 6 -7
25 0 42 12 31 73 22 73 -12z m3990 2 c0 -16 -16 -31 -35 -35 -34 -7 -49 36
-21 63 21 21 56 3 56 -28z m230 -387 c0 -34 -54 -58 -71 -31 -6 10 -6 28 1 39
18 30 70 24 70 -8z m-4350 -292 c0 -43 -58 -37 -67 7 -5 27 3 35 30 30 20 -4
37 -21 37 -37z m4241 18 c21 -33 -26 -71 -53 -44 -23 23 -9 66 22 66 10 0 24
-10 31 -22z m-4335 -331 c-9 -51 -56 -57 -56 -9 0 25 13 42 31 42 19 0 29 -14
25 -33z m4424 4 c0 -16 -10 -35 -22 -42 -28 -18 -67 21 -49 49 20 32 71 27 71
-7z m-4644 -206 c-4 -19 -20 -35 -36 -35 -16 0 -32 16 -36 35 -5 25 6 35 36
35 30 0 41 -10 36 -35z m4875 13 c15 -25 -29 -61 -55 -45 -9 5 -16 22 -16 38
0 34 52 39 71 7z m-4880 -440 c21 -33 -26 -71 -53 -44 -23 23 -9 66 22 66 10
0 24 -10 31 -22z m4879 -19 c0 -16 -16 -31 -35 -35 -34 -7 -49 36 -21 63 21
21 56 3 56 -28z m-4650 -199 c0 -22 -13 -40 -30 -40 -17 0 -30 18 -30 40 0 22
13 40 30 40 17 0 30 -18 30 -40z m4420 0 c0 -41 -48 -55 -70 -20 -17 27 6 60
41 60 16 0 29 -18 29 -40z m-4332 -296 c15 -26 -21 -70 -46 -55 -32 19 -27 71
7 71 16 0 33 -7 39 -16z m4243 -6 c21 -33 -26 -71 -53 -44 -23 23 -9 66 22 66
10 0 24 -10 31 -22z m-4341 -299 c0 -16 -16 -31 -35 -35 -34 -7 -49 36 -21 63
21 21 56 3 56 -28z m4446 -6 c4 -19 -6 -33 -23 -33 -38 0 -60 33 -42 61 18 29
58 13 65 -28z m-216 -383 c0 -17 -18 -30 -40 -30 -22 0 -40 13 -40 30 0 17 18
30 40 30 22 0 40 -13 40 -30z m-300 -62 c0 -15 -18 -28 -40 -28 -38 0 -54 39
-28 65 19 20 68 -7 68 -37z m-3405 7 c-13 -38 -75 -43 -75 -6 0 18 17 31 42
31 24 0 38 -10 33 -25z m221 -228 c-9 -51 -56 -57 -56 -9 0 25 13 42 31 42 19
0 29 -14 25 -33z m2944 -7 c0 -45 -50 -54 -66 -12 -13 33 2 52 39 52 15 0 27
-18 27 -40z m-2880 -289 c0 -16 -10 -35 -22 -42 -28 -18 -67 21 -49 49 20 32
71 27 71 -7z m2820 -11 c0 -22 -13 -40 -30 -40 -17 0 -30 18 -30 40 0 22 13
40 30 40 17 0 30 -18 30 -40z m-2149 -102 c21 -33 -26 -71 -53 -44 -23 23 -9
66 22 66 10 0 24 -10 31 -22z m1479 -19 c0 -16 -16 -31 -35 -35 -34 -7 -49 36
-21 63 21 21 56 3 56 -28z m-1161 -101 c-17 -28 -69 -21 -69 9 0 14 6 32 13
39 18 19 69 -26 56 -48z m847 15 c5 -22 -7 -33 -35 -33 -22 0 -41 12 -41 27 0
61 65 67 76 6z m-1456 -13 c0 -22 -13 -40 -30 -40 -30 0 -41 42 -17 67 26 25
47 13 47 -27z m2056 -7 c4 -19 -6 -33 -23 -33 -38 0 -60 33 -42 61 18 29 58
13 65 -28z m-1256 -215 c0 -48 -47 -42 -56 9 -4 19 6 33 25 33 18 0 31 -17 31
-42z m451 20 c21 -33 -26 -71 -53 -44 -23 23 -9 66 22 66 10 0 24 -10 31 -22z"/>
<path d="M2906 5341 c-154 -94 -158 -192 -6 -121 l100 47 100 -47 c113 -53
128 -50 94 20 -59 118 -187 163 -288 101z"/>
<path d="M2890 5134 c-322 -137 -366 -200 -317 -466 40 -224 57 -258 86 -181
36 96 132 219 240 311 l105 87 129 -127 c72 -71 152 -170 178 -222 64 -125 72
-127 178 -52 58 41 154 80 266 108 l175 45 26 -61 c53 -123 88 -306 80 -409
-11 -123 -5 -127 159 -127 137 0 425 -79 425 -116 0 -87 -72 -317 -130 -412
-37 -62 -61 -112 -54 -112 68 0 390 132 422 172 83 106 67 481 -23 553 -325
257 -395 259 -679 15 -123 -106 -111 -80 50 108 170 198 155 297 -91 598 -44
54 -50 56 -271 60 l-227 4 -55 -61 c-31 -35 -80 -137 -112 -235 -70 -209 -79
-211 -40 -6 60 314 41 357 -219 482 -103 49 -191 89 -194 88 -4 -1 -52 -20
-107 -44z m387 -179 c62 -53 111 -260 70 -301 -25 -25 -67 31 -67 87 0 195
-219 291 -434 190 -106 -49 -122 -75 -150 -241 -14 -82 -46 -25 -45 81 0 135
45 187 219 256 l120 47 128 -47 c71 -26 142 -59 159 -72z m634 -137 c127 -22
195 -76 283 -227 64 -108 -24 -395 -98 -321 -5 6 7 61 28 123 l38 112 -52 75
c-150 216 -381 242 -500 55 -39 -61 -66 -70 -82 -26 -24 61 147 231 230 231
16 0 85 -10 153 -22z m772 -690 c209 -169 202 -439 -15 -581 -99 -65 -100 2
-1 97 95 91 100 118 62 309 -28 141 -249 228 -391 155 -55 -28 -78 -20 -78 26
0 115 279 111 423 -6z"/>
<path d="M1818 5068 c-37 -11 -118 -164 -118 -224 0 -76 37 -66 100 26 34 49
73 91 86 91 71 5 184 22 192 30 41 41 -172 103 -260 77z"/>
<path d="M3966 5056 c-73 -35 -74 -76 0 -78 35 -2 73 -5 84 -7 11 -3 34 -6 51
-8 17 -2 61 -45 97 -97 78 -109 124 -85 82 43 -52 158 -173 215 -314 147z"/>
<path d="M2015 4906 c-88 -8 -101 -16 -182 -122 -191 -249 -203 -339 -68 -505
47 -58 107 -133 134 -167 l49 -62 -49 40 c-27 22 -86 73 -132 113 -202 180
-318 165 -603 -77 l-67 -56 -3 -213 c-5 -278 11 -303 258 -391 228 -81 242
-81 180 -1 -62 82 -196 475 -166 486 141 49 280 79 414 88 l170 11 11 170 c9
137 33 249 88 413 10 31 362 -87 466 -156 101 -66 101 -60 19 171 -92 257
-159 291 -519 258z m303 -95 c56 -29 162 -152 162 -188 0 -56 -50 -37 -123 46
l-82 92 -122 -13 c-133 -14 -175 -41 -265 -170 -51 -75 -52 -80 -24 -163 47
-135 48 -142 12 -150 -45 -10 -96 110 -96 222 0 137 144 303 284 329 154 28
192 27 254 -5z m-657 -624 c55 -22 79 -42 74 -65 -8 -34 -15 -33 -149 13 -152
52 -313 -86 -334 -288 l-13 -122 92 -82 c134 -118 84 -177 -54 -64 -298 246
21 753 384 608z"/>
<path d="M2882 4670 c-106 -112 -201 -285 -202 -365 0 -61 -10 -58 -123 44
-97 87 -236 153 -378 179 l-72 12 -33 -107 c-42 -130 -44 -340 -5 -449 l28
-81 -81 28 c-109 39 -319 36 -451 -5 -108 -34 -108 -34 -95 -103 28 -148 96
-286 193 -393 l101 -110 -59 0 c-91 0 -285 -108 -394 -219 l-99 -101 89 -91
c109 -112 225 -181 358 -215 l101 -26 -72 -69 c-115 -111 -226 -341 -228 -471
0 -69 401 -111 550 -57 44 15 82 29 84 29 2 0 -9 -37 -25 -83 -74 -210 -9
-568 100 -547 155 30 296 99 396 193 57 53 105 97 107 97 1 0 9 -38 16 -84 19
-117 99 -254 212 -366 l97 -96 107 108 c113 114 195 261 210 378 l9 70 106
-102 c104 -102 235 -167 393 -196 l73 -13 32 117 c40 142 42 307 6 428 l-27
90 90 -27 c121 -36 286 -34 428 6 l117 32 -13 73 c-29 158 -94 289 -196 393
l-102 106 70 9 c118 15 265 97 379 211 l109 109 -122 115 c-119 111 -289 199
-387 199 -52 0 -49 16 11 64 102 80 208 276 238 437 l12 72 -107 33 c-131 42
-340 44 -450 5 -46 -16 -83 -27 -83 -25 0 2 14 40 29 84 54 149 12 550 -57
550 -127 -2 -327 -95 -453 -212 l-94 -89 -12 77 c-18 111 -102 260 -209 369
-113 116 -97 117 -222 -15z m230 -121 c118 -134 165 -215 181 -311 l11 -73 87
87 c81 81 236 148 398 172 79 12 137 -337 82 -491 -27 -75 -27 -76 16 -63 110
34 245 34 393 0 l156 -36 -39 -140 c-49 -178 -64 -206 -163 -309 l-82 -85 59
0 c90 -1 207 -65 336 -183 l118 -108 -138 -130 c-130 -123 -236 -179 -337
-179 -25 0 -13 -21 45 -78 82 -79 153 -232 177 -378 l12 -77 -140 -33 c-171
-42 -254 -43 -361 -5 -46 16 -83 26 -83 23 0 -4 14 -39 30 -79 45 -107 30
-291 -39 -486 -6 -16 -44 -12 -135 13 -196 56 -229 72 -315 162 -75 77 -81 79
-81 35 -1 -84 -93 -245 -204 -353 l-109 -106 -108 123 c-121 136 -178 240
-178 328 l-1 59 -85 -82 c-103 -99 -131 -114 -309 -163 l-141 -39 -35 148
c-34 146 -34 313 1 396 14 34 10 37 -33 23 -181 -56 -534 -2 -522 80 22 151
91 315 165 392 43 46 77 85 74 86 -3 2 -54 18 -115 36 -81 25 -144 65 -240
154 l-130 119 100 102 c105 106 266 200 344 200 52 0 62 35 15 53 -69 27 -229
361 -229 479 0 47 445 77 548 36 33 -13 36 -9 23 24 -58 137 -5 559 68 540
265 -70 322 -96 410 -184 l91 -91 0 56 c1 91 70 219 182 337 126 134 112 134
230 -1z"/>
<path d="M2894 4440 c-103 -114 -142 -235 -131 -408 9 -144 -17 -144 -95 0
-94 174 -377 366 -442 301 -84 -85 -61 -363 45 -536 98 -161 87 -177 -57 -81
-221 147 -574 144 -543 -4 38 -183 139 -306 330 -403 125 -63 113 -98 -29 -80
-170 21 -297 -18 -418 -129 l-104 -97 70 -73 c113 -119 194 -150 388 -150 210
0 227 -22 77 -98 -150 -75 -254 -190 -294 -324 -41 -138 -44 -130 58 -156 188
-47 303 -21 525 119 74 46 74 7 -1 -115 -115 -190 -128 -291 -61 -511 39 -130
375 97 477 322 51 115 83 96 74 -45 -11 -183 27 -299 138 -418 l96 -104 72 69
c116 112 151 207 151 407 0 206 18 216 98 58 73 -144 192 -255 306 -284 47
-12 101 -27 118 -32 25 -7 38 13 55 80 46 181 16 333 -97 492 -64 90 -37 140
38 72 172 -155 624 -181 589 -35 -46 198 -142 319 -328 413 -141 72 -125 90
75 90 199 0 295 35 406 150 l68 70 -69 72 c-118 122 -204 156 -404 155 -206
-1 -222 21 -70 93 184 87 275 202 322 402 30 127 -326 134 -527 10 -128 -79
-169 -81 -120 -6 135 206 164 339 118 525 -26 102 -18 99 -156 58 -134 -40
-249 -144 -324 -293 -80 -158 -98 -148 -98 55 0 197 -25 270 -130 387 -93 102
-88 103 -196 -18z m-583 -182 c7 -12 6 -29 -4 -39 -24 -24 -76 11 -58 39 17
28 45 28 62 0z m639 -38 c0 -43 -58 -37 -67 7 -5 27 3 35 30 30 20 -4 37 -21
37 -37z m160 0 c0 -43 -58 -37 -67 7 -5 27 3 35 30 30 20 -4 37 -21 37 -37z
m-750 -82 c0 -48 -47 -42 -56 9 -4 19 6 33 25 33 18 0 31 -17 31 -42z m551 0
c21 -33 -26 -71 -53 -44 -23 23 -9 66 22 66 10 0 24 -10 31 -22z m229 -20 c0
-48 -47 -42 -56 9 -4 19 6 33 25 33 18 0 31 -17 31 -42z m-660 -18 c0 -22 -13
-40 -30 -40 -17 0 -30 18 -30 40 0 22 13 40 30 40 17 0 30 -18 30 -40z m1091
18 c21 -33 -26 -71 -53 -44 -23 23 -9 66 22 66 10 0 24 -10 31 -22z m-472 -93
c45 -52 87 -115 94 -140 14 -54 8 -54 102 -5 41 21 118 52 170 67 l95 29 22
-83 c13 -46 24 -128 25 -183 2 -100 2 -101 62 -95 281 27 338 -94 177 -376 -4
-7 36 -40 89 -74 52 -34 118 -86 145 -115 l50 -53 -90 -78 c-49 -42 -112 -88
-140 -102 -27 -14 -53 -28 -57 -30 -4 -3 17 -54 47 -115 107 -219 81 -262
-169 -281 l-108 -8 -6 -91 c-15 -266 -54 -291 -279 -182 -117 57 -128 59 -128
25 0 -27 -169 -241 -198 -251 -16 -5 -162 162 -212 243 -18 30 -30 28 -121
-18 -56 -27 -133 -55 -172 -62 l-71 -11 -23 115 c-13 64 -23 143 -23 177 0 60
-3 62 -95 65 -52 1 -133 13 -179 25 l-84 23 31 104 c17 58 48 133 69 167 48
79 48 81 -7 96 -25 7 -90 52 -145 101 l-100 88 50 53 c28 30 93 81 145 115
106 69 106 69 67 113 -31 35 -111 264 -100 285 12 20 265 63 308 51 35 -9 40
0 40 63 1 66 27 214 50 277 9 27 200 -30 283 -84 60 -39 57 -40 102 36 47 80
163 214 186 214 9 0 53 -43 98 -95z m-748 13 c21 -33 -26 -71 -53 -44 -23 23
-9 66 22 66 10 0 24 -10 31 -22z m229 -8 c0 -17 -18 -30 -40 -30 -22 0 -40 13
-40 30 0 17 18 30 40 30 22 0 40 -13 40 -30z m1131 8 c21 -33 -26 -71 -53 -44
-23 23 -9 66 22 66 10 0 24 -10 31 -22z m-1342 -140 c-17 -28 -69 -21 -69 9 0
14 6 32 13 39 18 19 69 -26 56 -48z m1321 21 c0 -16 -16 -31 -35 -35 -34 -7
-49 36 -21 63 21 21 56 3 56 -28z m581 -181 c21 -33 -26 -71 -53 -44 -23 23
-9 66 22 66 10 0 24 -10 31 -22z m-2260 -40 c21 -33 -26 -71 -53 -44 -23 23
-9 66 22 66 10 0 24 -10 31 -22z m2040 0 c21 -33 -26 -71 -53 -44 -23 23 -9
66 22 66 10 0 24 -10 31 -22z m-1931 -27 c0 -39 -39 -60 -64 -35 -11 11 -14
30 -7 42 20 32 71 27 71 -7z m2051 7 c18 -28 -34 -63 -58 -39 -19 19 -1 61 27
61 10 0 24 -10 31 -22z m-2241 -138 c0 -43 -58 -37 -67 7 -5 27 3 35 30 30 20
-4 37 -21 37 -37z m2201 18 c15 -25 -29 -61 -55 -45 -9 5 -16 22 -16 38 0 34
52 39 71 7z m-2131 -98 c0 -45 -50 -54 -66 -12 -13 33 2 52 39 52 15 0 27 -18
27 -40z m2060 11 c0 -39 -39 -60 -64 -35 -11 11 -14 30 -7 42 20 32 71 27 71
-7z m-2149 -333 c21 -33 -26 -71 -53 -44 -23 23 -9 66 22 66 10 0 24 -10 31
-22z m2240 0 c21 -33 -26 -71 -53 -44 -23 23 -9 66 22 66 10 0 24 -10 31 -22z
m-2340 -40 c21 -33 -26 -71 -53 -44 -23 23 -9 66 22 66 10 0 24 -10 31 -22z
m2440 0 c21 -33 -26 -71 -53 -44 -23 23 -9 66 22 66 10 0 24 -10 31 -22z
m-2441 -178 c0 -43 -58 -37 -67 7 -5 27 3 35 30 30 20 -4 37 -21 37 -37z
m2441 18 c21 -33 -26 -71 -53 -44 -23 23 -9 66 22 66 10 0 24 -10 31 -22z
m-2340 -40 c15 -25 -29 -61 -55 -45 -9 5 -16 22 -16 38 0 34 52 39 71 7z
m2239 -18 c0 -43 -58 -37 -67 7 -5 27 3 35 30 30 20 -4 37 -21 37 -37z m-2150
-329 c0 -41 -41 -61 -61 -30 -9 15 -12 34 -6 43 16 27 67 18 67 -13z m2060 0
c0 -41 -41 -61 -61 -30 -9 15 -12 34 -6 43 16 27 67 18 67 -13z m-2130 -92 c0
-16 -16 -31 -35 -35 -34 -7 -49 36 -21 63 21 21 56 3 56 -28z m2200 1 c0 -16
-16 -32 -35 -36 -25 -5 -35 6 -35 36 0 30 10 41 35 36 19 -4 35 -20 35 -36z
m-2010 -109 c0 -39 -39 -60 -64 -35 -11 11 -14 30 -7 42 20 32 71 27 71 -7z
m1820 -11 c0 -22 -13 -40 -30 -40 -17 0 -30 18 -30 40 0 22 13 40 30 40 17 0
30 -18 30 -40z m-1929 -2 c21 -33 -26 -71 -53 -44 -23 23 -9 66 22 66 10 0 24
-10 31 -22z m2039 -18 c0 -43 -58 -37 -67 7 -5 27 3 35 30 30 20 -4 37 -21 37
-37z m220 -20 c7 -11 7 -29 1 -39 -17 -27 -71 -3 -71 31 0 32 52 38 70 8z
m-570 -210 c0 -17 -18 -30 -40 -30 -22 0 -40 13 -40 30 0 17 18 30 40 30 22 0
40 -13 40 -30z m-1349 -92 c21 -33 -26 -71 -53 -44 -23 23 -9 66 22 66 10 0
24 -10 31 -22z m220 -36 c-19 -32 -71 -27 -71 6 0 34 43 54 67 31 10 -8 11
-25 4 -37z m918 -4 c-17 -28 -69 -21 -69 9 0 14 6 32 13 39 18 19 69 -26 56
-48z m221 22 c0 -43 -58 -37 -67 7 -5 27 3 35 30 30 20 -4 37 -21 37 -37z
m-1222 -56 c15 -26 -21 -70 -46 -55 -32 19 -27 71 7 71 16 0 33 -7 39 -16z
m1082 -24 c0 -43 -58 -37 -67 7 -5 27 3 35 30 30 20 -4 37 -21 37 -37z m-659
-2 c21 -33 -26 -71 -53 -44 -23 23 -9 66 22 66 10 0 24 -10 31 -22z m229 -20
c0 -48 -47 -42 -56 9 -4 19 6 33 25 33 18 0 31 -17 31 -42z m-189 -80 c21 -33
-26 -71 -53 -44 -23 23 -9 66 22 66 10 0 24 -10 31 -22z m159 -19 c0 -16 -16
-31 -35 -35 -34 -7 -49 36 -21 63 21 21 56 3 56 -28z m-799 -1 c21 -33 -26
-71 -53 -44 -23 23 -9 66 22 66 10 0 24 -10 31 -22z"/>
<path d="M2925 3937 c-36 -47 -71 -120 -78 -161 -15 -92 -51 -98 -119 -17 -51
60 -218 138 -243 112 -15 -14 -17 -219 -3 -311 7 -44 2 -49 -42 -42 -84 13
-298 11 -311 -3 -25 -24 36 -161 107 -238 77 -86 73 -99 -46 -134 -44 -13
-110 -49 -146 -81 l-66 -56 72 -63 c39 -34 111 -73 161 -85 105 -27 110 -50
29 -128 -60 -58 -136 -221 -113 -244 13 -13 225 -15 313 -3 43 6 49 0 42 -43
-11 -76 -12 -297 0 -309 23 -22 169 42 234 103 90 85 116 83 131 -10 8 -47 39
-107 83 -155 l70 -79 61 70 c33 39 70 108 82 155 26 100 50 105 126 26 78 -82
227 -133 247 -85 13 33 14 181 0 284 -5 43 1 49 44 43 90 -14 249 -13 284 1
49 20 -6 178 -86 244 -82 70 -74 103 32 130 50 12 119 50 155 83 l65 60 -77
68 c-46 41 -107 73 -155 81 -95 16 -98 43 -12 134 61 65 125 211 103 234 -12
12 -233 11 -309 0 -43 -7 -49 -1 -43 42 16 118 10 281 -11 302 -29 29 -178
-37 -244 -109 -69 -74 -94 -66 -120 38 -13 50 -52 122 -87 161 l-65 70 -65
-85z m145 -141 c46 -54 52 -75 41 -148 -19 -127 91 -154 116 -28 19 93 192
163 221 88 25 -66 12 -162 -28 -198 -22 -20 -40 -57 -40 -83 0 -60 64 -63 120
-7 42 42 166 55 218 22 60 -38 -40 -222 -121 -222 -19 0 -44 -17 -55 -37 -30
-56 11 -83 106 -70 93 12 192 -46 192 -113 0 -67 -99 -125 -192 -113 -95 13
-136 -14 -106 -70 11 -20 37 -37 58 -37 83 0 179 -183 117 -222 -51 -33 -175
-20 -217 22 -22 22 -58 40 -80 40 -27 0 -40 -13 -40 -40 0 -22 18 -58 40 -80
64 -64 47 -240 -23 -240 -75 0 -155 58 -173 125 -27 104 -116 94 -109 -12 5
-87 -37 -182 -94 -212 -57 -31 -145 80 -140 177 7 109 2 122 -41 122 -26 0
-49 -20 -62 -55 -42 -111 -179 -187 -220 -122 -35 54 -21 195 22 222 22 13 40
45 40 70 0 59 -79 62 -130 5 -36 -40 -132 -53 -198 -28 -75 29 -5 202 88 221
130 26 90 135 -42 114 -62 -10 -83 -2 -140 51 l-68 62 68 62 c57 53 79 61 142
52 132 -17 169 87 40 113 -93 19 -163 192 -88 221 68 26 167 12 205 -30 45
-47 109 -44 119 6 4 18 -12 52 -35 75 -41 41 -55 142 -29 209 29 76 202 5 222
-91 25 -125 129 -88 112 40 -8 61 0 87 44 139 66 79 74 79 140 0z"/>
<path d="M2973 3747 c-26 -27 -14 -127 16 -127 41 0 57 34 43 91 -13 49 -33
61 -59 36z"/>
<path d="M2607 3630 c-14 -36 26 -90 65 -90 34 0 37 63 4 96 -32 32 -55 30
-69 -6z"/>
<path d="M3327 3645 c-43 -28 -41 -95 3 -95 29 0 42 15 46 55 7 56 -7 67 -49
40z"/>
<path d="M2944 3516 c-34 -34 -28 -167 14 -296 l36 -110 25 60 c97 234 46 467
-75 346z m84 -88 c22 -57 12 -88 -28 -88 -29 0 -40 13 -40 47 0 73 45 101 68
41z"/>
<path d="M2700 3440 c-29 -54 10 -124 138 -249 115 -112 123 -100 64 89 -58
185 -150 258 -202 160z m130 -73 c29 -29 29 -36 3 -62 -38 -38 -73 -16 -73 46
0 57 24 62 70 16z"/>
<path d="M3143 3405 c-48 -93 -105 -305 -83 -305 51 0 242 248 236 307 -10
102 -101 101 -153 -2z m97 -41 c0 -47 -38 -84 -72 -70 -34 13 -36 50 -4 82 36
36 76 29 76 -12z"/>
<path d="M2349 3379 c-18 -29 28 -79 73 -79 43 0 50 40 14 76 -30 30 -69 31
-87 3z"/>
<path d="M3553 3363 c-18 -20 -27 -42 -20 -50 27 -26 86 -12 106 24 36 68 -30
88 -86 26z"/>
<path d="M2551 3293 c-98 -72 38 -181 281 -224 l78 -14 -100 104 c-140 146
-201 177 -259 134z m156 -82 c17 -44 -40 -82 -77 -51 -16 14 -30 37 -30 52 0
37 93 36 107 -1z"/>
<path d="M3330 3282 c-92 -57 -245 -222 -206 -222 204 0 437 176 317 239 -48
26 -40 28 -111 -17z m70 -61 c0 -10 -15 -33 -33 -51 -37 -37 -105 5 -78 48 16
27 111 30 111 3z"/>
<path d="M2474 3045 c-105 -117 128 -159 356 -64 l60 25 -90 28 c-165 52 -285
56 -326 11z m186 -45 c0 -43 -86 -59 -110 -20 -20 32 9 60 61 60 36 0 49 -11
49 -40z"/>
<path d="M3225 3046 c-137 -41 -133 -55 33 -95 159 -39 239 -35 270 14 61 98
-102 141 -303 81z m221 -19 c21 -21 -27 -67 -68 -67 -25 0 -38 14 -38 40 0 39
75 58 106 27z"/>
<path d="M2249 3018 c-20 -32 20 -62 73 -55 75 11 75 77 1 77 -34 0 -67 -10
-74 -22z"/>
<path d="M3624 3005 c8 -43 68 -56 108 -23 36 30 4 57 -68 58 -34 0 -45 -10
-40 -35z"/>
<path d="M2730 2912 c-159 -50 -213 -89 -206 -148 12 -107 112 -86 259 54 138
131 127 151 -53 94z m-40 -104 c0 -24 -16 -40 -45 -44 -50 -7 -61 32 -21 72
33 33 66 19 66 -28z"/>
<path d="M3214 2818 c108 -105 133 -120 190 -114 151 14 67 148 -130 206 -188
56 -197 42 -60 -92z m165 5 c23 -43 10 -63 -41 -63 -43 0 -66 32 -50 71 15 41
67 36 91 -8z"/>
<path d="M2826 2795 c-128 -132 -155 -182 -126 -235 55 -103 156 -13 211 190
45 167 38 171 -85 45z m12 -103 c18 -21 16 -35 -9 -60 -45 -45 -69 -40 -69 15
0 74 37 95 78 45z"/>
<path d="M3069 2822 c28 -198 130 -342 210 -293 57 36 20 131 -100 255 l-122
126 12 -88z m164 -132 c21 -56 -8 -94 -53 -70 -45 24 -53 71 -15 87 43 17 56
14 68 -17z"/>
<path d="M2953 2764 c-57 -204 -34 -319 61 -300 62 12 74 96 37 263 -41 184
-56 189 -98 37z m87 -142 c0 -41 -46 -89 -67 -68 -31 31 -12 106 27 106 26 0
40 -13 40 -38z"/>
<path d="M2397 2705 c-43 -10 -66 -67 -34 -87 32 -20 97 15 97 52 0 34 -20 45
-63 35z"/>
<path d="M3542 2692 c-29 -34 44 -96 91 -78 36 14 26 45 -26 80 -35 23 -45 23
-65 -2z"/>
<path d="M2630 2440 c-47 -52 -26 -110 30 -80 40 22 55 89 23 108 -10 6 -33
-6 -53 -28z"/>
<path d="M3303 2454 c-16 -20 -14 -38 9 -70 40 -57 68 -56 68 4 0 62 -46 103
-77 66z"/>
<path d="M2960 2323 c0 -71 26 -94 59 -54 33 39 19 99 -24 107 -27 5 -35 -7
-35 -53z"/>
<path d="M1013 4247 l-98 -50 9 -110 c16 -186 94 -227 102 -52 4 95 8 102 102
164 153 102 61 140 -115 48z"/>
<path d="M4802 4282 c-22 -14 -7 -33 65 -84 76 -54 93 -77 93 -127 1 -202 92
-190 111 15 12 131 -166 261 -269 196z"/>
<path d="M1027 3389 c-27 -28 -85 -127 -128 -220 l-79 -169 79 -170 c129 -279
175 -301 493 -240 204 39 203 30 -4 -38 -101 -33 -198 -79 -235 -112 l-63 -57
4 -226 c4 -257 -10 -233 233 -398 178 -120 252 -113 427 37 226 193 232 186
30 -41 -155 -174 -152 -250 16 -489 108 -153 108 -153 332 -177 251 -26 311
17 410 292 67 190 71 217 23 174 -111 -97 -524 -221 -526 -157 0 17 -18 82
-39 142 -23 65 -39 164 -39 243 -1 186 -3 188 -129 180 -106 -6 -291 30 -407
81 l-60 26 44 175 c28 114 65 206 107 266 75 106 73 114 -57 179 -85 44 -339
276 -339 311 0 35 263 276 346 316 116 56 112 62 -61 95 -219 43 -318 37 -378
-23z m319 -59 c-2 -11 -20 -23 -40 -27 -255 -46 -347 -222 -238 -455 45 -98
53 -104 161 -130 136 -33 139 -68 6 -67 -131 1 -193 53 -259 216 l-54 133 54
134 c68 169 147 231 283 222 50 -3 89 -15 87 -26z m66 -874 c9 -14 -5 -36 -34
-55 -125 -81 -141 -112 -127 -246 22 -220 223 -355 396 -265 31 16 65 25 75
19 40 -25 13 -66 -62 -97 -360 -144 -679 364 -383 609 78 64 112 73 135 35z
m494 -747 c-3 -11 -21 -61 -40 -113 l-35 -94 60 -84 c81 -116 140 -152 268
-166 l109 -11 87 93 c95 102 165 100 98 -2 -236 -361 -811 -60 -645 337 28 67
112 101 98 40z"/>
<path d="M4670 3427 c-22 -5 -89 -19 -149 -30 l-109 -22 79 -38 c126 -61 213
-129 307 -238 l87 -103 -126 -127 c-69 -69 -175 -153 -235 -185 l-109 -59 177
-32 c328 -61 376 -38 508 239 l80 168 -79 170 c-118 256 -202 306 -431 257z
m201 -96 c56 -23 82 -54 124 -145 126 -273 -12 -546 -274 -546 -108 0 -112 53
-6 71 151 25 181 47 224 162 78 208 7 372 -177 410 -74 15 -122 35 -122 51 0
36 143 34 231 -3z"/>
<path d="M709 3153 c-117 -117 -104 -235 36 -340 77 -57 89 -29 35 86 l-46 99
43 100 c65 150 44 167 -68 55z"/>
<path d="M5180 3200 c0 -11 18 -59 40 -107 l41 -86 -42 -94 c-49 -111 -46
-134 15 -112 67 26 153 167 138 227 -22 89 -192 241 -192 172z"/>
<path d="M4491 2488 c65 -109 145 -386 122 -424 -25 -40 -314 -107 -433 -101
-147 9 -148 10 3 -124 241 -213 309 -213 601 -1 87 63 95 77 110 180 49 353
16 422 -246 516 -235 84 -236 84 -157 -46z m219 -59 c108 -83 132 -156 106
-320 -23 -145 -27 -152 -184 -270 -113 -85 -388 -56 -367 39 8 33 13 33 149
-9 249 -78 446 302 253 486 -122 118 -90 175 43 74z"/>
<path d="M986 2084 c-135 -84 -71 -306 105 -364 131 -43 147 4 30 89 -69 51
-99 86 -93 108 16 57 -15 183 -42 167z"/>
<path d="M4973 2039 c-7 -35 -13 -88 -13 -118 0 -41 -22 -69 -94 -119 -109
-78 -85 -124 43 -82 167 55 227 233 117 343 l-40 40 -13 -64z"/>
<path d="M4030 1795 c0 -94 -16 -195 -45 -287 l-44 -142 -154 38 c-152 38
-333 117 -357 156 -26 43 -62 16 -115 -86 -31 -58 -113 -163 -183 -233 l-128
-126 -103 87 c-109 94 -177 181 -238 307 l-38 78 -24 -108 c-82 -378 -59 -441
210 -570 l185 -89 168 77 c276 127 310 198 246 505 -41 195 -29 191 39 -13 92
-277 158 -324 414 -299 203 21 225 30 304 134 199 261 201 359 16 561 -38 41
-81 92 -97 115 -46 66 -56 48 -56 -105z m158 -135 c61 -154 43 -216 -122 -413
-100 -120 -391 -97 -495 40 -102 134 -41 173 71 45 85 -96 110 -101 310 -61
124 25 216 243 160 378 -16 37 -23 73 -17 79 30 30 63 5 93 -68z m-1488 -356
c1 -219 211 -336 435 -242 105 43 145 96 145 194 1 67 28 114 58 95 87 -54 -6
-278 -142 -341 -206 -96 -410 -60 -511 89 -61 90 -63 287 -2 249 9 -6 17 -26
17 -44z"/>
<path d="M1707 1190 c-43 -112 78 -260 209 -259 185 3 222 82 48 102 -91 11
-107 21 -164 100 -69 96 -76 101 -93 57z"/>
<path d="M4198 1134 c-56 -81 -76 -94 -137 -96 -39 -1 -92 -8 -118 -15 l-47
-13 42 -38 c117 -106 288 -47 342 119 42 128 -4 152 -82 43z"/>
<path d="M2780 798 c0 -115 213 -201 322 -129 154 102 141 179 -18 111 l-100
-43 -81 41 c-92 47 -123 52 -123 20z"/>
<path d="M1102 5267 c-60 -42 -49 -149 35 -334 l59 -129 -103 47 c-239 109
-330 111 -382 10 l-32 -60 60 12 c90 18 147 -4 237 -91 l81 -79 128 22 128 22
23 131 22 131 -66 55 c-80 65 -120 154 -108 236 10 68 -12 76 -82 27z"/>
<path d="M4813 5241 c14 -73 -65 -219 -140 -259 -42 -23 -47 -35 -32 -76 11
-27 19 -87 19 -133 l0 -84 142 -23 143 -22 57 66 c70 79 157 118 238 106 70
-11 78 18 24 85 -47 57 -161 44 -340 -41 -68 -32 -124 -55 -124 -51 0 3 27 65
61 137 84 180 95 258 41 312 -63 63 -104 55 -89 -17z"/>
<path d="M791 5201 c-38 -61 50 -179 162 -217 81 -26 87 -19 58 68 -39 111
-183 209 -220 149z"/>
<path d="M5130 5204 c-76 -16 -118 -68 -158 -197 -13 -42 -11 -43 70 -18 155
45 237 247 88 215z"/>
<path d="M570 4620 c-176 -130 -169 -117 -199 -402 -16 -157 26 -228 151 -256
l72 -16 24 129 c35 190 91 292 235 423 l128 117 -71 63 c-102 89 -153 81 -340
-58z m190 -96 c0 -27 -27 -45 -95 -65 l-95 -29 0 -128 c0 -149 -36 -185 -69
-68 -41 148 -29 221 44 259 136 70 215 81 215 31z"/>
<path d="M5079 4669 c-65 -67 -67 -73 -31 -93 184 -104 345 -387 352 -619 0
-23 157 27 187 60 38 43 43 115 24 318 l-15 164 -103 74 c-278 200 -306 207
-414 96z m356 -172 c72 -34 85 -50 85 -100 0 -74 -40 -237 -58 -237 -42 0 -55
47 -36 129 27 117 14 140 -95 171 -98 27 -122 47 -100 82 16 26 89 10 204 -45z"/>
<path d="M245 4060 c-59 -93 38 -240 235 -358 55 -33 61 -42 30 -43 -300 -10
-430 -68 -430 -190 l0 -68 73 50 c80 54 159 60 267 20 66 -24 74 -22 142 37
39 34 87 71 106 82 33 19 32 25 -6 110 -23 50 -41 109 -42 132 0 36 -15 44
-90 53 -114 13 -186 60 -222 147 -34 80 -31 79 -63 28z"/>
<path d="M5680 4036 c-40 -84 -115 -136 -217 -150 -58 -8 -83 -21 -83 -44 0
-17 -22 -78 -48 -134 l-47 -102 66 -35 c37 -20 86 -57 110 -82 40 -43 47 -44
110 -17 93 39 187 35 262 -11 63 -38 63 -38 74 5 27 103 -75 161 -335 191
l-122 15 61 32 c194 104 292 243 246 345 -30 66 -41 64 -77 -13z"/>
<path d="M30 3832 c-79 -59 45 -162 170 -141 100 17 108 34 44 95 -70 67 -160
87 -214 46z"/>
<path d="M5840 3845 c-16 -6 -59 -36 -95 -67 l-65 -57 83 -22 c107 -29 294 59
234 110 -49 41 -108 55 -157 36z"/>
<path d="M188 3384 c-21 -23 -71 -118 -112 -212 l-74 -170 71 -166 c88 -209
145 -264 253 -250 112 15 127 38 88 128 -87 202 -90 349 -11 559 48 129 47
130 -80 142 -80 8 -104 2 -135 -31z m112 -200 c0 -20 -27 -62 -60 -94 -33 -32
-60 -69 -60 -83 0 -14 27 -56 60 -94 64 -73 78 -133 31 -133 -91 0 -192 220
-138 301 88 130 167 179 167 103z"/>
<path d="M5584 3399 c-43 -17 -44 -21 -15 -78 98 -188 98 -453 2 -640 -30 -56
-29 -58 32 -79 156 -54 207 -17 314 226 l79 177 -79 173 c-114 246 -173 285
-333 221z m218 -244 c117 -147 114 -197 -20 -324 -100 -95 -128 -37 -35 71 89
104 89 93 2 194 -68 79 -76 124 -23 124 13 0 47 -29 76 -65z"/>
<path d="M80 2531 c0 -122 130 -180 430 -190 31 -1 24 -11 -33 -46 -159 -99
-282 -236 -262 -292 36 -101 61 -111 92 -37 37 89 108 136 223 149 75 9 90 17
90 53 1 23 19 83 42 132 38 85 39 91 6 110 -19 11 -68 49 -109 85 -73 64 -75
65 -146 35 -102 -43 -177 -37 -260 19 l-73 50 0 -68z"/>
<path d="M5852 2562 c-51 -57 -144 -69 -257 -35 l-94 29 -74 -68 c-41 -37 -90
-73 -109 -79 -33 -10 -32 -19 13 -115 27 -57 49 -119 49 -136 0 -21 17 -33 47
-33 134 0 272 -97 274 -193 0 -41 1 -41 40 5 66 79 50 129 -81 249 -65 61
-137 117 -160 124 -66 21 -27 47 72 47 233 0 363 74 332 190 l-15 56 -37 -41z"/>
<path d="M55 2280 c-94 -73 -8 -167 111 -121 47 18 147 115 132 129 -37 37
-193 32 -243 -8z"/>
<path d="M5745 2306 c-59 -11 -57 -28 10 -89 73 -68 112 -79 184 -54 155 54
-13 178 -194 143z"/>
<path d="M490 2030 c-116 -42 -135 -77 -121 -230 28 -301 22 -288 168 -396
229 -169 264 -177 373 -82 l71 63 -128 117 c-144 131 -201 234 -237 427 -14
72 -30 131 -36 130 -5 0 -46 -14 -90 -29z m80 -331 l0 -126 95 -30 c70 -22 95
-40 95 -69 0 -45 -49 -38 -198 28 l-87 38 10 128 c17 219 85 244 85 31z"/>
<path d="M5392 2015 c-64 -335 -119 -425 -372 -611 -22 -16 143 -144 187 -144
26 0 122 55 215 121 l168 122 20 174 c11 96 16 200 10 232 -18 104 -211 195
-228 106z m106 -264 c45 -181 22 -226 -146 -283 -176 -60 -182 16 -7 80 102
38 112 62 78 182 -20 70 -10 110 26 110 15 0 36 -40 49 -89z"/>
<path d="M1006 1304 c-60 -81 -173 -131 -259 -115 l-69 13 32 -62 c53 -103
144 -101 374 10 57 27 106 50 108 50 3 0 -21 -59 -54 -131 -85 -187 -96 -294
-36 -336 70 -49 92 -41 82 27 -12 81 27 168 107 238 l66 58 -24 137 c-21 126
-27 137 -73 138 -27 1 -86 8 -131 16 -73 14 -84 10 -123 -43z"/>
<path d="M4878 1351 c-5 -5 -54 -13 -109 -18 l-99 -8 -12 -123 c-7 -67 -17
-128 -24 -135 -7 -7 16 -31 50 -55 85 -58 141 -165 128 -247 -11 -77 7 -81 82
-17 68 59 46 169 -90 437 -4 8 41 -8 99 -34 216 -99 294 -109 349 -45 65 76
60 94 -21 80 -77 -12 -182 41 -249 125 -34 45 -82 63 -104 40z"/>
<path d="M940 1014 c-125 -33 -203 -198 -99 -210 73 -8 152 61 168 148 16 87
18 85 -69 62z"/>
<path d="M4960 1034 c0 -98 106 -234 183 -234 98 0 58 158 -50 199 -80 29
-133 44 -133 35z"/>
<path d="M1324 914 c-102 -105 -94 -134 102 -406 143 -199 555 -187 610 16
l20 75 -73 11 c-248 39 -458 162 -542 317 -35 67 -40 67 -117 -13z m214 -246
c27 -105 56 -121 174 -94 66 15 93 14 108 -4 33 -39 -17 -65 -154 -81 l-123
-14 -39 78 c-46 92 -69 182 -54 207 24 38 67 -6 88 -92z"/>
<path d="M4540 906 c-108 -158 -279 -254 -526 -295 -82 -14 -83 -19 -31 -155
32 -82 143 -98 411 -61 102 15 105 17 225 183 138 192 145 233 59 331 -77 87
-77 87 -138 -3z m-10 -260 c-62 -168 -116 -195 -295 -145 -134 37 -98 85 51
69 131 -14 174 15 174 120 0 43 62 96 86 72 14 -14 9 -51 -16 -116z"/>
<path d="M2290 667 c-55 -26 -116 -47 -135 -47 -24 0 -35 -16 -35 -50 0 -105
-62 -213 -145 -250 l-79 -35 47 -33 c95 -66 177 -15 335 206 45 64 62 77 63
50 10 -292 81 -445 193 -415 43 11 43 11 5 74 -46 75 -50 169 -11 262 26 61
25 72 -3 95 -17 14 -55 63 -84 107 l-51 82 -100 -46z"/>
<path d="M3560 630 c-24 -39 -61 -82 -82 -97 -36 -26 -37 -31 -7 -115 38 -106
26 -207 -31 -268 l-42 -45 53 -13 c112 -28 189 97 189 305 0 138 18 155 75 69
144 -217 255 -284 348 -207 46 39 46 40 5 40 -95 2 -193 140 -193 271 0 36
-18 48 -97 69 -54 13 -103 33 -109 43 -23 37 -67 16 -109 -52z"/>
<path d="M2600 409 c-61 -160 -21 -219 228 -329 l169 -75 176 78 c242 107 279
159 225 314 -21 61 -23 62 -79 32 -189 -97 -440 -100 -624 -6 l-76 38 -19 -52z
m303 -159 c95 -86 91 -86 195 3 63 54 90 67 107 50 46 -46 -168 -218 -241
-193 -70 24 -190 144 -178 178 18 45 29 41 117 -38z"/>
<path d="M2205 237 c-70 -87 -81 -148 -38 -206 67 -92 171 68 134 207 -13 45
-24 82 -27 81 -2 -1 -33 -38 -69 -82z"/>
<path d="M3689 208 c-22 -146 110 -287 144 -154 22 82 10 129 -48 191 -70 74
-80 70 -96 -37z"/>
</g>
</svg>
