<?xml version="1.0" standalone="no"?>
<!DOCTYPE svg PUBLIC "-//W3C//DTD SVG 20010904//EN"
 "http://www.w3.org/TR/2001/REC-SVG-20010904/DTD/svg10.dtd">
<svg version="1.0" xmlns="http://www.w3.org/2000/svg"
 width="300.000000pt" height="300.000000pt" viewBox="0 0 300.000000 300.000000"
 preserveAspectRatio="xMidYMid meet">
<metadata>
Created by potrace 1.10, written by Peter Selinger 2001-2011
</metadata>
<g transform="translate(0.000000,300.000000) scale(0.100000,-0.100000)"
fill="#f0a6b7" stroke="none">
<path d="M1080 2974 c-14 -35 -4 -67 31 -99 27 -26 29 -27 36 -9 16 41 8 95
-16 115 -31 25 -40 24 -51 -7z m45 -4 c18 -20 25 -83 11 -97 -3 -4 -15 2 -26
12 -14 13 -20 31 -20 62 0 48 8 53 35 23z"/>
<path d="M1412 2961 c-101 -47 -122 -65 -122 -105 0 -57 10 -78 34 -71 123 40
162 46 224 35 34 -6 78 -18 97 -27 43 -20 54 -12 62 46 4 27 1 46 -8 58 -11
13 -195 106 -202 102 -1 -1 -39 -18 -85 -38z m181 -15 c103 -48 113 -60 101
-121 -3 -19 -7 -35 -8 -35 0 0 -26 10 -56 22 -75 29 -185 29 -259 0 -30 -12
-57 -19 -60 -17 -3 3 -5 27 -5 53 l-1 47 95 47 c52 26 96 47 96 47 1 1 44 -19
97 -43z"/>
<path d="M1455 2941 c-45 -28 -78 -68 -72 -85 9 -22 41 -20 63 5 37 41 52 43
93 10 43 -34 68 -39 77 -16 8 19 -9 40 -60 77 -46 33 -61 34 -101 9z m106 -27
c49 -36 63 -64 33 -64 -9 0 -32 14 -51 30 -18 17 -38 30 -43 30 -5 0 -25 -13
-43 -30 -37 -32 -67 -39 -67 -15 0 17 86 85 108 85 8 0 36 -16 63 -36z"/>
<path d="M1860 2973 c-18 -23 -21 -36 -16 -72 3 -25 8 -47 11 -49 9 -9 64 50
67 72 5 30 -12 76 -27 76 -8 0 -23 -12 -35 -27z m50 -28 c0 -23 -8 -42 -25
-59 -14 -14 -25 -21 -25 -17 0 5 -3 22 -6 37 -4 21 1 37 16 57 26 33 40 27 40
-18z"/>
<path d="M1216 2945 c-22 -23 -43 -109 -45 -185 l-1 -35 -26 40 c-71 108 -132
145 -178 110 -17 -13 -16 -15 18 -29 40 -17 75 -77 76 -128 0 -21 5 -28 20
-28 11 0 41 -10 66 -22 44 -20 47 -20 56 -3 6 10 25 34 43 54 30 34 31 38 19
66 -20 46 -17 108 6 138 11 14 20 28 20 31 0 13 -59 5 -74 -9z m38 -22 c-15
-36 -16 -100 0 -136 8 -20 11 -37 6 -37 -5 0 -23 -20 -40 -44 l-32 -44 -42 19
c-22 10 -49 19 -58 19 -13 0 -18 8 -18 25 0 39 -37 104 -72 125 l-31 19 28 7
c38 9 50 0 120 -92 53 -69 60 -76 63 -54 7 73 25 177 33 193 6 9 19 17 30 17
16 0 19 -4 13 -17z"/>
<path d="M1713 2954 c-8 -4 -6 -11 7 -24 28 -28 34 -78 16 -130 -15 -43 -15
-44 15 -78 17 -19 35 -44 41 -56 l10 -22 45 23 c26 13 56 23 68 23 18 0 22 6
23 30 1 48 33 103 69 120 39 18 41 27 9 41 -39 18 -72 3 -116 -54 -48 -62 -84
-117 -76 -117 3 0 17 19 32 41 42 68 104 129 130 129 33 0 37 -15 8 -31 -27
-14 -57 -64 -68 -114 -6 -25 -16 -34 -64 -52 -38 -15 -58 -19 -61 -11 -2 6
-18 27 -36 47 -31 34 -32 38 -19 71 17 48 17 85 -1 120 -15 29 -15 30 8 30 32
0 46 -35 54 -133 4 -50 9 -74 13 -62 8 22 4 63 -12 138 -13 61 -50 89 -95 71z"/>
<path d="M900 2814 c-8 -1 -45 -6 -82 -9 l-67 -6 -60 -84 c-71 -97 -76 -124
-30 -171 l31 -32 71 72 c59 59 82 75 129 89 32 10 72 19 90 21 38 3 42 9 33
53 -10 52 -57 80 -115 67z m58 -10 c23 -7 52 -50 52 -78 0 -10 -19 -18 -57
-26 -92 -19 -141 -45 -205 -112 l-60 -63 -24 28 c-13 16 -24 38 -24 51 0 12
26 59 58 103 l57 80 85 10 c47 5 87 10 90 11 3 1 15 -1 28 -4z"/>
<path d="M757 2753 c-22 -26 -51 -109 -43 -129 3 -9 15 -14 28 -12 17 2 26 15
37 52 l15 48 57 -6 c44 -5 59 -3 69 9 22 26 -8 45 -81 51 -55 6 -66 4 -82 -13z
m126 -4 c59 -16 41 -34 -34 -34 l-64 0 -15 -47 c-10 -33 -20 -48 -32 -48 -24
0 -22 25 7 88 23 49 26 52 62 52 21 0 55 -5 76 -11z"/>
<path d="M2024 2810 c-21 -8 -42 -47 -46 -88 -3 -21 2 -24 35 -27 84 -9 149
-38 208 -95 31 -30 61 -64 68 -75 10 -19 12 -18 46 17 19 21 35 48 35 61 0 13
-28 63 -62 110 -54 76 -66 87 -93 88 -16 0 -37 2 -45 3 -54 10 -128 13 -146 6z
m138 -16 l78 -6 49 -67 c70 -96 75 -107 60 -142 -10 -25 -46 -57 -53 -47 -1 2
-15 19 -30 38 l-29 35 24 6 c20 4 24 11 21 39 -1 19 -13 52 -25 74 l-23 41
-67 -1 c-72 -1 -105 -18 -94 -49 5 -13 19 -15 69 -13 l62 3 18 -47 c20 -53 13
-60 -22 -23 -21 23 -96 52 -181 72 -37 8 -37 8 -25 43 11 35 49 63 76 55 8 -2
50 -7 92 -11z m87 -76 c11 -24 23 -55 26 -70 6 -23 4 -28 -12 -28 -13 0 -23
14 -36 51 l-18 50 -62 -3 c-50 -2 -62 0 -62 12 0 16 37 27 102 29 39 1 42 -1
62 -41z"/>
<path d="M1400 2767 c-36 -12 -79 -32 -95 -45 -37 -29 -85 -99 -85 -124 0 -22
-13 -23 -31 -2 -29 36 -92 58 -164 58 -98 0 -164 -25 -226 -85 -70 -68 -103
-144 -96 -219 l5 -58 -58 5 c-48 5 -67 1 -114 -20 -75 -35 -149 -111 -172
-179 -24 -70 -24 -181 0 -228 21 -40 65 -90 80 -90 5 0 -7 17 -27 38 -40 41
-67 110 -67 171 0 35 0 35 16 13 12 -18 19 -20 35 -12 15 9 19 7 19 -6 0 -9
16 -32 35 -51 24 -24 35 -44 35 -64 0 -16 7 -46 15 -67 16 -36 16 -37 -13 -62
-17 -14 -38 -37 -47 -52 -11 -17 -26 -28 -40 -28 -12 0 -38 -11 -58 -24 -28
-20 -37 -22 -41 -10 -3 8 -15 14 -26 14 -11 0 -20 4 -20 9 0 21 88 103 125
116 25 9 32 14 19 15 -29 0 -98 -48 -129 -90 -28 -38 -65 -146 -65 -190 0 -15
9 -57 20 -93 27 -85 93 -163 155 -179 l43 -12 -33 -39 c-81 -94 -65 -271 33
-374 67 -69 130 -98 213 -97 l67 0 -5 -57 c-5 -50 -2 -67 23 -116 38 -80 110
-146 180 -168 108 -34 222 -18 279 39 23 23 26 24 31 8 19 -57 32 -77 76 -117
93 -83 220 -102 336 -50 74 33 138 99 148 152 l6 34 27 -25 c61 -58 183 -76
286 -41 58 19 133 86 173 155 22 37 27 57 27 115 l0 70 70 0 c58 0 78 5 115
27 69 40 136 115 155 173 35 103 17 225 -41 286 l-25 27 34 6 c105 20 205 200
178 323 -15 74 -38 120 -82 168 -36 38 -55 51 -111 69 -16 5 -15 8 8 31 57 57
73 171 39 279 -23 71 -93 147 -171 183 -46 21 -66 25 -113 20 l-56 -5 0 67 c0
83 -27 143 -97 211 -102 100 -279 117 -375 35 l-39 -33 -12 43 c-16 62 -94
128 -179 155 -82 25 -112 25 -193 -3z m195 -8 c11 -4 15 -8 8 -8 -6 -1 -14
-10 -18 -21 -6 -20 -6 -20 -46 0 -39 20 -39 20 -76 1 l-38 -19 -18 24 -17 23
42 10 c44 10 127 5 163 -10z m-195 -40 c0 -26 -19 -24 -30 4 l-9 22 0 -23 c-1
-12 5 -25 13 -28 12 -4 10 -13 -10 -41 -13 -20 -24 -46 -24 -58 0 -14 -11 -29
-27 -40 -16 -9 -39 -30 -53 -47 -25 -29 -26 -29 -62 -13 -21 8 -51 15 -67 15
-20 0 -40 11 -64 35 -19 19 -42 35 -51 35 -13 0 -15 4 -7 17 7 13 5 23 -6 35
-15 17 -14 18 14 18 55 0 127 -28 164 -65 l36 -35 13 46 c15 53 39 86 92 124
42 31 78 30 78 -1z m174 -21 c46 -32 66 -59 66 -94 0 -25 8 -36 40 -58 22 -14
47 -38 57 -53 9 -16 18 -30 19 -32 2 -1 13 4 25 13 13 8 48 18 80 22 43 5 58
11 62 24 12 44 134 76 186 48 54 -29 94 -167 57 -197 -12 -10 -11 -18 10 -54
13 -24 24 -58 24 -79 0 -37 1 -38 37 -38 20 0 56 -9 79 -21 40 -19 44 -19 68
-4 32 21 81 12 141 -26 37 -24 45 -34 47 -61 4 -93 -12 -142 -53 -164 -25 -13
-29 -20 -29 -60 0 -25 -7 -59 -16 -75 -8 -17 -14 -32 -12 -33 2 -1 15 -10 31
-19 15 -10 39 -36 54 -58 16 -25 31 -38 41 -34 37 14 121 -63 137 -127 14 -54
-66 -158 -121 -158 -27 0 -38 -8 -68 -50 -20 -27 -39 -50 -43 -50 -27 -1 -33
-17 -18 -46 8 -16 15 -50 15 -76 0 -42 3 -49 29 -62 37 -19 54 -62 53 -134 0
-50 -4 -59 -29 -79 -15 -13 -50 -30 -77 -38 -43 -13 -52 -13 -81 1 -31 14 -36
14 -74 -5 -22 -12 -56 -21 -76 -21 -33 0 -35 -2 -35 -33 0 -19 -11 -54 -23
-80 -21 -40 -22 -48 -9 -60 20 -21 17 -80 -8 -131 -29 -61 -42 -69 -108 -69
-66 0 -111 18 -128 52 -10 20 -22 25 -66 28 -29 2 -63 11 -76 19 -22 14 -25
14 -38 -3 -7 -10 -14 -21 -14 -25 0 -4 -20 -21 -45 -38 -38 -26 -45 -36 -45
-64 0 -38 -41 -82 -106 -115 l-42 -20 -60 38 c-58 38 -88 83 -76 115 3 7 -12
24 -35 39 -22 15 -48 39 -58 54 -9 16 -18 29 -19 31 -1 2 -15 -3 -32 -12 -16
-8 -51 -17 -77 -19 -39 -4 -51 -9 -61 -29 -17 -33 -66 -52 -131 -52 -63 1 -79
13 -109 79 -28 59 -30 83 -8 113 14 21 14 26 -6 67 -12 25 -22 61 -23 80 -1
33 -3 35 -37 35 -20 0 -53 9 -75 20 -36 18 -42 19 -70 6 -56 -27 -177 24 -191
80 -16 61 17 161 56 171 13 3 19 18 23 60 3 30 13 66 22 80 9 13 15 26 13 27
-2 1 -15 10 -31 19 -15 10 -39 35 -53 57 -22 33 -32 40 -60 40 -38 0 -83 40
-115 102 l-20 39 29 52 c35 62 70 90 111 89 22 0 34 6 42 21 17 32 71 87 86
87 17 0 16 10 -2 34 -8 10 -17 44 -21 75 -5 49 -10 59 -34 73 -47 27 -67 139
-34 187 17 23 106 71 134 71 8 0 27 -7 43 -15 24 -12 32 -12 70 5 23 11 58 20
78 20 33 0 35 2 36 34 1 18 10 54 21 80 20 44 20 48 5 75 -14 24 -15 35 -5 68
31 103 82 135 178 114 44 -10 59 -19 72 -41 14 -24 25 -29 73 -34 31 -4 65
-13 75 -21 24 -18 34 -19 34 -2 0 15 54 69 85 85 12 6 20 22 21 41 2 45 27 77
86 110 56 32 71 31 132 -11z m52 31 c10 -17 -13 -36 -27 -22 -12 12 -4 33 11
33 5 0 12 -5 16 -11z m55 -12 c41 -28 76 -77 89 -128 l11 -39 34 35 c36 35
112 65 168 65 26 0 27 -1 13 -16 -18 -17 -20 -30 -7 -38 5 -3 8 2 7 11 0 10 7
19 17 21 10 2 17 -3 17 -12 0 -10 -21 -26 -54 -40 -33 -15 -57 -32 -61 -45 -5
-16 -15 -21 -40 -21 -19 0 -53 -7 -76 -17 -39 -15 -42 -15 -51 1 -13 23 -60
65 -80 72 -13 4 -18 16 -18 39 0 18 -8 43 -19 56 -16 20 -17 25 -4 37 8 8 12
21 9 28 -8 20 6 17 45 -9z m-678 -96 c4 -4 1 -14 -7 -21 -13 -10 -17 -9 -25
11 l-10 24 0 -22 c-1 -17 -7 -23 -25 -23 -41 0 -73 -17 -92 -49 -13 -23 -21
-28 -31 -20 -7 6 -18 9 -25 6 -8 -4 -7 -6 5 -6 19 -1 23 -26 6 -36 -13 -9 -19
-3 -23 22 -6 29 70 101 125 118 43 14 86 12 102 -4z m1127 -11 c110 -57 178
-201 147 -313 -7 -26 -6 -27 20 -20 45 13 125 7 167 -11 37 -15 38 -17 22 -34
-9 -10 -16 -24 -16 -30 0 -7 -11 -9 -29 -6 -17 4 -42 0 -58 -8 -25 -13 -33
-12 -68 4 -22 9 -55 18 -72 18 -30 0 -33 3 -33 30 0 17 -9 49 -19 71 -18 36
-18 43 -6 73 9 21 12 44 7 62 -12 46 -4 77 19 71 10 -3 17 -1 13 4 -9 14 -34
10 -41 -7 -4 -11 -12 -5 -29 24 -24 39 -46 52 -94 52 -20 0 -25 5 -25 25 0 23
3 25 30 19 17 -4 46 -15 65 -24z m-1330 -135 c8 5 9 -3 5 -28 -5 -23 -2 -45 8
-63 13 -25 13 -33 2 -54 -8 -14 -19 -46 -25 -72 -11 -42 -15 -48 -38 -48 -15
0 -45 -9 -68 -19 -36 -17 -43 -17 -69 -4 -16 9 -40 13 -56 9 -19 -3 -29 -1
-29 6 0 6 -7 19 -16 29 -15 16 -13 19 18 35 36 19 136 25 176 11 22 -8 23 -7
15 15 -14 40 -8 140 11 176 17 32 18 33 36 17 10 -9 24 -14 30 -10z m-283
-270 c-2 -5 -12 -12 -22 -14 -14 -2 -17 2 -12 19 4 18 3 20 -6 11 -9 -9 -9
-16 1 -31 10 -17 8 -21 -18 -35 -32 -17 -50 -49 -50 -91 0 -18 -6 -24 -22 -25
l-23 0 24 -10 c19 -8 21 -12 11 -24 -30 -36 -47 32 -25 95 9 25 36 66 62 92
39 40 48 45 64 35 11 -7 18 -16 16 -22z m2096 -85 c29 -64 36 -180 15 -235 -6
-16 -26 -46 -45 -66 l-34 -36 44 -13 c52 -14 111 -59 132 -101 15 -27 14 -29
-5 -29 -11 0 -23 -7 -26 -15 -5 -12 -11 -11 -35 7 -15 12 -42 21 -59 21 -20 0
-32 6 -35 18 -4 10 -26 35 -50 56 -38 35 -41 41 -30 57 8 10 17 42 21 72 5 41
12 57 30 69 14 9 32 34 41 56 9 22 25 45 37 50 19 8 18 9 -6 6 -15 -2 -25 -1
-22 4 2 4 1 26 -2 49 -6 33 -13 44 -46 64 -29 17 -35 25 -24 29 17 7 22 32 7
41 -5 3 -8 -2 -7 -11 0 -10 -7 -19 -16 -21 -11 -2 -18 3 -18 12 0 8 8 19 18
25 23 13 87 -47 115 -109z m-2318 -511 c0 -22 -27 -16 -36 8 -7 20 -6 21 14
14 12 -5 22 -15 22 -22z m2455 15 c0 -10 -34 -33 -41 -29 -20 13 -9 35 16 33
14 -1 25 -3 25 -4z m-2481 -86 c-19 -38 -19 -38 1 -77 20 -40 20 -40 0 -46
-11 -4 -20 -11 -20 -17 0 -26 -11 2 -20 53 -7 38 -7 70 0 106 l11 53 24 -18
23 -17 -19 -37z m2500 -85 c-10 -51 -21 -64 -34 -43 -3 6 -10 10 -16 10 -5 0
0 -9 11 -20 17 -17 19 -24 9 -43 -36 -70 -90 -114 -162 -131 l-29 -7 32 -32
c35 -35 49 -63 60 -121 10 -50 3 -71 -17 -55 -11 9 -17 9 -26 0 -9 -10 -8 -11
5 -6 13 5 20 0 27 -19 24 -63 -68 -219 -123 -209 -14 3 -27 13 -29 22 -4 14
-5 13 -6 -2 0 -10 9 -21 21 -26 21 -8 20 -10 -22 -31 -47 -24 -121 -32 -173
-17 -26 7 -27 6 -20 -20 15 -53 7 -126 -17 -173 -21 -42 -23 -43 -31 -22 -5
12 -16 21 -26 21 -15 -1 -16 -2 -2 -6 9 -2 19 -15 22 -29 10 -55 -145 -148
-208 -124 -20 8 -25 15 -20 28 5 13 4 14 -6 5 -10 -10 -9 -15 1 -28 14 -17 10
-18 -50 -15 -48 3 -89 22 -127 59 l-32 32 -10 -38 c-17 -59 -47 -101 -97 -133
-37 -23 -51 -27 -66 -19 -21 11 -19 34 3 34 8 0 13 -8 13 -17 -1 -10 2 -15 7
-12 14 8 10 34 -6 40 -13 5 -12 10 5 31 11 14 20 40 20 57 0 24 7 36 29 49 16
9 41 31 55 48 l26 30 45 -16 c25 -8 57 -15 71 -15 16 0 35 -11 50 -29 14 -16
41 -35 60 -41 20 -7 39 -22 44 -34 l9 -21 0 22 c1 17 9 23 41 28 39 7 90 51
90 78 0 6 6 3 13 -7 8 -11 20 -16 28 -13 11 4 10 6 -2 6 -20 1 -29 39 -17 70
5 13 2 37 -6 62 -12 36 -12 44 5 79 10 21 19 53 19 70 0 27 3 30 30 30 17 0
49 9 71 19 38 19 42 19 75 3 26 -12 42 -14 62 -6 37 13 72 6 73 -14 0 -13 2
-14 6 -3 3 8 -2 20 -11 27 -16 11 -16 13 2 18 34 11 62 51 65 92 2 37 4 40 27
37 23 -3 23 -3 4 6 -12 5 -28 27 -37 49 -9 22 -27 49 -41 60 -16 12 -26 30
-26 46 0 14 -7 46 -15 71 l-16 45 30 26 c17 14 39 39 48 55 13 22 25 29 49 29
17 0 43 9 57 20 21 17 26 18 31 5 6 -17 32 -20 40 -6 4 5 -3 7 -15 4 -17 -5
-19 -2 -16 18 1 13 11 38 20 56 20 38 21 69 3 102 -12 22 -11 27 8 42 21 17
21 17 33 -34 9 -39 10 -66 2 -104z m-2473 -54 c10 -17 -13 -36 -27 -22 -12 12
-4 33 11 33 5 0 12 -5 16 -11z m100 -49 c24 0 34 -5 39 -20 4 -12 24 -38 46
-59 l39 -38 -15 -36 c-8 -20 -15 -52 -15 -71 0 -26 -5 -36 -21 -41 -13 -4 -30
-28 -45 -61 -14 -33 -30 -54 -40 -54 -9 0 -14 7 -12 18 2 9 11 16 21 16 9 -1
14 2 11 7 -8 14 -21 11 -40 -8 -16 -17 -17 -15 -10 40 7 68 27 111 68 149 l29
27 -39 10 c-52 14 -101 49 -130 91 l-23 35 25 8 c14 5 26 13 26 19 0 5 12 0
26 -11 15 -12 41 -21 60 -21z m14 -421 c0 -41 13 -60 58 -87 25 -15 29 -21 18
-25 -17 -7 -21 -32 -7 -41 5 -4 7 3 4 14 -4 13 0 20 9 20 22 0 29 -12 17 -27
-9 -10 -8 -13 1 -13 6 0 14 9 17 21 5 16 11 19 34 14 16 -4 39 0 55 8 25 13
32 12 68 -4 23 -10 55 -19 71 -19 26 0 30 -4 32 -30 1 -17 11 -49 21 -73 16
-36 16 -45 5 -67 -8 -14 -12 -40 -9 -57 3 -20 0 -33 -6 -33 -6 0 -20 -7 -30
-16 -17 -16 -19 -15 -35 22 -18 42 -23 135 -10 172 8 21 7 22 -20 15 -15 -4
-50 -7 -78 -7 -111 1 -235 106 -259 219 -6 27 -4 30 19 30 22 0 25 -4 25 -36z
m894 -476 c23 -17 36 -34 36 -48 0 -12 11 -38 24 -58 20 -28 22 -37 10 -41 -8
-3 -14 -15 -14 -26 0 -19 -2 -20 -29 -5 -42 21 -87 80 -101 132 l-13 44 -31
-29 c-42 -40 -83 -59 -136 -63 -44 -4 -45 -3 -44 24 1 15 0 19 -3 8 -11 -50
-127 -21 -199 50 -35 34 -41 46 -33 61 13 23 42 24 37 1 -2 -10 -11 -17 -21
-17 -9 1 -14 -2 -11 -7 9 -15 34 -10 41 7 4 11 12 5 30 -25 20 -34 30 -41 68
-47 37 -5 45 -10 46 -28 l0 -21 9 21 c5 12 24 27 44 34 19 6 46 24 59 39 17
21 36 29 72 34 27 4 58 13 69 21 19 12 23 11 37 -11 9 -13 33 -36 53 -50z m96
-174 c0 -24 -23 -21 -28 4 -2 10 3 17 12 17 10 0 16 -9 16 -21z m136 -9 c39
17 41 17 52 -1 17 -27 17 -26 -40 -38 -39 -9 -65 -9 -104 0 -52 12 -53 12 -36
34 17 23 17 23 53 5 34 -18 37 -18 75 0z"/>
<path d="M1263 2614 c-3 -8 1 -22 9 -30 19 -19 52 3 42 29 -8 21 -43 22 -51 1z
m40 -1 c9 -9 -13 -34 -24 -27 -14 8 -11 34 4 34 8 0 17 -3 20 -7z"/>
<path d="M1103 2574 c-3 -8 2 -23 11 -32 14 -15 18 -15 31 -1 9 9 13 23 9 32
-8 21 -43 22 -51 1z m42 -14 c0 -22 -29 -18 -33 3 -3 14 1 18 15 15 10 -2 18
-10 18 -18z"/>
<path d="M1453 2670 c-34 -21 -70 -67 -59 -77 3 -4 29 4 56 17 l50 23 50 -23
c27 -13 52 -21 54 -19 10 10 -21 55 -53 76 -41 28 -57 29 -98 3z m93 -12 c57
-44 54 -60 -5 -33 -37 16 -43 17 -81 1 -47 -19 -50 -19 -50 -6 0 13 71 60 91
60 9 0 29 -10 45 -22z"/>
<path d="M1400 2542 c-79 -39 -98 -53 -113 -83 -16 -34 -16 -40 3 -130 15 -72
18 -81 15 -39 -4 42 -3 51 6 37 7 -12 17 -16 29 -12 17 5 17 1 -7 -40 -14 -25
-23 -49 -19 -52 3 -3 10 6 16 21 18 47 66 109 120 155 l52 44 65 -64 c35 -35
75 -85 89 -111 30 -59 40 -65 67 -40 35 31 80 51 166 71 l80 18 23 -66 c15
-46 23 -90 23 -143 0 -43 4 -78 8 -78 5 0 6 -3 4 -7 -3 -5 24 -6 59 -5 58 3
116 -8 220 -43 18 -6 -28 -166 -64 -225 -17 -27 -28 -50 -24 -50 4 0 49 14 99
31 134 44 155 81 133 235 -11 87 -9 83 -114 154 -62 43 -119 52 -162 27 -32
-19 -130 -107 -118 -107 6 0 23 14 39 30 16 17 33 30 39 30 6 0 5 -5 -2 -12
-14 -14 -16 -48 -3 -48 5 0 7 9 4 20 -7 25 47 50 109 50 36 0 52 -7 99 -46 56
-45 57 -47 67 -116 6 -40 7 -79 2 -92 -18 -46 -94 -106 -112 -88 -7 7 3 23 35
54 44 41 45 45 41 88 -9 80 -13 88 -66 130 -57 45 -81 47 -147 9 -23 -14 -49
-19 -82 -18 -27 2 -49 4 -49 6 0 2 30 38 66 80 66 75 66 76 62 125 -5 47 -33
99 -100 181 -22 27 -26 28 -135 30 -109 2 -113 1 -139 -24 -16 -16 -40 -65
-60 -120 -18 -52 -33 -87 -34 -79 0 8 -9 26 -20 40 -25 32 -25 37 0 45 43 14
13 153 -40 180 -15 8 -50 23 -79 34 -47 17 -57 18 -90 6 -112 -39 -151 -79
-151 -155 0 -42 -16 -38 -23 6 -11 69 19 105 134 157 l75 35 73 -31 c41 -17
90 -46 109 -64 38 -36 37 -22 17 -193 -4 -39 -3 -37 10 15 34 144 19 178 -109
240 -52 25 -96 45 -98 45 -1 -1 -46 -22 -98 -48z m165 -30 c81 -33 106 -62
113 -130 4 -43 1 -52 -16 -61 -15 -8 -23 -8 -28 1 -4 7 -3 8 5 4 8 -5 10 -1 7
16 -3 12 -8 40 -11 61 -6 34 -12 41 -58 63 -62 28 -82 29 -139 8 -59 -23 -69
-34 -82 -92 -15 -67 -31 -65 -31 3 1 68 23 94 110 129 33 13 60 25 61 25 1 1
32 -12 69 -27z m-1 -52 c48 -20 66 -47 66 -96 0 -24 -5 -21 -67 35 l-68 61
-67 -67 -67 -67 6 40 c9 57 20 74 66 95 53 24 75 24 131 -1z m469 -27 c4 -2
25 -28 46 -56 88 -120 92 -158 25 -238 -77 -91 -74 -89 -74 -39 0 34 3 41 12
32 20 -20 37 -14 54 21 44 85 36 130 -37 210 -42 45 -48 48 -121 59 -75 11
-78 11 -115 -14 -21 -14 -47 -42 -58 -62 -18 -34 -18 -37 -3 -53 16 -16 16
-18 -13 -35 -16 -10 -31 -18 -33 -18 -5 0 41 129 57 159 21 41 61 52 162 45
49 -3 93 -8 98 -11z m-77 -24 c45 -9 65 -19 87 -43 70 -77 81 -121 51 -196
-15 -38 -36 -51 -48 -31 -3 5 0 21 8 37 31 65 29 80 -17 136 -41 51 -46 53
-105 61 -71 9 -95 -2 -127 -55 -17 -30 -16 -29 22 10 40 42 42 43 90 37 74
-10 78 -12 111 -59 34 -47 39 -79 20 -121 -14 -32 -28 -32 -28 -1 0 19 -35
128 -46 144 -2 4 -166 -37 -172 -43 -7 -7 -42 15 -42 26 0 19 42 71 74 90 36
22 44 23 122 8z m359 -288 c28 -16 65 -42 83 -58 29 -25 34 -35 40 -98 16
-151 -4 -185 -131 -228 l-74 -25 28 52 c16 29 35 82 44 118 8 37 18 74 21 82
4 11 -15 21 -87 44 l-93 29 46 15 c50 18 74 11 131 -36 24 -19 29 -33 34 -85
l6 -62 -43 -44 c-68 -69 -32 -106 43 -44 61 50 70 77 56 165 -11 72 -14 76
-63 119 -81 68 -99 72 -204 39 -10 -4 -6 5 11 20 38 35 87 34 152 -3z"/>
<path d="M881 2504 c-27 -45 -35 -79 -24 -99 8 -13 15 -8 42 30 18 25 38 45
44 46 36 2 92 11 96 15 14 14 -33 37 -82 40 -54 3 -56 2 -76 -32z m143 6 c7
-7 1 -10 -16 -10 -60 0 -87 -12 -113 -52 -15 -22 -29 -37 -32 -34 -10 9 27 95
45 106 19 12 101 5 116 -10z"/>
<path d="M1983 2528 c-37 -18 -37 -38 0 -39 18 -1 37 -2 42 -4 6 -1 17 -3 26
-3 8 -1 30 -23 48 -49 28 -40 35 -44 43 -30 11 21 -4 75 -33 111 -16 21 -29
26 -62 25 -23 0 -52 -5 -64 -11z m126 -32 c12 -18 21 -46 21 -62 0 -29 0 -29
-27 13 -27 41 -51 53 -111 53 -29 0 -20 15 13 23 58 14 83 8 104 -27z"/>
<path d="M1007 2453 c-45 -4 -50 -7 -93 -66 -60 -81 -76 -113 -76 -152 0 -41
14 -66 65 -122 53 -57 40 -67 -18 -14 -66 61 -104 75 -155 57 -42 -15 -91 -45
-148 -93 l-33 -28 -2 -107 c-3 -139 5 -151 129 -195 114 -41 121 -41 90 0 -13
17 -30 46 -37 62 -11 28 -50 179 -46 180 71 25 140 40 207 44 l85 6 6 85 c4
68 16 125 44 207 1 3 131 -28 160 -39 17 -6 49 -24 73 -39 23 -16 42 -23 41
-16 0 7 -15 52 -32 101 -40 111 -61 129 -150 132 -34 1 -84 -1 -110 -3z m178
-18 c35 -17 45 -35 80 -137 l24 -67 -34 22 c-30 19 -32 24 -19 38 21 24 18 35
-27 84 -48 52 -75 60 -164 44 -57 -10 -72 -17 -101 -48 -18 -20 -44 -55 -56
-78 l-23 -43 20 -56 c22 -62 46 -87 66 -67 9 9 7 11 -9 6 -17 -4 -24 2 -36 32
-29 68 -21 113 28 176 43 55 45 56 118 69 87 14 117 5 161 -54 52 -67 28 -80
-96 -49 -50 12 -94 19 -98 15 -17 -20 -52 -174 -52 -228 l1 -61 -62 0 c-54 0
-208 -35 -228 -52 -4 -4 3 -48 15 -98 31 -126 16 -151 -54 -93 -54 44 -63 75
-49 160 12 70 13 72 69 116 63 50 101 56 172 28 33 -14 40 -21 35 -37 -4 -15
-2 -17 7 -8 20 20 -6 45 -68 65 l-58 19 -41 -22 c-23 -12 -57 -36 -77 -54 -30
-27 -38 -42 -48 -99 -17 -88 -9 -118 44 -167 49 -45 60 -48 84 -27 14 13 19
11 38 -19 l22 -34 -69 24 c-141 48 -154 67 -144 210 l7 92 66 48 c122 90 154
90 253 4 55 -48 76 -61 62 -37 -4 7 -3 8 4 4 24 -15 11 7 -43 70 -47 55 -55
71 -55 105 0 47 7 61 67 143 44 60 46 61 101 67 103 10 134 9 167 -6z"/>
<path d="M1055 2373 c-43 -5 -82 -35 -116 -90 -17 -27 -18 -38 -10 -70 6 -21
16 -45 22 -53 9 -12 10 -11 4 5 -21 59 -18 95 10 136 34 49 45 54 114 63 53 7
53 7 92 -35 21 -23 39 -39 39 -36 0 19 -74 87 -94 85 -11 -1 -39 -3 -61 -5z"/>
<path d="M704 2052 c-60 -45 -71 -62 -78 -128 l-7 -61 41 -37 c22 -20 43 -36
47 -36 3 0 -13 18 -36 39 -42 39 -42 39 -35 92 9 70 14 78 66 115 35 25 48 29
73 23 17 -4 41 -10 55 -14 l25 -6 -25 14 c-52 30 -83 30 -126 -1z"/>
<path d="M1437 2330 c-55 -59 -97 -143 -97 -193 0 -20 -6 -17 -53 29 -53 51
-119 84 -198 98 l-35 6 -17 -53 c-21 -66 -22 -170 -3 -225 l15 -41 -41 15
c-55 19 -159 18 -225 -3 l-53 -17 6 -35 c14 -79 47 -145 98 -198 46 -47 49
-53 29 -53 -52 0 -135 -43 -196 -100 l-62 -59 49 -49 c26 -27 71 -61 100 -76
53 -27 144 -49 160 -39 9 6 -83 35 -116 36 -9 1 -16 4 -15 7 1 3 -25 32 -58
63 l-60 57 62 59 c35 34 57 62 50 64 -7 2 -1 5 13 5 21 0 106 21 118 28 2 1
-15 21 -37 43 -38 38 -52 71 -87 202 -3 13 12 20 71 34 74 17 154 17 199 -1
16 -6 18 -4 11 12 -29 68 -2 280 34 270 133 -35 161 -48 205 -92 45 -44 46
-45 46 -19 0 14 7 41 15 61 8 19 13 40 11 47 -1 6 -1 9 1 5 3 -4 30 20 62 54
l57 61 46 -44 c25 -24 53 -56 63 -71 9 -15 22 -25 28 -21 5 3 7 1 4 -5 -4 -5
-1 -34 6 -63 8 -29 17 -48 20 -42 9 14 -17 115 -42 164 -21 41 -107 139 -122
139 -4 0 -32 -27 -62 -60z m115 -7 c25 -27 53 -63 63 -81 13 -27 3 -19 -49 35
l-65 68 -60 -60 c-34 -33 -61 -56 -61 -51 0 25 97 136 119 136 4 0 27 -21 53
-47z m-391 -90 c26 -9 57 -24 70 -34 19 -14 10 -13 -60 7 -46 13 -86 22 -90
19 -8 -4 -37 -107 -44 -155 -2 -14 -5 0 -6 31 0 30 6 79 14 107 18 58 17 58
116 25z m-226 -270 c-101 -21 -157 -37 -161 -47 -2 -6 7 -47 21 -91 22 -72 22
-78 5 -55 -19 24 -41 83 -54 142 -6 25 -3 28 41 42 27 8 75 14 108 14 33 0 51
-2 40 -5z m-220 -403 l-59 -60 59 -61 c37 -38 50 -56 35 -49 -36 18 -65 42
-95 79 -26 30 -26 32 -11 56 17 26 104 94 121 95 5 0 -17 -27 -50 -60z"/>
<path d="M1447 2220 c-52 -58 -71 -117 -65 -206 2 -32 -1 -58 -7 -60 -5 -2
-23 23 -39 57 -36 74 -93 125 -164 145 -29 9 -56 13 -59 10 -3 -3 -11 -31 -19
-62 -17 -74 -5 -133 42 -203 18 -29 34 -56 34 -61 0 -6 -74 -30 -94 -30 -2 0
-6 10 -8 23 -2 16 -10 22 -28 23 -14 0 -33 4 -42 8 -21 10 -38 0 -38 -22 0
-14 -2 -13 -13 3 -8 10 -19 15 -25 11 -10 -6 -32 21 -32 39 0 4 31 6 69 3 56
-3 78 -9 121 -36 29 -18 54 -31 56 -29 5 5 -61 48 -99 65 -35 15 -118 15 -169
0 -37 -11 -38 -13 -32 -42 19 -92 69 -153 165 -201 62 -32 56 -49 -15 -41 -85
11 -149 -8 -209 -64 l-52 -48 35 -37 c53 -56 101 -75 197 -75 45 0 85 -4 88
-10 3 -5 -21 -23 -53 -39 -75 -38 -127 -95 -146 -162 -9 -29 -16 -56 -16 -60
0 -13 101 -31 149 -27 44 4 169 63 158 74 -2 3 -28 -10 -57 -28 -47 -29 -61
-33 -119 -32 -88 2 -97 4 -98 25 -2 21 12 33 27 24 8 -5 7 -11 -1 -21 -7 -8
-7 -14 -1 -14 5 0 13 7 16 16 3 8 10 13 15 10 5 -4 17 1 25 10 14 13 16 13 16
1 0 -18 27 -30 43 -20 7 5 23 8 37 8 19 0 26 6 28 24 3 21 7 22 35 16 18 -4
40 -8 50 -8 24 -2 21 -15 -13 -67 -46 -68 -63 -136 -50 -196 16 -72 20 -84 31
-84 6 0 8 4 5 9 -4 5 3 7 13 4 11 -3 45 6 75 20 58 27 96 69 130 146 26 57 42
47 38 -23 -6 -91 13 -149 68 -209 l48 -52 36 35 c58 55 76 103 76 203 0 48 4
87 9 87 6 0 24 -27 42 -60 40 -75 94 -125 151 -140 24 -6 50 -13 59 -16 31 -9
51 132 28 193 -15 39 -60 115 -65 110 -3 -2 10 -28 27 -56 37 -59 49 -137 28
-186 -7 -16 -11 -37 -10 -45 1 -12 0 -12 -7 -2 -5 7 -15 11 -23 9 -8 -2 -11
-2 -8 0 4 2 5 13 2 23 -6 22 7 26 25 8 9 -9 12 -9 12 0 0 7 -7 15 -15 18 -8 4
-13 9 -11 13 3 4 1 13 -4 21 -6 10 -4 20 6 32 10 10 13 22 7 30 -4 7 -8 24 -8
38 0 21 -5 25 -27 25 -24 -1 -27 2 -21 25 3 14 10 33 15 43 5 9 6 22 3 27 -11
18 12 18 41 -1 100 -68 164 -82 259 -57 41 11 44 14 38 37 -23 99 -71 159
-163 206 -28 14 -50 30 -50 35 0 6 37 10 87 10 100 0 147 18 203 75 l34 35
-35 36 c-58 61 -102 78 -201 77 -98 0 -113 12 -49 40 97 43 152 109 175 208 5
24 2 27 -39 39 -75 21 -152 10 -222 -33 -69 -42 -78 -44 -80 -19 -1 9 -5 31
-9 49 -5 28 -3 32 17 35 18 2 24 9 24 28 0 14 4 31 9 39 6 10 3 19 -11 30 -17
14 -18 19 -6 29 7 7 11 17 8 23 -4 5 1 12 9 15 9 3 16 11 16 16 0 6 -6 6 -14
-1 -18 -16 -34 5 -16 22 9 9 16 6 31 -12 32 -39 25 -113 -16 -190 -19 -36 -33
-66 -31 -68 10 -10 69 114 74 154 5 44 -15 153 -28 153 -3 0 -30 -7 -59 -16
-67 -19 -124 -71 -162 -146 -16 -32 -34 -58 -39 -58 -6 0 -10 36 -10 85 0 51
-6 99 -14 119 -14 35 -82 116 -96 116 -5 0 -28 -22 -53 -50z m47 28 c-5 -7 -2
-9 8 -5 11 4 26 -8 47 -33 43 -54 51 -80 51 -168 l0 -77 -24 30 c-20 24 -22
31 -10 38 15 9 19 39 7 51 -4 4 -8 15 -8 24 0 9 -10 21 -23 27 -12 5 -20 15
-18 21 2 6 0 16 -6 22 -8 8 -8 15 0 24 7 9 7 19 2 28 -8 12 -10 10 -10 -8 0
-15 -5 -22 -12 -19 -7 2 -12 12 -11 22 1 12 -2 14 -10 6 -7 -7 -6 -15 3 -26
10 -12 10 -18 0 -30 -6 -8 -9 -18 -6 -24 4 -5 -4 -11 -16 -13 -15 -2 -23 -10
-23 -23 0 -11 -6 -26 -12 -33 -18 -19 -16 -29 7 -45 l20 -14 -20 -18 c-11 -10
-20 -23 -20 -29 0 -6 20 12 45 39 l45 50 45 -50 c25 -27 48 -60 51 -72 4 -13
10 -23 16 -23 5 0 6 5 2 12 -4 6 -3 8 3 5 6 -4 24 0 41 8 16 8 50 21 76 29
l46 14 11 -42 c6 -22 12 -64 12 -92 1 -44 4 -50 19 -46 28 7 149 -19 155 -34
7 -18 -24 -107 -47 -137 l-20 -25 29 -11 c15 -7 50 -32 77 -56 l49 -45 -45
-39 c-25 -22 -56 -46 -70 -53 -14 -7 -27 -13 -29 -15 -1 -1 9 -26 23 -55 14
-29 27 -69 28 -88 l3 -35 -60 -12 c-33 -7 -72 -11 -86 -9 -24 5 -25 2 -26 -42
0 -26 -6 -67 -13 -91 -11 -42 -13 -43 -43 -37 -18 3 -56 18 -85 32 -29 14 -54
24 -55 23 -2 -2 -8 -15 -15 -29 -7 -14 -31 -45 -53 -70 l-39 -45 -45 50 c-24
28 -45 46 -45 41 0 -6 10 -20 22 -33 17 -18 18 -23 6 -23 -22 0 -31 -29 -16
-48 7 -8 12 -24 10 -34 -2 -12 3 -21 15 -24 25 -7 42 -46 29 -67 -7 -12 -7
-20 1 -28 8 -8 11 -7 10 6 -1 10 4 20 10 22 9 3 12 -4 11 -21 -1 -14 -8 -26
-14 -26 -15 0 -59 51 -81 93 -17 33 -23 134 -11 178 5 16 3 32 -5 42 -11 15
-16 15 -62 -8 -27 -13 -66 -27 -86 -30 l-36 -7 -13 66 c-7 36 -10 76 -8 89 4
21 1 23 -46 24 -28 0 -70 6 -93 12 l-42 11 16 53 c8 28 23 66 34 83 l19 31
-48 31 c-26 16 -58 42 -72 57 l-25 27 50 44 c27 24 45 44 39 44 -6 0 -19 -9
-29 -20 l-18 -20 -14 20 c-16 23 -26 25 -45 8 -7 -7 -22 -13 -33 -13 -13 0
-21 -8 -23 -23 -2 -12 -8 -20 -13 -16 -6 3 -16 0 -24 -6 -12 -10 -18 -10 -30
0 -12 10 -18 10 -30 0 -8 -7 -15 -17 -15 -23 0 -6 6 -3 13 8 8 10 19 15 25 11
19 -12 14 -26 -10 -26 -17 0 -19 -3 -10 -12 8 -8 15 -8 27 2 12 10 18 10 30 0
8 -6 19 -9 25 -5 6 3 10 -3 10 -14 0 -12 6 -22 13 -23 6 0 17 -2 23 -2 6 -1
19 -8 29 -16 15 -13 19 -12 34 6 l17 21 30 -23 29 -24 -79 0 c-90 0 -142 19
-191 70 l-29 30 29 30 c59 62 168 90 256 67 34 -9 70 15 51 35 -7 7 -16 13
-20 14 -18 2 -68 27 -107 54 -46 32 -79 77 -91 125 -7 27 -6 29 10 16 9 -8 19
-11 22 -8 10 9 42 -36 37 -50 -6 -14 47 -83 64 -83 7 0 16 7 21 16 6 12 11 6
21 -26 7 -23 15 -40 17 -37 3 3 -4 31 -14 63 -11 33 -18 62 -16 65 7 12 133
31 159 25 23 -6 24 -4 19 23 -5 25 11 133 22 153 5 9 110 -27 143 -48 23 -16
25 -15 38 2 8 11 10 26 6 38 -5 12 -8 50 -7 86 1 71 16 109 65 165 31 34 47
46 33 23z m20 -76 c2 -4 1 -14 -4 -22 -7 -11 -12 -12 -21 -3 -6 6 -8 16 -5 22
8 13 23 14 30 3z m-374 -16 c0 -2 -7 -7 -16 -10 -8 -3 -12 -2 -9 4 6 10 25 14
25 6z m740 -6 c0 -5 -2 -10 -4 -10 -3 0 -8 5 -11 10 -3 6 -1 10 4 10 6 0 11
-4 11 -10z m-656 -27 c39 -20 73 -59 102 -115 26 -52 23 -55 -26 -34 -24 10
-28 15 -16 19 21 8 20 36 -1 44 -10 4 -24 15 -31 25 -8 11 -21 18 -30 16 -23
-3 -61 23 -55 38 2 6 0 15 -6 19 -6 3 -9 0 -5 -8 7 -19 -8 -28 -26 -16 -13 8
-12 12 4 24 21 16 40 13 90 -12z m608 5 c-3 -13 -13 -33 -22 -45 -13 -17 -20
-19 -29 -10 -10 9 -16 7 -29 -8 -9 -12 -25 -24 -34 -28 -22 -8 -23 -33 -3 -44
10 -6 3 -13 -30 -24 l-44 -16 24 47 c34 67 73 110 120 131 51 24 54 24 47 -3z
m-279 -7 c10 -10 1 -31 -14 -31 -5 0 -14 10 -19 23 l-9 22 0 -22 c-1 -13 4
-23 9 -23 6 0 10 -10 10 -21 0 -18 -2 -19 -15 -9 -13 11 -20 9 -38 -9 -21 -19
-25 -19 -43 -7 -14 11 -16 17 -7 26 14 15 36 3 29 -17 -3 -8 -1 -11 4 -8 6 3
10 15 10 25 0 10 5 22 10 25 6 4 8 15 5 25 -5 15 -1 17 27 14 18 -2 36 -8 41
-13z m-77 -2 c10 -17 -13 -36 -27 -22 -12 12 -4 33 11 33 5 0 12 -5 16 -11z
m-336 -45 c15 -26 15 -30 2 -40 -11 -8 -13 -17 -7 -30 5 -10 9 -30 9 -44 1
-18 7 -26 24 -28 23 -3 27 -21 13 -56 -7 -17 -8 -17 -23 5 -43 67 -58 110 -58
169 0 68 12 75 40 24z m40 -5 c0 -24 -23 -21 -28 4 -2 10 3 17 12 17 10 0 16
-9 16 -21z m658 4 c-2 -10 -9 -17 -14 -16 -6 1 -10 -17 -10 -40 0 -22 -6 -43
-12 -45 -7 -2 -12 4 -12 13 0 12 -6 15 -20 10 -26 -8 -26 11 0 25 11 6 27 24
35 40 17 33 39 41 33 13z m-268 -14 c0 -24 -23 -21 -28 4 -2 10 3 17 12 17 10
0 16 -9 16 -21z m-330 -9 c0 -11 -7 -20 -15 -20 -8 0 -15 9 -15 20 0 11 7 20
15 20 8 0 15 -9 15 -20z m546 9 c10 -17 -13 -36 -27 -22 -12 12 -4 33 11 33 5
0 12 -5 16 -11z m-562 -39 c8 0 17 -6 19 -12 3 -8 6 -6 6 5 1 21 41 24 41 2 0
-14 -20 -20 -60 -17 -8 0 -19 -6 -23 -14 -11 -20 -29 -7 -22 16 3 10 1 21 -5
25 -8 5 -7 11 1 22 11 13 14 12 21 -6 4 -12 14 -21 22 -21z m-48 -1 c10 -17
-13 -36 -27 -22 -12 12 -4 33 11 33 5 0 12 -5 16 -11z m567 -4 c1 -5 -6 -11
-15 -13 -11 -2 -18 3 -18 13 0 17 30 18 33 0z m113 4 c10 -17 -13 -36 -27 -22
-12 12 -4 33 11 33 5 0 12 -5 16 -11z m-672 -70 c-8 -14 -34 -11 -34 4 0 8 3
17 7 20 9 9 34 -13 27 -24z m661 11 c0 -7 -10 -17 -23 -21 -13 -5 -21 -5 -19
-1 2 4 7 15 10 25 8 20 32 18 32 -3z m258 -66 c10 -10 -15 -42 -29 -37 -6 2
-15 -1 -19 -7 -5 -8 -13 -6 -26 6 -12 11 -24 14 -36 9 -10 -5 -25 -7 -34 -6
-24 3 -44 -26 -30 -43 10 -12 6 -13 -29 -4 -47 12 -45 16 30 57 43 24 68 31
111 31 31 0 58 -3 62 -6z m46 -25 c-8 -4 -11 -11 -7 -14 12 -12 -23 -90 -55
-123 -28 -30 -125 -88 -132 -80 -1 2 4 18 12 36 11 28 16 32 28 22 18 -15 45
-6 45 14 0 9 9 20 21 26 12 7 18 17 15 27 -7 18 24 61 41 56 6 -2 14 1 18 6 3
6 0 8 -8 5 -8 -3 -18 0 -23 7 -9 15 23 40 43 32 12 -5 12 -7 2 -14z m-1259
-23 c-13 -13 -35 7 -25 24 5 8 11 8 21 -1 10 -8 12 -15 4 -23z m116 3 c10 -17
-13 -36 -27 -22 -12 12 -4 33 11 33 5 0 12 -5 16 -11z m1020 0 c10 -17 -13
-36 -27 -22 -12 12 -4 33 11 33 5 0 12 -5 16 -11z m-1085 -11 c1 -7 1 -16 1
-19 -1 -3 17 -5 39 -4 42 3 59 -8 35 -22 -8 -4 -14 -15 -14 -23 3 -39 -3 -60
-16 -60 -25 0 -27 30 -3 40 12 5 16 9 10 9 -7 1 -13 8 -13 16 0 8 -16 22 -35
31 -35 16 -41 25 -28 37 10 11 23 8 24 -5z m119 -2 c0 -20 -19 -31 -32 -18 -6
6 -7 15 -4 21 10 16 36 13 36 -3z m910 1 c0 -8 -3 -17 -7 -20 -9 -9 -34 13
-27 24 8 14 34 11 34 -4z m117 -4 c2 -6 -12 -18 -32 -27 -19 -9 -35 -23 -35
-30 0 -8 -7 -16 -15 -20 -10 -3 -15 1 -15 14 0 10 -5 22 -10 25 -15 9 -2 25
15 18 9 -3 22 0 30 7 10 9 15 9 15 1 0 -6 5 -11 11 -11 5 0 7 5 4 10 -3 6 -3
15 0 21 8 12 27 7 32 -8z m-1121 -54 c10 -17 -13 -36 -27 -22 -12 12 -4 33 11
33 5 0 12 -5 16 -11z m1100 0 c7 -12 -15 -31 -28 -23 -4 3 -8 12 -8 20 0 17
26 19 36 3z m-36 -43 c0 -20 -19 -31 -32 -18 -6 6 -7 15 -4 21 10 16 36 13 36
-3z m87 -139 c57 -15 133 -70 132 -95 0 -12 -3 -10 -9 6 -10 23 -34 30 -45 12
-5 -8 -11 -8 -20 0 -7 6 -20 8 -29 4 -11 -4 -15 -2 -11 8 6 16 -21 45 -32 34
-3 -3 -14 1 -23 9 -19 17 -50 10 -50 -11 0 -11 -8 -9 -31 8 -30 23 -31 23 -7
29 37 11 70 10 125 -4z m-1158 -34 c7 -14 5 -23 -11 -40 -17 -19 -19 -25 -8
-38 10 -12 10 -15 -2 -15 -16 0 -68 23 -68 30 0 7 51 30 66 30 7 0 16 4 19 10
3 5 0 7 -8 4 -17 -6 -31 11 -22 26 9 15 23 12 34 -7z m1117 5 c4 -6 -2 -18
-12 -26 -12 -9 -13 -13 -4 -10 8 3 21 -2 29 -9 7 -8 20 -12 27 -9 8 3 14 -1
14 -9 0 -8 -9 -15 -19 -15 -11 0 -23 -4 -26 -10 -3 -5 -13 -10 -22 -10 -13 0
-13 3 -3 15 10 12 10 18 -1 31 -22 26 -21 64 1 64 5 0 12 -5 16 -12z m-1170
-19 c10 -17 -13 -36 -27 -22 -12 12 -4 33 11 33 5 0 12 -5 16 -11z m1220 0
c10 -17 -13 -36 -27 -22 -12 12 -4 33 11 33 5 0 12 -5 16 -11z m-1263 -46 c-3
-7 6 -17 22 -23 15 -6 25 -15 23 -22 -8 -23 -28 -19 -38 6 -6 16 -17 26 -30
26 -19 0 -26 11 -14 23 11 11 42 3 37 -10z m1315 -1 c2 -7 -6 -12 -18 -12 -12
0 -18 -5 -15 -10 4 -6 13 -7 24 -1 10 6 23 6 31 1 8 -5 19 -6 25 -3 5 4 1 -4
-10 -16 -28 -32 -88 -61 -126 -61 -31 0 -32 1 -15 19 10 11 23 17 30 15 16 -6
39 21 33 38 -6 18 12 50 26 45 6 -2 13 -9 15 -15z m52 3 c0 -8 -7 -15 -15 -15
-16 0 -20 12 -8 23 11 12 23 8 23 -8z m-104 -36 c10 -17 -13 -36 -27 -22 -12
12 -4 33 11 33 5 0 12 -5 16 -11z m-1170 -20 c7 -12 -15 -31 -28 -23 -4 3 -8
12 -8 20 0 17 26 19 36 3z m1119 -9 c0 -22 -29 -18 -33 3 -3 14 1 18 15 15 10
-2 18 -10 18 -18z m-25 -32 c0 -5 -19 -8 -42 -8 l-43 0 30 24 c27 22 31 22 42
7 7 -9 13 -19 13 -23z m-1018 -92 c-14 -39 -18 -42 -28 -28 -10 13 -17 14 -29
7 -9 -5 -17 -14 -17 -20 0 -5 -9 -16 -20 -24 -12 -8 -18 -21 -15 -33 3 -11 0
-21 -9 -25 -8 -3 -14 -10 -14 -17 0 -6 -11 -11 -25 -11 -20 0 -24 4 -19 20 20
64 53 100 134 144 30 17 56 31 56 31 1 0 -6 -20 -14 -44z m1082 -79 c15 -25
29 -58 29 -74 1 -15 6 -32 12 -36 6 -6 4 -7 -5 -4 -9 3 -24 -1 -35 -9 -22 -17
-102 -18 -142 -3 -15 5 -48 22 -73 37 l-45 26 40 11 c22 7 48 10 58 7 21 -5
23 -42 2 -42 -14 0 -20 13 -15 35 1 6 -4 5 -11 -2 -18 -17 8 -46 35 -39 11 3
26 0 33 -6 10 -8 18 -7 31 5 12 11 22 13 35 6 9 -6 17 -7 17 -3 0 4 6 -1 14
-12 8 -10 18 -16 22 -11 4 4 2 7 -4 7 -7 0 -12 7 -12 16 0 11 6 15 20 11 11
-3 18 -1 14 4 -3 5 -10 9 -16 9 -5 0 -20 8 -33 19 -19 14 -21 21 -12 30 9 10
7 16 -8 29 -12 9 -24 25 -28 35 -7 18 -32 23 -41 8 -4 -5 3 -7 14 -4 26 7 27
-22 3 -36 -10 -6 -13 -11 -7 -11 7 0 14 -9 17 -20 3 -11 12 -20 21 -20 14 0
15 -2 4 -14 -9 -10 -17 -11 -25 -4 -7 6 -19 8 -28 5 -17 -7 -32 12 -18 22 15
9 24 59 13 66 -8 5 -40 69 -40 81 0 2 30 -14 68 -35 49 -28 75 -50 96 -84z
m-1114 39 c0 -21 -21 -31 -30 -15 -5 7 -6 17 -4 21 9 14 34 9 34 -6z m-34 -37
c10 -17 -13 -36 -27 -22 -12 12 -4 33 11 33 5 0 12 -5 16 -11z m39 -9 c-5 -14
-2 -20 10 -20 9 0 15 -5 13 -12 -2 -6 -23 -12 -45 -12 -23 0 -41 -4 -40 -10 1
-5 -6 -12 -15 -14 -29 -6 -21 16 12 33 16 8 34 24 40 35 14 26 33 26 25 0z
m1060 0 c0 -8 -8 -16 -17 -18 -13 -2 -18 3 -18 18 0 15 5 20 18 18 9 -2 17
-10 17 -18z m-1004 -52 c-9 -25 -32 -31 -39 -10 -3 9 16 23 45 31 1 1 -1 -9
-6 -21z m1027 -6 c2 -7 -6 -12 -17 -12 -21 0 -27 11 -14 24 9 9 26 2 31 -12z
m-1082 -3 c10 -17 -13 -36 -27 -22 -12 12 -4 33 11 33 5 0 12 -5 16 -11z
m1019 -9 c0 -22 -29 -18 -33 3 -3 14 1 18 15 15 10 -2 18 -10 18 -18z m-842
-88 c-6 -4 -1 -19 11 -37 22 -31 60 -40 87 -19 19 14 69 35 69 28 0 -18 -54
-104 -82 -131 -44 -42 -102 -67 -127 -54 -10 6 -22 7 -26 3 -4 -4 -2 3 4 16
14 25 37 24 35 -1 -1 -9 2 -14 8 -11 5 3 7 11 5 17 -5 17 38 48 57 41 10 -4
18 0 22 11 4 9 17 21 30 26 24 8 32 33 15 43 -5 3 -8 -2 -7 -11 0 -10 -7 -19
-16 -21 -12 -2 -18 3 -18 15 0 11 -3 14 -8 7 -4 -6 -15 -13 -24 -17 -10 -3
-18 -14 -18 -23 0 -14 -3 -14 -15 -4 -10 8 -12 17 -6 24 5 6 9 23 9 37 0 22
-4 25 -21 21 -17 -4 -19 -1 -15 16 4 13 2 20 -4 16 -5 -3 -8 -15 -5 -25 3 -10
1 -22 -4 -25 -15 -9 -10 -41 7 -48 13 -5 14 -9 4 -21 -7 -9 -10 -18 -7 -22 7
-6 -22 -32 -35 -33 -5 0 -8 27 -8 60 0 59 15 102 59 169 l16 25 9 -33 c6 -21
6 -35 -1 -39z m667 -27 c0 -8 -9 -15 -20 -15 -11 0 -20 7 -20 15 0 8 9 15 20
15 11 0 20 -7 20 -15z m-156 -15 c22 -8 26 -14 18 -22 -17 -17 -15 -38 6 -45
9 -4 25 -16 34 -28 13 -15 19 -17 29 -8 9 9 16 7 30 -12 21 -25 25 -55 9 -55
-25 0 -91 42 -113 72 -36 48 -70 118 -55 113 7 -2 26 -9 42 -15z m-113 -188
c-27 -52 -45 -67 -60 -48 -9 11 -10 20 -1 35 6 12 7 21 3 21 -4 0 3 6 17 13
14 7 25 19 25 27 1 8 6 25 13 37 11 19 10 24 -7 35 -19 11 -19 12 3 41 l21 29
3 -76 c2 -59 -1 -83 -17 -114z m231 164 c-2 -10 2 -24 9 -32 8 -10 8 -14 0
-14 -6 0 -11 -4 -11 -10 0 -5 7 -7 15 -4 10 4 15 0 15 -15 0 -32 -19 -25 -36
14 -8 19 -20 35 -28 35 -8 0 -16 7 -20 15 -4 10 1 15 14 15 11 0 20 5 20 11 0
6 6 9 13 6 6 -2 11 -12 9 -21z m-636 -7 c10 -17 -13 -36 -27 -22 -12 12 -4 33
11 33 5 0 12 -5 16 -11z m568 -4 c3 -9 -1 -18 -10 -22 -19 -7 -28 2 -21 22 8
19 23 19 31 0z m111 -5 c0 -22 -29 -18 -33 3 -3 14 1 18 15 15 10 -2 18 -10
18 -18z m-611 -28 c8 -13 -11 -35 -23 -28 -16 10 -14 36 3 36 8 0 17 -4 20 -8z
m541 -12 c0 -22 -29 -18 -33 3 -3 14 1 18 15 15 10 -2 18 -10 18 -18z m-329
-1 c10 -17 -13 -36 -27 -22 -12 12 -4 33 11 33 5 0 12 -5 16 -11z m118 3 c8
-13 -11 -35 -23 -28 -16 10 -14 36 3 36 8 0 17 -4 20 -8z m-394 -22 c0 -21
-15 -27 -25 -10 -7 12 2 30 16 30 5 0 9 -9 9 -20z m335 10 c12 10 15 10 15 -3
0 -9 -4 -19 -10 -22 -5 -3 -10 -15 -10 -26 0 -10 -7 -19 -15 -19 -8 0 -12 6
-9 13 3 8 -2 19 -10 26 -8 7 -12 19 -9 27 4 11 9 12 19 3 11 -9 18 -8 29 1z
m-39 -58 c1 -18 -2 -20 -17 -11 -20 10 -24 21 -12 33 12 12 28 0 29 -22z m82
10 c2 -7 -8 -16 -22 -22 -16 -6 -26 -17 -26 -30 0 -22 -15 -27 -26 -9 -4 7 2
19 13 28 11 9 23 24 27 34 6 20 27 19 34 -1z"/>
<path d="M1462 1966 c-18 -25 -36 -62 -39 -81 -7 -43 -26 -45 -59 -6 -24 29
-109 70 -120 58 -21 -20 -14 -155 6 -142 6 4 6 -3 1 -17 -6 -17 -15 -22 -32
-19 -40 6 -148 6 -155 -1 -12 -12 19 -81 53 -119 39 -43 37 -54 -8 -63 -17 -3
-51 -20 -76 -38 l-45 -33 36 -32 c19 -18 55 -38 81 -44 25 -6 45 -17 45 -23 0
-7 -13 -25 -30 -41 -31 -30 -68 -110 -56 -123 7 -7 107 -7 156 0 22 3 24 0 21
-22 -6 -38 -6 -149 0 -154 11 -12 84 20 117 51 40 38 62 42 62 13 0 -28 33
-90 60 -115 l22 -20 29 35 c17 19 35 54 41 78 6 23 15 42 21 42 6 0 25 -14 43
-31 36 -35 104 -62 119 -48 9 9 11 93 3 149 -3 27 -5 27 82 15 25 -4 57 -2 73
4 l27 11 -16 42 c-9 24 -29 55 -45 70 -40 38 -37 54 14 66 23 6 58 25 77 42
l35 30 -38 34 c-24 21 -54 37 -78 41 -21 4 -39 12 -39 19 0 7 15 29 33 48 28
30 63 105 53 115 -1 2 -23 6 -49 9 -51 7 -101 -2 -92 -16 4 -6 -3 -6 -17 -1
-17 6 -22 15 -20 32 8 56 5 140 -5 150 -15 15 -89 -19 -122 -55 -34 -37 -47
-33 -60 19 -6 26 -26 62 -44 81 l-32 36 -33 -46z m71 -13 c22 -33 26 -47 23
-100 -2 -33 0 -66 4 -73 13 -21 47 -2 53 30 10 47 97 81 111 44 13 -34 6 -84
-14 -101 -28 -25 -27 -63 3 -63 12 0 28 9 35 20 9 15 23 20 55 20 23 0 48 -4
56 -9 30 -19 -20 -111 -60 -111 -23 0 -44 -36 -28 -46 16 -9 118 -11 113 -2
-8 13 46 -11 79 -34 l30 -22 -38 -33 c-49 -42 -81 -45 -41 -4 27 28 27 30 11
55 -10 14 -22 26 -28 26 -5 0 -3 -8 6 -18 24 -26 21 -47 -10 -72 -22 -17 -37
-21 -69 -16 -24 3 -45 1 -52 -6 -17 -17 3 -44 38 -52 23 -4 35 -14 45 -41 22
-51 19 -63 -17 -74 -18 -5 -25 -10 -15 -10 48 -2 70 36 47 80 -20 37 7 19 28
-20 31 -54 28 -68 -14 -75 -41 -8 -97 1 -88 15 3 5 -2 9 -10 9 -9 0 -25 9 -36
20 -11 11 -29 20 -40 20 -13 0 -20 -7 -20 -20 0 -11 9 -29 20 -40 32 -32 24
-120 -12 -120 -37 0 -77 29 -86 63 -9 33 -38 49 -52 27 -4 -6 -6 -37 -5 -68 2
-60 -10 -95 -43 -125 -19 -18 -20 -17 -41 11 -22 32 -46 86 -33 78 9 -5 7 97
-2 113 -10 16 -46 -5 -46 -28 0 -10 -9 -26 -20 -36 -10 -9 -18 -22 -17 -28 3
-13 -61 -57 -83 -57 -10 0 -20 10 -24 22 -9 36 -7 78 4 78 6 0 10 -8 10 -18 0
-37 46 -55 80 -31 11 7 6 8 -19 4 -41 -9 -51 3 -51 62 0 32 5 46 20 55 11 7
20 23 20 35 0 30 -38 31 -63 3 -17 -20 -67 -27 -101 -14 -37 14 -3 101 44 111
32 6 51 40 30 53 -7 4 -40 6 -73 4 -53 -3 -68 1 -100 22 -44 29 -43 40 3 72
45 30 55 28 29 -7 -21 -29 -21 -31 -5 -55 9 -15 22 -26 28 -26 6 0 1 11 -11
24 -20 21 -21 27 -10 45 18 27 62 45 98 38 33 -7 55 11 46 36 -4 8 -19 17 -35
21 -47 9 -81 96 -44 110 34 13 83 6 103 -15 22 -24 54 -22 59 3 2 9 -6 26 -17
37 -21 21 -28 72 -15 105 14 37 101 3 110 -44 4 -16 13 -31 21 -35 25 -9 43
13 36 46 -7 36 11 80 38 98 18 11 24 10 45 -10 13 -12 24 -18 24 -12 0 6 -11
18 -25 27 -29 19 -54 11 -79 -26 -21 -29 -20 -16 0 25 18 36 43 67 54 67 4 0
19 -17 33 -37z m-196 -62 c28 -20 30 -36 4 -21 -11 5 -31 10 -46 10 -20 0 -27
-6 -31 -30 -4 -16 -10 -30 -15 -30 -10 0 -12 54 -3 87 5 19 9 20 37 10 18 -5
42 -17 54 -26z m417 -3 c3 -24 2 -56 -3 -73 l-9 -30 -1 31 c-1 16 -7 39 -15
49 -13 18 -19 18 -56 8 -35 -9 -40 -9 -29 3 14 13 88 53 100 54 4 0 10 -19 13
-42z m-324 -102 c-12 -12 -25 0 -34 31 -5 16 -2 22 11 25 21 4 39 -40 23 -56z
m171 26 c-7 -27 -37 -39 -35 -14 1 6 2 21 3 31 1 14 7 18 20 14 15 -4 17 -10
12 -31z m142 -94 c-18 -20 -43 -24 -43 -7 0 5 8 21 17 33 16 21 19 22 30 7 9
-13 8 -20 -4 -33z m-563 32 c0 -5 -8 -10 -19 -10 -33 0 -46 -27 -34 -71 14
-51 -6 -37 -36 26 -26 55 -26 53 2 58 43 8 87 7 87 -3z m105 -10 c14 -16 16
-23 7 -32 -10 -10 -17 -7 -33 9 -12 11 -18 26 -15 32 10 16 21 14 41 -9z m613
14 c28 -8 28 -26 0 -75 -21 -39 -48 -57 -28 -20 19 36 12 62 -20 74 -16 6 -30
15 -30 19 0 9 45 10 78 2z m-683 -165 c15 -14 -7 -28 -36 -22 -20 4 -25 9 -22
24 4 15 11 18 27 13 11 -3 25 -10 31 -15z m628 2 c3 -15 -2 -20 -22 -24 -14
-3 -29 -3 -33 0 -16 9 -7 32 15 36 12 2 25 5 28 6 4 0 9 -8 12 -18z m-629
-159 c7 -12 -7 -28 -31 -34 -15 -4 -23 0 -26 13 -3 12 2 19 17 22 11 2 24 5
28 6 4 0 9 -3 12 -7z m621 -2 c8 0 11 -7 8 -20 -4 -16 -11 -19 -27 -14 -11 3
-25 10 -30 14 -12 12 4 32 21 26 8 -3 21 -6 28 -6z m-705 -79 c-27 -52 -3 -90
57 -92 l28 -1 -30 -9 c-26 -8 -115 -3 -115 7 0 9 26 62 43 87 21 31 33 36 17
8z m170 -64 c0 -8 -9 -22 -20 -32 -16 -14 -22 -15 -35 -5 -13 11 -12 14 8 31
26 22 47 24 47 6z m444 -4 c20 -15 21 -18 7 -33 -15 -14 -18 -14 -33 6 -33 41
-16 59 26 27z m-310 -81 c-1 -7 -2 -21 -2 -31 -2 -14 -7 -18 -22 -14 -23 6
-23 4 -10 38 10 26 36 31 34 7z m166 -8 c13 -33 13 -31 -9 -37 -15 -3 -20 2
-24 22 -9 46 17 58 33 15z m154 -78 c-6 -36 -8 -38 -36 -32 -31 6 -93 45 -84
53 2 2 13 0 24 -6 49 -26 81 -4 83 56 l1 28 9 -30 c5 -16 6 -47 3 -69z"/>
<path d="M1487 1873 c-13 -13 -7 -63 7 -63 21 0 29 17 22 46 -6 24 -17 30 -29
17z m23 -28 c0 -8 -4 -15 -10 -15 -5 0 -10 7 -10 15 0 8 5 15 10 15 6 0 10 -7
10 -15z"/>
<path d="M1304 1815 c-7 -18 12 -45 32 -45 17 0 18 32 2 48 -16 16 -27 15 -34
-3z m36 -20 c0 -8 -4 -15 -9 -15 -5 0 -11 7 -15 15 -3 9 0 15 9 15 8 0 15 -7
15 -15z"/>
<path d="M1656 1808 c-18 -25 -7 -44 18 -35 17 7 23 57 7 57 -6 0 -17 -10 -25
-22z m24 -13 c0 -8 -4 -15 -10 -15 -5 0 -10 7 -10 15 0 8 5 15 10 15 6 0 10
-7 10 -15z"/>
<path d="M1476 1761 c-21 -23 -20 -81 3 -151 l18 -55 12 30 c18 43 35 140 28
158 -3 9 -15 20 -25 26 -15 8 -23 6 -36 -8z m44 -5 c0 -2 3 -13 7 -23 6 -16 5
-16 -11 -4 -14 12 -19 12 -29 1 -9 -10 -9 -11 2 -5 15 9 31 -10 31 -37 0 -12
-8 -18 -22 -19 l-23 -2 23 -4 c25 -5 26 -11 11 -50 l-11 -28 -9 23 c-11 28
-19 139 -11 146 6 7 42 8 42 2z"/>
<path d="M1350 1720 c-14 -27 5 -62 69 -125 57 -55 61 -50 32 45 -29 93 -75
129 -101 80z m59 -4 c10 -12 8 -13 -8 -9 -15 4 -23 -1 -30 -18 -9 -23 -10 -22
-10 9 -1 25 3 32 18 32 10 0 24 -6 30 -14z m6 -33 c18 -17 28 -39 39 -88 l8
-30 -32 30 c-27 26 -29 31 -15 41 8 6 15 15 15 19 0 4 -7 2 -15 -5 -19 -16
-35 -4 -35 26 0 28 12 31 35 7z"/>
<path d="M1571 1703 c-23 -47 -52 -153 -41 -153 4 0 33 28 64 61 48 51 57 66
54 93 -2 25 -8 32 -30 34 -23 3 -30 -3 -47 -35z m67 -3 c3 -24 3 -24 -11 -6
-7 10 -20 16 -28 13 -10 -4 -9 -6 4 -6 20 -1 23 -33 4 -49 -19 -16 -42 2 -32
24 5 11 9 21 9 24 8 37 49 37 54 0z m-48 -73 c0 -13 -30 -47 -42 -47 -7 0 -1
44 9 62 5 10 33 -2 33 -15z"/>
<path d="M1175 1690 c-9 -15 14 -40 36 -40 21 0 25 20 7 38 -15 15 -35 15 -43
2z m45 -21 c0 -5 -7 -9 -15 -9 -8 0 -15 7 -15 15 0 9 6 12 15 9 8 -4 15 -10
15 -15z"/>
<path d="M1777 1682 c-10 -10 -14 -22 -10 -25 13 -13 42 -7 52 12 18 33 -15
43 -42 13z m28 -12 c-3 -5 -10 -10 -16 -10 -5 0 -9 5 -9 10 0 6 7 10 16 10 8
0 12 -4 9 -10z"/>
<path d="M1275 1647 c-13 -10 -16 -21 -11 -40 5 -20 18 -30 59 -46 30 -10 71
-23 93 -26 l39 -7 -50 52 c-41 43 -91 80 -108 80 -2 0 -11 -6 -22 -13z m38
-17 c-13 -5 -22 -17 -22 -27 1 -17 2 -17 6 0 3 10 14 17 28 17 29 0 41 -16 25
-35 -7 -8 -9 -15 -5 -15 4 0 13 7 19 15 10 14 15 12 41 -15 l30 -32 -30 8
c-16 3 -46 14 -65 22 -19 8 -37 16 -40 16 -17 4 -30 20 -30 37 0 15 7 19 33
18 29 0 30 -1 10 -9z"/>
<path d="M1665 1641 c-46 -29 -122 -111 -103 -111 30 0 140 38 159 56 24 22
24 50 0 64 -25 13 -21 13 -56 -9z m62 -17 c3 -9 -2 -23 -12 -32 -16 -16 -17
-16 -10 6 5 17 1 24 -17 31 -22 10 -22 10 5 10 16 1 30 -5 34 -15z m-27 -13
c0 -5 -7 -17 -16 -26 -15 -14 -19 -15 -32 -2 -8 8 -11 20 -8 26 9 13 56 15 56
2z m-62 -52 c-7 -3 -26 -10 -43 -13 l-30 -8 30 32 c27 29 31 30 42 13 11 -14
11 -18 1 -24z"/>
<path d="M1237 1523 c-17 -19 -17 -21 2 -44 18 -23 21 -23 82 -12 35 6 78 16
94 23 l30 12 -40 14 c-22 8 -65 17 -95 21 -47 4 -58 2 -73 -14z m76 -3 c10 0
17 -8 17 -19 0 -13 -9 -20 -32 -24 -42 -6 -58 1 -58 22 0 25 11 33 35 27 11
-3 28 -6 38 -6z m77 -10 l25 -7 -28 -12 c-39 -15 -47 -14 -47 9 0 21 9 23 50
10z"/>
<path d="M1264 1509 c-3 -6 -2 -15 3 -20 5 -5 9 -1 9 11 0 23 -2 24 -12 9z"/>
<path d="M1613 1523 c-29 -8 -53 -19 -53 -23 0 -11 133 -42 165 -38 35 4 54
31 39 56 -15 23 -84 25 -151 5z m144 -7 c9 -9 -9 -38 -28 -45 -12 -4 -12 -2 0
13 11 12 11 19 3 27 -7 5 -10 6 -7 3 8 -12 -16 -34 -36 -34 -13 0 -19 8 -20
23 -2 22 -2 22 -6 -1 -4 -19 -9 -23 -26 -18 -12 3 -28 6 -34 6 -7 0 -13 4 -13
9 0 20 149 35 167 17z"/>
<path d="M1124 1509 c-3 -6 0 -15 7 -20 21 -14 53 -6 57 14 3 13 -3 17 -27 17
-16 0 -33 -5 -37 -11z m46 -9 c0 -5 -7 -10 -15 -10 -8 0 -15 5 -15 10 0 6 7
10 15 10 8 0 15 -4 15 -10z"/>
<path d="M1812 1503 c4 -22 34 -29 54 -12 18 15 2 29 -34 29 -17 0 -23 -5 -20
-17z m48 -3 c0 -5 -9 -10 -20 -10 -11 0 -20 5 -20 10 0 6 9 10 20 10 11 0 20
-4 20 -10z"/>
<path d="M1490 1500 c0 -5 5 -10 10 -10 6 0 10 5 10 10 0 6 -4 10 -10 10 -5 0
-10 -4 -10 -10z"/>
<path d="M1365 1456 c-74 -23 -105 -44 -105 -72 0 -56 63 -42 139 31 51 50 54
55 31 54 -14 0 -43 -6 -65 -13z m55 -3 c0 -3 -7 -15 -17 -25 -17 -19 -43 -24
-43 -8 0 6 0 13 -1 18 0 4 10 10 23 14 32 9 38 9 38 1z m-75 -49 c0 -26 -45
-33 -46 -7 0 13 -2 14 -6 4 -3 -8 2 -20 13 -28 16 -12 16 -13 -9 -13 -31 0
-38 29 -12 50 8 7 15 9 15 4 0 -4 5 -3 12 4 17 17 33 10 33 -14z"/>
<path d="M1595 1419 c57 -59 101 -82 127 -68 46 25 2 78 -85 104 -91 27 -97
21 -42 -36z m27 28 c23 -10 25 -14 14 -29 -12 -16 -15 -15 -41 12 -31 32 -21
38 27 17z m67 -36 c12 -21 5 -31 -20 -31 -22 0 -33 16 -25 35 8 21 33 19 45
-4z m38 -36 c-2 -5 -17 -11 -33 -12 -27 -3 -28 -2 -6 7 18 8 22 15 17 32 -6
22 -6 23 10 3 8 -10 14 -24 12 -30z"/>
<path d="M1414 1398 c-65 -67 -78 -91 -64 -118 13 -25 42 -26 63 -2 18 20 59
138 55 159 -2 9 -22 -5 -54 -39z m35 -11 c-9 -33 -12 -36 -31 -26 -20 11 -20
11 8 40 15 16 29 27 30 26 2 -2 -1 -20 -7 -40z m-30 -41 c9 -11 8 -18 -4 -30
-23 -22 -35 -20 -35 7 0 37 18 48 39 23z m-17 -51 c22 6 22 6 4 -9 -31 -25
-46 -20 -45 17 0 30 1 30 10 9 7 -18 14 -22 31 -17z"/>
<path d="M1536 1398 c22 -86 45 -128 72 -135 27 -6 42 9 42 44 0 21 -102 143
-120 143 -5 0 -2 -24 6 -52z m46 -35 c-16 -13 -15 -13 6 -8 24 7 39 -13 28
-40 -13 -36 -54 17 -73 94 l-6 26 31 -29 c29 -27 30 -30 14 -43z m58 -58 c0
-31 -26 -43 -47 -22 -15 15 -14 15 6 10 17 -4 24 -1 28 16 7 28 13 27 13 -4z"/>
<path d="M1476 1382 c-28 -102 -17 -159 31 -150 31 6 37 48 19 131 -10 43 -21
77 -25 77 -5 0 -16 -26 -25 -58z m39 -14 c6 -24 4 -28 -16 -29 -22 -2 -22 -2
-3 -6 28 -5 41 -60 20 -82 -25 -24 -43 1 -40 54 6 100 23 128 39 63z"/>
<path d="M1505 1281 c-3 -6 -12 -8 -18 -5 -8 5 -8 3 1 -7 9 -10 15 -10 24 -1
6 6 9 14 6 17 -3 4 -9 1 -13 -4z"/>
<path d="M1189 1340 c-20 -16 -22 -21 -10 -29 18 -12 51 4 51 24 0 24 -17 26
-41 5z m31 -10 c0 -5 -7 -10 -15 -10 -8 0 -15 5 -15 10 0 6 7 10 15 10 8 0 15
-4 15 -10z"/>
<path d="M1770 1345 c-8 -10 -6 -17 11 -28 28 -20 52 -12 39 13 -13 24 -36 32
-50 15z m40 -15 c0 -5 -7 -10 -15 -10 -8 0 -15 5 -15 10 0 6 7 10 15 10 8 0
15 -4 15 -10z"/>
<path d="M1652 1227 c-9 -10 -7 -19 4 -35 20 -29 34 -28 34 2 0 31 -23 51 -38
33z m28 -22 c0 -8 -4 -15 -9 -15 -5 0 -11 7 -15 15 -3 9 0 15 9 15 8 0 15 -7
15 -15z"/>
<path d="M1310 1215 c-7 -8 -10 -22 -6 -30 8 -22 46 -1 46 25 0 24 -22 26 -40
5z m30 -4 c0 -6 -4 -13 -10 -16 -5 -3 -10 1 -10 9 0 9 5 16 10 16 6 0 10 -4
10 -9z"/>
<path d="M1480 1168 c0 -36 14 -52 29 -34 17 20 10 50 -12 54 -12 3 -17 -3
-17 -20z m30 -14 c0 -8 -4 -14 -10 -14 -5 0 -10 9 -10 21 0 11 5 17 10 14 6
-3 10 -13 10 -21z"/>
<path d="M1450 1103 c0 -6 12 -18 26 -28 26 -17 27 -16 53 11 l26 27 -29 -22
-29 -21 -24 22 c-12 12 -23 17 -23 11z"/>
<path d="M1870 2256 c-64 -18 -106 -42 -156 -88 -57 -52 -57 -68 0 -24 27 20
71 40 112 51 67 18 109 34 89 35 -5 0 -46 -11 -90 -25 -72 -22 -78 -22 -55 -5
24 19 83 41 142 54 23 5 28 2 38 -27 6 -17 13 -68 15 -112 3 -44 2 -71 -1 -60
-3 11 -12 51 -21 90 -9 38 -18 65 -20 59 -2 -6 3 -37 12 -69 18 -72 19 -118 0
-168 -13 -38 -13 -39 8 -32 56 17 123 17 197 0 l78 -18 -19 -70 c-25 -89 -32
-103 -82 -154 l-41 -43 29 0 c47 -1 108 -33 169 -92 l57 -54 -70 -67 c-67 -63
-113 -87 -165 -87 -16 0 -14 -6 16 -32 43 -40 59 -71 88 -166 12 -41 23 -72
25 -70 4 3 -27 117 -40 151 -4 9 -4 17 -1 17 11 0 49 -85 61 -136 l12 -51 -31
-12 c-17 -7 -67 -14 -111 -16 -44 -2 -71 -2 -60 1 11 3 51 12 90 21 38 9 65
18 59 20 -6 2 -37 -3 -69 -12 -72 -18 -128 -19 -177 -1 -21 8 -38 12 -38 11 0
-1 7 -19 15 -38 8 -20 15 -54 15 -75 0 -31 -19 -125 -34 -168 -3 -8 -23 -7
-69 6 -93 26 -134 48 -164 87 l-27 35 -13 -52 c-7 -29 -10 -56 -7 -61 3 -5 2
-8 -3 -7 -4 1 -37 -28 -73 -66 l-65 -68 -54 59 c-30 32 -59 57 -64 55 -5 -1
-6 2 -3 7 3 5 -1 25 -9 45 -8 19 -15 47 -15 62 0 26 -1 26 -49 -19 -36 -34
-66 -51 -117 -66 -38 -12 -76 -24 -85 -26 -35 -11 -62 201 -34 269 7 17 5 18
-16 12 -57 -17 -120 -18 -189 -1 -38 9 -72 20 -74 24 -10 16 44 165 73 201 18
22 28 40 23 40 -15 0 -89 -85 -110 -127 -18 -34 -46 -142 -40 -148 2 -2 27
-10 57 -19 68 -20 156 -21 211 -1 23 8 44 15 46 15 2 0 -3 -19 -11 -41 -20
-55 -19 -160 2 -226 l17 -53 35 6 c43 8 107 32 139 52 18 12 20 17 10 24 -9 6
-6 7 8 3 17 -4 30 4 58 36 35 41 36 42 36 16 0 -55 41 -138 99 -199 l56 -60
46 40 c51 46 105 138 115 199 l6 41 35 -39 c19 -21 42 -37 51 -37 14 1 46 -7
154 -38 18 -5 35 38 58 147 8 38 9 32 5 -36 -2 -44 -9 -94 -16 -111 l-12 -31
-51 12 c-28 6 -71 22 -96 34 -42 20 -43 21 -20 2 25 -20 87 -44 146 -56 31 -6
31 -5 48 53 19 71 20 163 1 217 -8 21 -13 41 -11 42 2 2 22 -4 46 -12 23 -8
68 -15 98 -15 66 0 172 28 172 45 0 6 -7 36 -16 66 -19 65 -64 138 -109 178
l-33 29 41 6 c61 10 153 63 199 115 l40 46 -60 56 c-61 58 -144 99 -199 99
-26 0 -26 1 15 36 44 38 106 151 116 215 l6 35 -53 17 c-66 21 -171 22 -226 2
-22 -8 -41 -13 -41 -11 0 2 7 23 15 46 20 55 19 139 -1 212 -18 64 -20 64 -94
44z m337 -301 l51 -15 -12 -53 c-13 -52 -51 -137 -62 -137 -3 0 -3 8 1 18 18
45 43 148 37 153 -6 6 -101 31 -157 43 -11 2 5 4 36 5 30 0 78 -6 106 -14z
m51 -349 c20 -13 55 -42 77 -65 l39 -41 -44 -46 c-25 -25 -63 -55 -85 -66 -37
-19 -34 -15 30 45 l70 66 -66 66 c-37 36 -65 65 -63 65 3 0 21 -11 42 -24z
m-1464 -431 c-13 -42 -24 -80 -24 -85 0 -10 113 -46 165 -53 19 -2 10 -5 -22
-6 -53 -1 -138 13 -160 27 -10 6 -10 21 2 67 13 50 49 125 60 125 1 0 -8 -34
-21 -75z m263 -325 c8 -36 19 -68 22 -72 4 -4 38 1 76 12 38 11 71 18 73 16 7
-8 -63 -39 -115 -52 l-53 -12 -15 51 c-8 28 -14 76 -14 106 1 31 3 47 5 36 3
-11 12 -49 21 -85z m554 -97 c-11 -21 -40 -58 -65 -82 l-45 -44 -32 27 c-37
31 -60 60 -79 96 -8 16 11 2 50 -35 l62 -60 61 67 c34 37 63 67 65 68 1 0 -6
-17 -17 -37z"/>
<path d="M506 2124 l-48 -26 4 -54 c4 -50 29 -97 43 -82 3 3 7 28 8 55 2 48 4
52 51 83 37 24 45 34 35 41 -22 14 -40 10 -93 -17z m74 7 c0 -4 -18 -20 -40
-35 -38 -25 -40 -29 -40 -78 0 -41 -3 -49 -12 -40 -7 7 -12 36 -13 65 0 52 0
52 45 75 48 24 60 27 60 13z"/>
<path d="M2401 2141 c-11 -7 -3 -17 32 -42 36 -25 47 -40 48 -61 1 -15 3 -32
4 -38 1 -5 3 -17 4 -25 2 -22 18 -18 31 6 16 30 21 101 8 117 -14 16 -82 52
-100 52 -7 0 -19 -4 -27 -9z m76 -22 c42 -21 43 -21 43 -72 0 -65 -14 -92 -24
-47 -3 18 -6 42 -6 54 0 14 -14 30 -40 46 -67 41 -48 55 27 19z"/>
<path d="M514 1695 c-14 -14 -43 -64 -65 -110 l-39 -85 39 -85 c64 -138 93
-152 241 -120 47 10 52 13 20 9 -160 -17 -153 -17 -184 7 -17 13 -45 58 -67
106 l-39 83 39 83 c21 45 50 93 64 106 28 25 36 25 192 7 37 -5 36 -4 -10 8
-27 8 -76 15 -108 15 -49 1 -62 -3 -83 -24z"/>
<path d="M2335 1713 c-11 -2 -45 -9 -75 -15 l-54 -10 39 -19 c63 -31 107 -65
154 -120 l44 -51 -63 -63 c-35 -35 -88 -77 -118 -93 l-55 -29 89 -17 c49 -9
103 -16 121 -16 48 0 88 41 133 136 l40 84 -39 85 c-52 111 -78 135 -145 134
-28 -1 -60 -3 -71 -6z m138 -23 c27 -21 97 -158 97 -188 0 -30 -77 -179 -101
-196 -24 -17 -109 -23 -109 -7 0 5 18 11 40 15 54 8 94 48 124 123 l24 63 -26
65 c-31 79 -62 112 -111 121 -63 11 -70 23 -15 24 37 0 59 -6 77 -20z m-145
-1 c-40 -23 -4 -59 58 -59 32 0 57 -27 79 -84 17 -44 17 -48 0 -92 -23 -60
-47 -84 -86 -84 -62 0 -93 -40 -46 -61 18 -8 17 -9 -12 -4 -18 3 -42 5 -52 5
-31 0 -22 14 27 39 25 14 70 53 101 88 l55 63 -37 46 c-42 51 -124 119 -158
130 -20 7 -19 9 13 15 19 3 44 7 55 7 18 1 19 1 3 -9z m108 -24 c27 -11 40
-27 61 -72 15 -32 27 -74 27 -93 0 -19 -12 -61 -27 -93 -29 -65 -65 -87 -137
-87 -53 0 -55 25 -2 34 74 13 90 25 112 82 25 69 25 72 -4 138 -24 55 -25 55
-85 67 -37 8 -61 18 -61 26 0 18 71 17 116 -2z"/>
<path d="M555 1676 c-40 -17 -50 -31 -80 -109 l-25 -66 30 -73 c17 -40 30 -74
30 -75 0 -13 89 -43 125 -43 44 0 50 5 45 39 -1 11 5 10 27 -4 15 -10 38 -24
50 -30 19 -10 13 -14 -64 -39 -49 -16 -98 -40 -116 -56 l-32 -29 2 -113 c2
-128 -5 -116 117 -198 85 -58 125 -56 205 10 33 27 63 55 67 62 4 7 -5 2 -19
-11 -15 -14 -28 -23 -29 -20 -32 52 -33 50 25 47 l54 -3 2 -70 c2 -60 36 -203
52 -219 2 -3 40 4 84 14 44 10 82 17 84 14 3 -2 -10 -20 -29 -39 -31 -32 -36
-34 -79 -28 -71 9 -86 18 -118 67 -31 47 -32 58 -9 131 3 11 -3 2 -14 -20 -26
-53 -25 -65 10 -113 39 -54 64 -68 130 -76 l54 -6 43 47 c32 34 46 44 55 35
15 -15 -23 -70 -68 -101 -32 -23 -36 -23 -110 -10 -76 14 -77 14 -122 72 -51
65 -57 101 -28 172 13 31 20 36 37 32 17 -5 19 -3 10 6 -9 9 -16 9 -31 -1 -30
-18 -24 0 10 33 17 16 30 33 30 39 0 16 -97 -95 -115 -131 -22 -45 -8 -90 55
-180 54 -77 54 -77 166 -88 84 -9 140 7 164 48 19 30 70 171 70 191 0 5 -8 2
-18 -6 -32 -29 -101 -58 -182 -77 -73 -17 -80 -17 -80 -2 -1 9 -9 41 -20 71
-11 33 -19 82 -20 122 0 93 -1 94 -64 90 -53 -4 -145 15 -203 40 l-30 13 21
87 c14 57 33 103 54 133 18 26 30 51 27 56 -4 5 -28 21 -55 34 -43 22 -170
138 -170 155 0 18 132 138 173 159 27 13 46 25 43 28 -3 3 -26 -6 -51 -20 -26
-15 -45 -21 -44 -14 4 32 -2 37 -48 37 -27 -1 -62 -7 -78 -14z m118 -11 c-1
-5 -10 -11 -20 -13 -86 -16 -94 -21 -124 -87 l-30 -63 29 -65 c29 -64 30 -64
86 -78 68 -17 70 -34 4 -34 -66 1 -97 27 -130 108 l-27 67 27 67 c34 84 73
115 142 111 25 -2 44 -7 43 -13z m-68 -95 l-69 -70 69 -69 70 -69 -40 6 c-22
2 -48 9 -58 14 -22 12 -57 83 -57 118 0 30 33 104 51 116 11 7 61 19 94 23 5
0 -22 -30 -60 -69z m137 -319 c-17 -28 -19 -29 -35 -13 -16 15 -19 15 -53 -3
-20 -11 -48 -37 -62 -58 -25 -37 -25 -39 -13 -120 13 -82 13 -82 65 -124 29
-23 64 -46 78 -52 29 -11 79 -2 123 22 38 21 28 22 -18 2 -66 -27 -106 -20
-169 31 -55 45 -57 48 -68 116 -9 54 -9 76 0 99 13 31 76 89 97 89 23 0 31
-32 18 -69 -6 -20 -15 -54 -19 -76 -4 -22 -9 -47 -12 -56 -4 -13 11 -21 68
-39 98 -30 119 -41 128 -65 9 -23 -10 -49 -52 -71 -55 -28 -109 -11 -205 65
l-51 40 -7 88 c-8 101 7 155 47 173 39 17 153 57 156 55 2 -2 -5 -17 -16 -34z
m141 -444 c-20 -60 -13 -82 44 -155 l48 -59 76 -13 c90 -14 117 -5 168 57 34
42 38 39 17 -12 -21 -50 -53 -66 -133 -67 -132 -1 -141 3 -199 90 -58 86 -67
112 -53 151 10 25 39 64 45 58 2 -1 -4 -24 -13 -50z m390 -81 c-16 -44 -17
-44 -34 -23 -16 21 -16 22 15 44 17 12 32 22 33 23 1 0 -5 -20 -14 -44z"/>
<path d="M669 1185 c-46 -30 -50 -42 -42 -116 5 -54 10 -63 47 -95 23 -20 50
-39 61 -44 22 -8 84 6 100 22 7 8 4 8 -10 3 -53 -21 -83 -17 -129 16 -49 34
-51 38 -61 112 -6 47 -5 50 35 88 48 46 48 48 -1 14z"/>
<path d="M355 1577 c-44 -44 -52 -78 -29 -118 22 -36 70 -76 81 -66 3 4 -4 29
-17 56 l-23 50 22 50 c11 27 21 52 21 55 0 15 -25 3 -55 -27z m30 -9 c-4 -13
-13 -32 -20 -43 -10 -17 -9 -27 8 -62 25 -52 14 -69 -19 -28 -38 47 -40 70
-10 115 29 44 51 53 41 18z"/>
<path d="M2590 1600 c0 -6 9 -30 20 -53 l20 -41 -22 -53 c-24 -59 -20 -73 16
-50 36 24 69 83 62 112 -11 44 -96 119 -96 85z m47 -32 c36 -40 45 -65 32 -90
-14 -29 -50 -68 -61 -68 -4 0 2 20 14 45 l22 45 -22 45 c-24 49 -17 58 15 23z"/>
<path d="M2245 1244 c36 -59 74 -200 59 -213 -24 -22 -117 -44 -198 -46 l-89
-3 -2 -84 c-1 -54 -9 -106 -23 -149 l-22 -66 -76 19 c-77 19 -167 58 -179 78
-13 21 -32 8 -55 -37 -34 -67 -34 -67 -20 -58 9 6 11 4 6 -4 -5 -7 -11 -10
-14 -6 -3 3 -34 -22 -68 -56 l-62 -62 -51 44 c-55 47 -89 91 -119 153 l-20 40
-11 -55 c-7 -30 -15 -84 -18 -120 -8 -90 6 -109 123 -165 l92 -44 84 39 c52
24 95 51 112 72 30 35 31 49 11 194 -4 31 1 22 23 -38 16 -42 37 -86 47 -97
27 -30 80 -43 149 -36 119 13 120 14 163 74 97 137 97 173 7 272 -49 53 -80
95 -64 85 8 -5 33 -8 56 -6 39 2 42 1 37 -18 -3 -12 0 -28 7 -36 23 -28 -6
-15 -35 15 -16 16 -33 30 -38 30 -12 0 89 -92 121 -109 45 -24 102 -9 185 49
76 53 76 53 84 109 4 31 8 82 7 113 0 83 -20 106 -130 145 -49 17 -94 32 -101
32 -6 1 4 -24 22 -55z m151 -19 c37 -24 47 -53 45 -129 -2 -118 -7 -131 -65
-174 -101 -77 -159 -91 -210 -51 -15 12 -26 23 -24 24 2 2 25 -2 52 -9 66 -17
85 -12 153 43 58 46 58 47 71 121 15 90 7 114 -49 165 -42 38 -76 45 -86 18
-4 -11 6 -27 35 -52 37 -32 42 -41 42 -77 0 -74 -10 -97 -54 -131 -47 -36 -85
-41 -126 -18 -19 10 -21 15 -10 18 8 3 47 15 86 27 l70 21 -17 79 c-9 43 -30
103 -46 133 l-30 55 70 -24 c39 -13 81 -31 93 -39z m-41 -10 c54 -42 66 -79
53 -161 -11 -72 -14 -75 -92 -135 -45 -33 -85 -37 -146 -13 -28 11 -40 22 -37
33 3 17 6 17 74 -5 41 -12 44 -12 90 19 54 36 68 61 77 131 5 49 4 51 -40 93
-41 40 -49 63 -23 63 6 0 25 -11 44 -25z m-261 -342 c78 -94 76 -128 -16 -250
-35 -46 -45 -53 -86 -58 -113 -15 -175 -10 -202 18 -18 19 -84 177 -77 183 1
1 17 -8 35 -21 25 -17 29 -24 17 -28 -24 -10 -18 -43 16 -82 53 -60 78 -68
165 -54 l76 12 49 61 c27 33 49 70 49 80 0 14 -5 10 -18 -15 -10 -20 -34 -54
-52 -77 -32 -37 -40 -41 -108 -51 -61 -9 -78 -8 -102 4 -30 15 -80 74 -80 93
0 28 25 20 61 -22 39 -44 41 -45 87 -40 81 9 88 13 126 60 40 52 45 84 21 140
-13 31 -13 36 1 41 20 7 24 2 45 -59 11 -31 18 -44 19 -30 0 12 -9 41 -21 63
-17 34 -24 40 -45 36 -22 -4 -24 -1 -24 29 0 19 2 34 4 34 3 0 30 -30 60 -67z
m-46 -58 c21 -46 14 -80 -25 -124 -32 -36 -46 -43 -93 -50 -64 -10 -77 -5
-115 45 -24 31 -25 36 -9 30 20 -9 168 -46 170 -43 7 11 44 135 44 149 0 26
15 22 28 -7z m-351 -82 c-1 -27 3 -76 7 -110 7 -52 6 -67 -8 -88 -18 -27 -165
-105 -198 -105 -30 0 -167 70 -188 97 -23 30 -25 76 -7 171 l12 64 19 -39 c11
-21 18 -48 17 -60 -1 -12 3 -40 9 -63 10 -36 17 -44 63 -66 64 -29 81 -30 144
-3 53 22 73 48 73 97 0 41 15 59 34 43 12 -10 16 -10 16 -1 0 6 -9 14 -20 17
-11 3 -20 7 -20 9 0 12 25 54 32 54 4 0 8 7 8 15 0 8 2 15 4 15 1 0 3 -21 3
-47z m-215 -172 c16 -12 26 -7 83 44 l65 57 0 -34 c0 -48 -21 -72 -83 -93 -52
-17 -55 -17 -100 0 -58 22 -69 34 -77 91 l-7 45 51 -48 c28 -27 59 -55 68 -62z"/>
<path d="M1314 679 c-11 -18 -6 -85 10 -122 15 -37 37 -52 125 -86 l52 -19 60
24 c33 14 69 30 80 37 23 14 49 77 48 115 -1 20 -3 16 -9 -15 -16 -77 -29 -90
-136 -131 l-49 -18 -65 26 c-81 33 -110 70 -110 141 0 37 4 49 18 52 15 4 15
5 0 6 -9 0 -20 -4 -24 -10z"/>
<path d="M493 1042 c-17 -11 -33 -58 -33 -97 0 -24 7 -39 25 -53 40 -32 83
-46 107 -35 20 8 17 12 -30 47 -28 20 -49 42 -46 49 8 23 -10 97 -23 89z m28
-123 c9 -4 27 -17 40 -28 l24 -20 -24 -1 c-13 0 -39 9 -57 21 -28 17 -34 27
-34 54 0 19 5 46 12 62 11 27 12 27 18 -25 3 -33 12 -57 21 -63z"/>
<path d="M2489 1032 c-1 -12 -3 -26 -4 -32 -1 -5 -3 -23 -4 -38 -1 -21 -12
-36 -48 -61 -41 -29 -44 -34 -29 -43 21 -12 95 13 120 40 23 26 15 107 -13
135 l-21 21 -1 -22z m31 -77 c0 -47 -2 -52 -34 -69 -18 -10 -43 -16 -56 -14
-19 3 -18 6 18 28 37 23 41 30 47 79 8 66 25 51 25 -24z"/>
<path d="M857 604 c-13 -14 -7 -46 19 -94 l26 -48 55 3 c34 1 61 8 71 18 21
21 16 25 -43 32 -36 5 -55 13 -68 30 -41 55 -53 66 -60 59z m63 -85 c0 -4 26
-10 57 -14 59 -7 58 -21 -2 -25 -68 -5 -75 -2 -95 43 -29 62 -24 78 10 37 17
-19 30 -37 30 -41z"/>
<path d="M2099 567 c-24 -34 -40 -47 -58 -48 -14 -1 -30 -2 -36 -4 -5 -1 -21
-3 -35 -3 l-24 -2 21 -21 c29 -30 107 -38 133 -14 29 26 54 99 42 121 -9 15
-14 12 -43 -29z m15 -53 c-17 -32 -22 -34 -69 -34 -73 0 -90 16 -25 25 45 6
55 12 78 45 23 32 27 35 30 17 2 -11 -4 -35 -14 -53z"/>
<path d="M1390 399 c0 -19 65 -77 94 -85 32 -8 102 34 115 69 12 30 1 32 -57
7 l-50 -22 -41 21 c-45 24 -61 26 -61 10z m181 -33 c-13 -14 -36 -30 -52 -36
-26 -11 -34 -10 -69 14 -62 41 -52 61 15 29 34 -16 37 -16 78 4 50 25 58 21
28 -11z"/>
<path d="M1683 2614 c-3 -8 1 -22 9 -30 12 -12 17 -12 33 -1 23 17 14 47 -15
47 -11 0 -23 -7 -27 -16z m47 -9 c0 -8 -9 -15 -20 -15 -11 0 -20 7 -20 15 0 8
9 15 20 15 11 0 20 -7 20 -15z"/>
<path d="M1843 2574 c-3 -8 2 -23 11 -32 15 -15 17 -15 32 0 21 21 11 48 -16
48 -11 0 -23 -7 -27 -16z m41 -2 c8 -13 -11 -35 -23 -28 -16 10 -14 36 3 36 8
0 17 -4 20 -8z"/>
<path d="M2220 2492 c0 -6 -8 -13 -17 -15 -16 -4 -16 -5 -1 -6 18 -1 34 16 24
26 -3 4 -6 1 -6 -5z"/>
<path d="M2210 2365 c-11 -13 -11 -18 2 -31 20 -20 50 -7 46 20 -4 26 -30 32
-48 11z m40 -9 c0 -21 -21 -31 -30 -15 -5 7 -6 17 -4 21 9 14 34 9 34 -6z"/>
<path d="M2324 2245 c-8 -20 4 -35 27 -35 23 0 36 27 21 42 -7 7 -10 5 -9 -8
1 -10 -6 -20 -15 -22 -21 -4 -25 24 -5 31 9 4 9 6 -1 6 -7 1 -15 -6 -18 -14z"/>
<path d="M742 2367 c-9 -10 -8 -18 2 -32 18 -25 48 -13 44 17 -4 27 -30 35
-46 15z m38 -17 c0 -11 -4 -20 -9 -20 -13 0 -32 26 -24 33 13 14 33 6 33 -13z"/>
<path d="M624 2245 c-4 -9 -2 -21 4 -27 16 -16 47 -5 47 17 0 26 -42 34 -51
10z m44 -7 c-7 -19 -38 -22 -38 -4 0 10 9 16 21 16 12 0 19 -5 17 -12z"/>
<path d="M2600 1986 c7 -7 14 -6 21 1 9 9 7 12 -9 10 -14 -1 -18 -5 -12 -11z"/>
<path d="M2540 1885 c-11 -13 -11 -18 2 -31 20 -20 50 -7 46 20 -4 26 -30 32
-48 11z m36 -6 c10 -17 -13 -36 -27 -22 -12 12 -4 33 11 33 5 0 12 -5 16 -11z"/>
<path d="M2576 1724 c-4 -10 -1 -24 7 -31 19 -19 49 -5 45 21 -4 27 -43 34
-52 10z m44 -8 c0 -8 -5 -18 -11 -22 -14 -8 -33 11 -25 25 10 16 36 13 36 -3z"/>
<path d="M2580 1305 c-11 -13 -11 -19 3 -32 21 -21 49 -9 45 19 -4 28 -30 35
-48 13z m40 -15 c0 -21 -24 -28 -35 -10 -8 14 3 30 21 30 8 0 14 -9 14 -20z"/>
<path d="M2533 1144 c-3 -8 2 -23 11 -32 15 -15 17 -15 32 0 21 21 11 48 -16
48 -11 0 -23 -7 -27 -16z m43 -5 c10 -17 -13 -36 -27 -22 -12 12 -4 33 11 33
5 0 12 -5 16 -11z"/>
<path d="M2330 785 c-17 -20 -5 -45 20 -45 11 0 23 7 26 15 6 15 -11 45 -26
45 -4 0 -13 -7 -20 -15z m40 -21 c0 -8 -9 -14 -20 -14 -19 0 -27 19 -14 33 10
9 34 -4 34 -19z"/>
<path d="M2210 665 c-11 -13 -11 -19 3 -32 21 -21 49 -9 45 19 -4 28 -30 35
-48 13z m38 -18 c2 -10 -3 -17 -11 -17 -16 0 -30 24 -19 34 10 10 27 1 30 -17z"/>
<path d="M1844 455 c-9 -23 3 -45 25 -45 23 0 35 28 20 46 -15 18 -38 18 -45
-1z m40 -10 c3 -9 -1 -18 -10 -22 -19 -7 -28 2 -21 22 8 19 23 19 31 0z"/>
<path d="M1690 415 c-17 -20 -5 -45 20 -45 11 0 23 7 26 15 6 15 -11 45 -26
45 -4 0 -13 -7 -20 -15z m38 -18 c2 -12 -3 -17 -17 -17 -12 0 -21 6 -21 13 0
31 32 34 38 4z"/>
<path d="M374 1306 c-9 -24 4 -48 23 -44 12 2 18 12 18 28 0 29 -32 41 -41 16z
m36 -16 c0 -11 -7 -20 -15 -20 -8 0 -15 9 -15 20 0 11 7 20 15 20 8 0 15 -9
15 -20z"/>
<path d="M414 1145 c-8 -21 2 -45 19 -45 8 0 20 7 27 15 10 12 10 18 0 30 -7
8 -19 15 -27 15 -7 0 -16 -7 -19 -15z m39 -2 c9 -9 -13 -34 -24 -27 -14 8 -11
34 4 34 8 0 17 -3 20 -7z"/>
<path d="M630 785 c-16 -19 -6 -45 19 -45 23 0 35 28 20 46 -15 18 -24 18 -39
-1z m38 -17 c-7 -19 -38 -22 -38 -4 0 10 9 16 21 16 12 0 19 -5 17 -12z"/>
<path d="M741 662 c-8 -15 -7 -23 4 -32 21 -18 47 -4 43 22 -4 29 -34 35 -47
10z m39 -6 c0 -18 -16 -29 -30 -21 -13 8 -1 35 16 35 8 0 14 -6 14 -14z"/>
<path d="M1110 455 c-15 -18 -6 -45 13 -45 8 0 20 7 27 15 10 12 10 18 0 30
-16 19 -24 19 -40 0z m36 -6 c10 -17 -13 -36 -27 -22 -12 12 -4 33 11 33 5 0
12 -5 16 -11z"/>
<path d="M1270 415 c-16 -19 -6 -45 19 -45 23 0 35 28 20 46 -15 18 -24 18
-39 -1z m34 -26 c-8 -14 -34 -11 -34 4 0 8 3 17 7 20 9 9 34 -13 27 -24z"/>
<path d="M551 2634 c-20 -15 -23 -22 -18 -59 4 -24 18 -69 32 -100 14 -32 24
-59 22 -61 -2 -2 -32 9 -67 23 -36 14 -83 27 -104 27 -34 1 -42 -3 -58 -31
l-19 -31 40 5 c44 6 96 -19 128 -62 18 -24 20 -24 84 -13 l66 11 11 66 11 66
-33 27 c-40 33 -60 77 -54 118 5 34 -6 38 -41 14z m29 -29 c0 -34 21 -73 58
-108 27 -26 29 -33 21 -60 -5 -18 -9 -44 -9 -59 0 -24 -4 -28 -29 -28 -16 0
-42 -5 -57 -10 -24 -10 -31 -7 -63 23 -46 44 -72 57 -112 57 -32 0 -32 0 -13
21 22 25 60 20 146 -18 31 -14 61 -22 68 -18 6 3 9 1 8 -6 -2 -6 2 -13 9 -16
6 -2 -4 31 -23 74 -41 95 -51 138 -34 158 18 22 30 18 30 -10z"/>
<path d="M2406 2620 c8 -36 -32 -109 -69 -129 -22 -12 -24 -17 -16 -38 5 -13
9 -43 9 -66 l0 -43 71 -11 71 -11 29 33 c35 39 78 59 119 53 35 -5 38 6 11 41
-16 21 -23 23 -63 17 -24 -4 -72 -20 -106 -36 -34 -16 -62 -28 -62 -26 0 2 14
33 30 69 43 90 48 129 21 156 -32 32 -52 28 -45 -9z m49 -10 c8 -14 -21 -113
-51 -172 -13 -26 -24 -49 -24 -52 0 -3 28 8 63 24 92 43 151 57 171 41 23 -19
20 -31 -8 -31 -39 0 -69 -15 -106 -53 l-35 -35 -56 11 -56 11 -10 55 -10 56
38 44 c38 43 58 98 44 121 -6 9 -2 9 13 1 12 -6 24 -16 27 -21z"/>
<path d="M400 2572 c0 -33 30 -64 79 -81 19 -6 36 -10 37 -8 7 6 -23 77 -41
97 -10 11 -31 20 -47 20 -24 0 -28 -4 -28 -28z m62 4 c17 -12 42 -65 35 -72
-9 -9 -68 20 -77 36 -24 44 3 66 42 36z"/>
<path d="M2523 2578 c-16 -18 -43 -77 -43 -93 0 -2 19 3 42 9 47 14 78 47 78
82 0 20 -5 24 -28 24 -17 0 -37 -9 -49 -22z m67 -2 c0 -21 -41 -63 -68 -71
-21 -6 -22 -4 -16 22 3 15 15 36 26 46 24 21 58 22 58 3z"/>
<path d="M283 2309 l-82 -60 -6 -67 c-3 -37 -8 -83 -11 -103 -7 -46 25 -86 77
-98 l36 -8 12 64 c17 96 46 146 117 212 l64 59 -35 31 c-51 45 -76 40 -172
-30z m161 27 l30 -23 -71 -70 c-66 -67 -72 -76 -92 -150 -11 -44 -21 -85 -21
-91 0 -29 -77 -2 -89 30 -5 14 -4 62 2 117 l11 94 79 58 c43 33 88 59 100 59
12 0 35 -11 51 -24z"/>
<path d="M306 2274 c-70 -26 -79 -40 -72 -113 6 -69 22 -96 50 -85 13 5 16 17
14 67 l-3 61 45 17 c36 13 45 21 45 40 0 30 -25 34 -79 13z m74 -12 c0 -13
-13 -23 -47 -33 l-48 -14 0 -64 c0 -41 -4 -66 -12 -68 -14 -5 -33 57 -33 109
0 32 5 40 32 54 69 36 108 41 108 16z"/>
<path d="M2542 2337 l-33 -34 47 -38 c82 -68 118 -134 138 -256 l6 -37 40 10
c57 15 74 38 71 101 -1 28 -4 61 -6 72 -2 11 -4 36 -4 56 -1 34 -7 40 -87 98
-102 72 -126 76 -172 28z m165 -36 l80 -59 6 -68 c13 -133 10 -152 -23 -169
-42 -22 -59 -19 -65 13 -27 131 -69 204 -147 258 l-40 28 31 28 c17 15 42 28
54 28 13 0 60 -26 104 -59z"/>
<path d="M2610 2275 c-17 -21 -1 -39 50 -54 49 -14 56 -28 42 -81 -7 -29 -6
-44 3 -56 28 -39 65 22 65 108 0 40 -25 65 -89 86 -45 16 -56 15 -71 -3z m108
-25 c47 -21 50 -32 31 -120 -11 -51 -17 -58 -35 -40 -8 8 -8 25 -1 54 13 59 7
71 -47 86 -49 14 -61 23 -50 41 7 12 41 6 102 -21z"/>
<path d="M122 2025 c-7 -14 -12 -34 -12 -43 0 -21 80 -101 130 -131 33 -20 34
-21 10 -22 -85 -2 -172 -22 -195 -45 -8 -8 -15 -32 -15 -51 l0 -36 24 22 c31
29 90 36 141 18 39 -14 40 -14 76 18 20 18 44 37 53 42 15 8 15 13 -3 54 -11
24 -21 54 -21 67 0 18 -6 22 -32 22 -49 1 -101 31 -120 68 -22 45 -23 46 -36
17z m56 -61 c9 -8 40 -21 67 -29 47 -14 51 -19 70 -68 l21 -53 -46 -40 c-43
-39 -46 -40 -75 -28 -41 18 -106 17 -132 -1 -25 -18 -34 -9 -22 22 9 26 24 30
146 46 l88 12 -50 35 c-109 75 -136 110 -119 155 5 13 9 11 20 -11 8 -15 22
-33 32 -40z"/>
<path d="M2850 2034 c0 -40 -78 -94 -136 -94 -16 0 -24 -6 -24 -17 0 -10 -11
-42 -25 -70 -14 -32 -20 -53 -13 -53 7 0 32 -17 57 -38 44 -37 48 -38 76 -26
44 19 95 17 132 -5 31 -20 31 -20 37 2 13 49 -34 79 -149 92 -27 3 -60 8 -72
11 -13 2 -23 1 -23 -4 0 -4 43 -13 96 -20 111 -14 134 -24 134 -57 0 -23 -1
-23 -31 -8 -29 15 -64 14 -139 -2 -19 -4 -35 4 -67 33 l-42 39 22 56 c15 38
28 57 39 57 35 0 99 33 123 63 21 28 25 29 31 14 11 -29 -16 -66 -83 -115 -34
-26 -60 -48 -58 -51 6 -5 70 43 118 88 42 39 46 67 17 102 -19 23 -19 23 -20
3z"/>
<path d="M22 1920 c-27 -11 -28 -21 -3 -51 16 -19 28 -24 66 -23 62 1 72 14
38 46 -33 31 -69 41 -101 28z m93 -30 c22 -25 16 -32 -29 -33 -33 -1 -76 24
-76 45 0 4 20 8 43 8 31 0 49 -6 62 -20z"/>
<path d="M2920 1923 c-8 -3 -30 -19 -47 -34 l-33 -28 41 -11 c48 -13 93 0 110
32 12 22 12 21 -18 37 -23 12 -30 12 -53 4z m64 -22 c8 -12 -26 -40 -50 -42
-10 -1 -32 -1 -48 -1 l-29 2 23 25 c17 18 34 25 61 25 21 0 40 -4 43 -9z"/>
<path d="M414 1885 c-8 -21 2 -45 19 -45 8 0 20 7 27 15 10 12 10 18 0 30 -7
8 -19 15 -27 15 -7 0 -16 -7 -19 -15z m41 -15 c0 -22 -29 -18 -33 3 -3 14 1
18 15 15 10 -2 18 -10 18 -18z"/>
<path d="M374 1726 c-9 -24 4 -48 23 -44 12 2 18 12 18 28 0 29 -32 41 -41 16z
m34 -13 c-5 -25 -28 -28 -28 -4 0 12 6 21 16 21 9 0 14 -7 12 -17z"/>
<path d="M94 1692 c-10 -11 -36 -59 -56 -106 l-37 -86 44 -95 c50 -108 70
-125 133 -109 42 10 44 22 16 94 -25 65 -23 170 5 243 13 32 20 61 17 64 -3 3
-28 8 -54 11 -40 3 -53 1 -68 -16z m111 -3 c2 -2 -7 -35 -21 -74 -30 -88 -30
-142 0 -228 l23 -69 -24 -9 c-61 -23 -79 -9 -128 97 l-44 94 41 87 c53 115 53
116 106 110 23 -2 45 -6 47 -8z"/>
<path d="M87 1581 c-45 -49 -53 -80 -34 -117 23 -43 73 -88 91 -81 24 9 18 38
-14 77 -17 19 -30 38 -30 42 0 4 14 23 31 42 32 37 35 69 8 74 -9 1 -32 -15
-52 -37z m63 11 c0 -10 -13 -31 -30 -47 -16 -16 -30 -34 -30 -42 0 -7 14 -28
30 -46 32 -37 39 -67 15 -67 -17 0 -85 87 -85 109 0 30 64 111 87 111 7 0 13
-8 13 -18z"/>
<path d="M2792 1700 c-22 -9 -22 -11 -7 -39 8 -17 22 -60 30 -96 14 -58 14
-72 0 -130 -8 -36 -22 -79 -30 -94 -14 -29 -14 -29 17 -40 77 -27 102 -9 156
113 l40 88 -40 87 c-22 47 -47 94 -55 104 -17 19 -72 22 -111 7z m106 -20 c10
-11 33 -56 51 -100 l33 -80 -34 -81 c-48 -112 -59 -123 -111 -115 -23 4 -43 9
-46 12 -2 2 2 19 11 37 30 63 41 142 28 205 -7 31 -19 69 -26 84 -18 35 -18
46 4 51 40 11 72 6 90 -13z"/>
<path d="M2836 1604 c-4 -10 6 -31 24 -54 35 -45 37 -60 9 -86 -43 -39 -47
-84 -8 -84 21 0 99 93 99 119 0 33 -73 121 -101 121 -9 0 -20 -7 -23 -16z m65
-27 c46 -57 51 -74 35 -104 -23 -45 -74 -89 -87 -76 -9 9 -2 23 25 54 20 23
36 45 36 49 0 4 -16 25 -36 48 -33 40 -38 62 -11 62 7 0 24 -15 38 -33z"/>
<path d="M40 1265 c0 -18 7 -41 15 -49 23 -23 109 -43 195 -45 24 -1 23 -2
-11 -24 -45 -27 -100 -75 -121 -106 -17 -24 -15 -41 8 -75 12 -17 14 -16 27
17 19 44 54 68 112 75 37 4 45 8 45 26 0 11 10 41 21 65 18 41 18 46 3 54 -9
5 -33 24 -53 42 -34 31 -38 32 -71 19 -54 -20 -94 -16 -134 11 l-36 24 0 -34z
m46 -10 c35 -18 77 -18 125 -1 35 12 37 11 80 -28 l45 -41 -18 -40 c-9 -22
-18 -48 -18 -57 0 -13 -8 -18 -27 -18 -43 0 -110 -38 -125 -70 -8 -19 -15 -25
-20 -17 -25 38 8 82 117 157 l50 35 -45 6 c-25 3 -70 9 -101 13 -63 8 -84 20
-94 54 -8 26 -6 27 31 7z"/>
<path d="M2926 1279 c-27 -27 -74 -32 -128 -15 l-48 14 -37 -34 c-20 -19 -45
-36 -54 -39 -16 -5 -16 -10 7 -58 13 -29 24 -59 24 -68 0 -11 9 -16 24 -16 67
0 136 -49 136 -97 0 -20 1 -20 20 4 32 41 25 63 -41 124 -33 31 -64 56 -69 56
-5 0 -16 7 -25 16 -9 9 -18 14 -21 11 -3 -2 23 -25 58 -50 91 -65 112 -90 104
-123 l-7 -27 -29 35 c-28 34 -57 50 -110 62 -19 4 -30 19 -47 63 -15 39 -19
59 -11 62 6 2 27 18 47 35 34 30 38 31 71 20 48 -18 85 -17 121 2 30 15 30 15
27 -8 -4 -31 -48 -50 -131 -56 -44 -3 -64 -8 -55 -13 16 -9 120 5 162 21 32
12 47 40 38 72 -7 24 -8 24 -26 7z"/>
<path d="M26 1137 c-14 -15 -26 -30 -26 -36 0 -15 59 -31 83 -22 23 9 73 58
66 65 -2 2 -25 7 -51 11 -42 6 -50 4 -72 -18z m82 7 l23 -7 -22 -23 c-15 -16
-34 -24 -55 -24 -44 0 -50 14 -18 39 29 23 36 24 72 15z"/>
<path d="M2880 1153 c-8 -2 -21 -6 -28 -9 -14 -4 40 -56 70 -67 20 -7 78 11
78 24 0 6 -11 21 -25 34 -23 24 -59 31 -95 18z m84 -24 c33 -26 25 -39 -23
-39 -27 0 -44 7 -60 24 l-23 24 24 5 c45 8 56 7 82 -14z"/>
<path d="M246 1015 c-21 -7 -44 -19 -50 -25 -10 -10 -11 -99 -2 -170 2 -14 4
-35 5 -47 1 -13 20 -35 54 -59 139 -100 148 -102 205 -48 28 27 33 37 22 41
-31 13 -119 107 -139 148 -11 25 -26 74 -33 110 -7 36 -15 65 -18 65 -3 -1
-22 -7 -44 -15z m48 -42 c20 -111 77 -209 147 -250 16 -10 29 -20 29 -24 0
-16 -55 -59 -75 -59 -13 0 -59 26 -102 59 l-79 58 -12 97 c-13 105 -8 130 31
146 43 17 54 12 61 -27z"/>
<path d="M249 914 c-7 -9 -13 -43 -13 -82 l-1 -67 55 -28 c65 -33 95 -32 95 2
0 19 -9 27 -45 40 l-45 17 3 59 c2 39 -2 61 -10 67 -18 11 -24 10 -39 -8z m36
-64 l0 -64 48 -15 c35 -11 47 -20 47 -34 0 -16 -5 -18 -27 -12 -16 3 -48 15
-72 26 l-44 19 5 64 c6 69 13 89 31 83 8 -2 12 -28 12 -67z"/>
<path d="M2696 1008 c-3 -13 -8 -40 -11 -61 -14 -85 -75 -176 -155 -231 l-25
-17 37 -34 c21 -19 48 -35 60 -35 13 0 61 27 108 61 85 60 85 60 91 112 3 29
5 81 5 116 -1 56 -4 66 -26 81 -14 10 -37 21 -52 24 -23 5 -28 2 -32 -16z m74
-13 c28 -14 30 -20 29 -68 0 -28 -4 -78 -8 -111 -8 -64 -5 -60 -119 -138 -65
-45 -80 -46 -121 -12 l-30 25 69 66 c49 46 73 77 82 104 14 48 28 38 31 -22 2
-42 1 -44 -38 -57 -22 -7 -47 -20 -55 -27 -12 -13 -12 -17 1 -31 13 -13 23
-14 55 -5 22 6 54 20 72 31 35 22 40 48 23 124 -12 52 -26 64 -52 48 -19 -12
-20 -11 -14 25 12 71 20 76 75 48z m-21 -119 c23 -91 11 -114 -73 -142 -35
-12 -51 -13 -59 -5 -14 14 -3 23 56 45 50 19 56 31 39 91 -10 35 -6 55 13 55
7 0 18 -20 24 -44z"/>
<path d="M515 670 c-3 -10 -22 -31 -43 -47 -29 -22 -47 -28 -84 -27 l-47 0 15
-28 c8 -16 22 -32 31 -35 25 -10 115 19 205 65 4 2 -6 -26 -23 -63 -16 -36
-32 -85 -35 -109 -6 -38 -3 -45 17 -60 35 -24 46 -20 41 14 -6 41 14 84 53
119 l33 29 -11 69 -12 68 -44 3 c-24 2 -54 8 -67 12 -18 7 -24 5 -29 -10z m92
-17 c39 -5 43 -8 43 -34 0 -15 5 -40 10 -55 10 -24 7 -31 -23 -63 -42 -44 -57
-72 -57 -105 0 -29 -11 -33 -30 -11 -17 20 -7 63 34 158 19 42 32 77 30 77 -3
0 -31 -13 -63 -30 -81 -40 -146 -56 -166 -40 -22 18 -18 30 10 30 34 0 73 21
110 59 17 19 35 29 44 26 8 -3 34 -9 58 -12z"/>
<path d="M2439 675 c-3 -2 -27 -6 -54 -8 l-50 -5 -6 -61 c-3 -34 -9 -64 -12
-67 -3 -4 8 -16 25 -28 42 -29 70 -83 64 -123 -6 -39 3 -41 41 -9 27 23 27 26
16 68 -9 34 -41 113 -61 149 -1 4 34 -9 80 -27 100 -41 120 -42 147 -8 29 37
26 44 -13 37 -39 -6 -91 20 -125 63 -17 22 -41 31 -52 19z m57 -36 c36 -38 75
-59 109 -59 28 0 32 -12 10 -30 -20 -16 -85 0 -167 41 -33 17 -62 28 -64 26
-2 -2 10 -34 27 -71 51 -110 56 -156 19 -176 -15 -8 -17 -6 -13 10 9 33 -6 69
-46 113 l-39 42 11 56 10 57 51 10 c28 5 54 10 57 11 3 0 18 -13 35 -30z"/>
<path d="M470 507 c-43 -14 -69 -43 -70 -79 0 -23 4 -28 24 -28 35 0 68 31 82
78 6 23 9 42 5 41 -3 -1 -22 -6 -41 -12z m25 -29 c-10 -32 -45 -68 -67 -68
-22 0 -24 27 -3 57 13 19 26 25 68 32 5 0 5 -9 2 -21z"/>
<path d="M2485 498 c17 -53 25 -67 47 -82 12 -9 33 -16 45 -16 44 0 19 81 -31
99 -64 24 -68 24 -61 -1z m88 -30 c23 -27 22 -58 -2 -58 -27 0 -59 30 -67 63
-6 27 -5 28 22 21 16 -3 37 -15 47 -26z"/>
<path d="M661 456 c-45 -46 -40 -70 29 -168 l61 -85 61 -7 c109 -11 163 -8
180 12 13 14 41 90 35 93 -1 0 -15 3 -32 5 -16 2 -59 11 -95 21 -58 15 -72 24
-136 89 l-72 72 -31 -32z m118 -73 c25 -24 60 -48 78 -54 44 -14 42 -26 -7
-34 -49 -8 -57 -4 -71 46 -15 47 -41 66 -60 43 -10 -12 -9 -25 4 -68 24 -76
44 -90 113 -82 88 10 111 28 78 61 -16 15 -14 16 22 10 82 -14 87 -20 59 -75
-17 -33 -36 -36 -168 -23 l-69 6 -59 81 c-32 44 -59 90 -59 102 0 13 12 37 27
54 l27 32 20 -28 c11 -16 40 -48 65 -71z m-10 -49 c13 -53 28 -60 87 -47 33 8
46 7 54 -2 16 -20 -9 -33 -77 -40 l-61 -7 -20 38 c-23 47 -35 91 -27 104 12
19 33 -3 44 -46z"/>
<path d="M2270 453 c-54 -79 -139 -127 -263 -148 -33 -5 -37 -9 -32 -28 16
-57 29 -78 53 -84 26 -6 190 3 213 12 23 10 129 168 129 192 0 21 -54 93 -69
93 -3 0 -17 -17 -31 -37z m70 -13 c28 -40 23 -58 -45 -152 l-55 -76 -106 -7
c-120 -8 -135 -2 -137 55 -2 32 -1 33 60 46 89 18 124 38 185 104 29 32 58 58
65 59 6 0 21 -13 33 -29z"/>
<path d="M2241 386 c-6 -7 -17 -31 -25 -52 l-13 -39 -64 0 c-57 0 -64 -2 -64
-20 0 -24 49 -44 112 -44 48 -1 63 14 89 91 12 39 13 52 4 63 -15 19 -24 19
-39 1z m35 -9 c6 -17 -22 -96 -43 -119 -27 -30 -153 -15 -153 18 0 13 10 15
63 9 71 -8 63 -14 96 78 11 29 28 36 37 14z"/>
<path d="M1145 333 c-28 -12 -58 -23 -67 -23 -12 0 -18 -8 -18 -25 0 -64 -51
-134 -97 -135 -15 -1 -15 -4 6 -20 35 -29 63 -25 102 18 46 47 93 111 87 117
-2 2 -25 -25 -51 -61 -49 -67 -83 -91 -114 -80 -16 7 -15 10 10 28 32 23 67
86 67 120 0 19 10 27 58 43 l58 21 40 -46 c39 -43 40 -46 28 -75 -18 -41 -17
-106 2 -133 14 -21 14 -22 -11 -22 -32 0 -41 21 -57 140 -6 50 -16 90 -20 90
-5 0 -7 -8 -4 -17 3 -10 8 -43 11 -73 13 -116 43 -167 92 -154 22 6 22 6 2 37
-23 38 -24 85 -5 132 13 30 13 35 -1 47 -9 7 -28 31 -42 54 l-26 40 -50 -23z"/>
<path d="M1785 325 c-9 -19 -28 -44 -40 -55 -22 -21 -23 -23 -8 -66 18 -53 11
-106 -18 -133 -20 -18 -20 -19 6 -25 57 -14 91 43 100 166 1 24 3 47 4 52 0 5
13 -9 27 -30 42 -63 106 -124 130 -124 12 0 32 9 45 20 24 19 24 19 3 20 -48
0 -96 69 -96 136 0 17 -8 24 -32 28 -17 3 -47 15 -67 25 l-35 19 -19 -33z
m150 -82 c11 -37 26 -61 50 -80 37 -29 37 -43 1 -43 -26 0 -71 45 -125 124
-18 26 -35 45 -37 43 -3 -2 -9 -43 -14 -90 -12 -106 -25 -137 -57 -137 -23 0
-23 1 -8 30 18 34 18 72 2 120 -12 34 -11 37 26 81 l39 46 54 -21 c51 -20 54
-23 69 -73z"/>
<path d="M1300 205 c-15 -41 -12 -90 8 -108 9 -8 56 -33 103 -55 l87 -40 88
40 c122 54 140 79 113 156 -11 31 -11 31 -40 17 -15 -8 -57 -22 -92 -30 -74
-17 -153 -7 -219 26 l-38 20 -10 -26z m65 -14 c38 -15 46 -21 33 -26 -27 -11
-22 -38 15 -72 36 -34 68 -53 90 -53 21 0 117 77 117 94 0 7 -7 19 -15 26 -13
10 -23 6 -61 -23 l-47 -36 -27 19 c-57 41 -55 46 23 46 45 0 89 7 117 18 81
31 77 32 85 -14 9 -55 -11 -75 -121 -122 l-81 -34 -94 45 c-61 30 -95 52 -97
64 -3 17 6 87 11 87 1 0 25 -9 52 -19z m86 -66 c22 -19 43 -35 47 -35 5 0 28
16 51 36 31 27 45 34 54 25 23 -23 -85 -109 -121 -96 -35 12 -95 72 -89 89 9
22 14 21 58 -19z"/>
<path d="M1102 117 c-27 -33 -33 -47 -28 -71 8 -40 20 -50 44 -37 32 17 45 62
32 110 -6 22 -12 41 -13 40 -1 0 -17 -19 -35 -42z m40 -9 c2 -41 -2 -62 -19
-80 -25 -28 -33 -22 -33 24 0 58 48 110 52 56z"/>
<path d="M1846 123 c-3 -21 -6 -46 -6 -56 0 -19 42 -67 59 -67 13 0 28 52 22
76 -6 19 -55 84 -64 84 -2 0 -7 -17 -11 -37z m62 -68 c-3 -47 -13 -50 -40 -14
-15 20 -18 34 -13 63 l7 37 25 -23 c19 -18 23 -31 21 -63z"/>
</g>
</svg>
